<svg xmlns="http://www.w3.org/2000/svg" xmlns:svg="http://www.w3.org/2000/svg" id="svg3105" width="278.314" height="333.777" version="1.1" viewBox="0 0 278.314 333.777" xml:space="preserve"><metadata id="metadata3111"/><g id="g3113" transform="matrix(1.3333333,0,0,-1.3333333,-139.14981,443.28592)"><g id="g3340"><path style="fill:#fff;fill-opacity:1;fill-rule:nonzero;stroke:none;stroke-width:.0999997" id="path3117" d="m 208.72662,332.46445 c -7.35876,0 -14.71684,-1.61245 -20.29834,-4.83545 l -0.80127,-0.45997 -62.96485,-36.35449 c -1.813,-1.047 -3.56328,-2.36207 -5.23828,-3.85107 -3.928,-3.488 -7.38209,-8.02812 -9.9961,-12.97412 -3.141,-5.943 -5.06542,-12.44292 -5.06542,-18.33692 v -8.96191 -15.88477 -26.0039 -5.4419 -17.33643 c 0,-6.337 2.2132,-13.37746 5.7832,-19.66846 3.695,-6.50899 8.8396,-12.21564 14.5166,-15.49365 l 11.95752,-7.15723 37.9834,-22.73877 58.18945,-34.833979 v 30.087889 l 16.51173,9.53321 21.89062,12.6372 21.59912,12.47168 c 5.696,3.289 10.85669,9.02358 14.55469,15.55957 2.623,4.64201 4.51098,9.68376 5.31299,14.55176 0.28399,1.714 0.43652,3.40678 0.43652,5.05078 v 17.73926 39.43506 9.08497 7.36962 c 0,6.39 -2.24949,13.49859 -5.87549,19.82959 -3.688,6.443 -8.79871,12.08052 -14.42871,15.33252 l -14.5708,8.41113 -32.37012,18.68995 -16.82519,9.71338 c -5.58351,3.223 -12.94252,4.83545 -20.30127,4.83545 z"/><g id="text3300" aria-label="B" transform="matrix(1.0103362,0,0,-0.98976955,-8.5902842,-61.042635)" style="font-size:177.961px;line-height:1.25;font-family:sans-serif;fill:#fff;stroke-width:22.2451"><path style="font-style:normal;font-variant:normal;font-weight:700;font-stretch:normal;font-family:sans-serif;-inkscape-font-specification:'sans-serif Bold';fill:#2c3e50;fill-opacity:1;stroke-width:22.2451" id="path3334" d="m 217.55635,-301.63673 q 7.90745,0 11.99151,-3.47581 4.08407,-3.4758 4.08407,-10.25361 0,-6.69091 -4.08407,-10.16671 -4.08406,-3.5627 -11.99151,-3.5627 h -18.50864 v 27.45883 z m 1.12964,56.74244 q 10.07982,0 15.11973,-4.25785 5.12681,-4.25786 5.12681,-12.86047 0,-8.42881 -5.03992,-12.59977 -5.03991,-4.25786 -15.20662,-4.25786 h -19.63828 v 33.97595 z m 31.10841,-46.66262 q 10.77499,3.12822 16.68385,11.55704 5.90886,8.42881 5.90886,20.68101 0,18.76932 -12.68667,27.9802 -12.68668,9.21087 -38.58139,9.21087 h -55.52592 v -129.73427 h 50.22532 q 27.02435,0 39.10276,8.16814 12.1653,8.16813 12.1653,26.1554 0,9.47155 -4.43164,16.16247 -4.43165,6.60402 -12.86047,9.81914 z"/></g></g></g></svg>