<svg xmlns="http://www.w3.org/2000/svg" xmlns:svg="http://www.w3.org/2000/svg" id="svg4163" width="652.84" height="652.84" version="1.1" viewBox="0 0 217.613 217.613" style="overflow:hidden"><metadata id="metadata4167"/><defs id="SvgjsDefs1007"><radialGradient id="SvgjsRadialGradient2907" cx="100" cy="114" r="41" class="svga-on-canvas-facehighlight-gradient-single-0" gradientUnits="userSpaceOnUse"><stop id="SvgjsStop2908" offset="0" stop-color="#c27d5c" stop-opacity=".5"/><stop id="SvgjsStop2909" offset=".9" stop-color="#b36743" stop-opacity="0"/></radialGradient><radialGradient id="SvgjsRadialGradient2911" cx="100" cy="54" r="37" class="svga-on-canvas-facehighlight-gradient-single-1" gradientUnits="userSpaceOnUse"><stop id="SvgjsStop2912" offset="0" stop-color="#c27d5c" stop-opacity=".5"/><stop id="SvgjsStop2913" offset=".9" stop-color="#b36743" stop-opacity="0"/></radialGradient><radialGradient id="SvgjsRadialGradient3542" cx="-568.659" cy="-521.042" r="59.751" class="svga-on-canvas-eyesiris-gradient-left-1" gradientTransform="matrix(0.096,-0.0248,0.0245,0.0961,141.2814,119.9893)" gradientUnits="userSpaceOnUse"><stop id="SvgjsStop3543" offset="0" stop-color="#fff" stop-opacity="1"/><stop id="SvgjsStop3544" offset="1" stop-color="#fff" stop-opacity="0"/></radialGradient><radialGradient id="SvgjsRadialGradient3546" cx="-582.838" cy="-519.099" r="59.745" class="svga-on-canvas-eyesiris-gradient-left-2" gradientTransform="matrix(0.0991,8.856319e-4,-0.0011,0.0991,131.1134,135.9855)" gradientUnits="userSpaceOnUse"><stop id="SvgjsStop3547" offset="0" stop-color="#fff" stop-opacity="1"/><stop id="SvgjsStop3548" offset="1" stop-color="#fff" stop-opacity="0"/></radialGradient><linearGradient id="SvgjsLinearGradient3552" x1="122.67" x2="123.606" y1="88.268" y2="87.152" class="svga-on-canvas-eyesiris-gradient-left-5" gradientTransform="translate(-52)" gradientUnits="userSpaceOnUse"><stop id="SvgjsStop3553" offset="0" stop-color="#fff" stop-opacity="1"/><stop id="SvgjsStop3554" offset="1" stop-color="#fff" stop-opacity="0"/></linearGradient><linearGradient id="SvgjsLinearGradient3560" x1="129.636" x2="127.91" y1="79.822" y2="81.879" class="svga-on-canvas-eyesiris-gradient-left-7" gradientTransform="translate(-52)" gradientUnits="userSpaceOnUse"><stop id="SvgjsStop3561" offset="0" stop-color="#fff" stop-opacity="1"/><stop id="SvgjsStop3562" offset="1" stop-color="#fff" stop-opacity="0"/></linearGradient><radialGradient id="SvgjsRadialGradient3565" cx="-568.654" cy="-521.042" r="59.752" class="svga-on-canvas-eyesiris-gradient-right-1" gradientTransform="matrix(0.096,-0.0248,0.0245,0.0961,193.2804,119.9894)" gradientUnits="userSpaceOnUse"><stop id="SvgjsStop3566" offset="0" stop-color="#fff" stop-opacity="1"/><stop id="SvgjsStop3567" offset="1" stop-color="#fff" stop-opacity="0"/></radialGradient><radialGradient id="SvgjsRadialGradient3569" cx="-582.833" cy="-519.102" r="59.747" class="svga-on-canvas-eyesiris-gradient-right-2" gradientTransform="matrix(0.0991,8.856319e-4,-0.0011,0.0991,183.1126,135.9856)" gradientUnits="userSpaceOnUse"><stop id="SvgjsStop3570" offset="0" stop-color="#fff" stop-opacity="1"/><stop id="SvgjsStop3571" offset="1" stop-color="#fff" stop-opacity="0"/></radialGradient><linearGradient id="SvgjsLinearGradient3575" x1="122.67" x2="123.606" y1="88.268" y2="87.152" class="svga-on-canvas-eyesiris-gradient-right-5" gradientUnits="userSpaceOnUse"><stop id="SvgjsStop3576" offset="0" stop-color="#fff" stop-opacity="1"/><stop id="SvgjsStop3577" offset="1" stop-color="#fff" stop-opacity="0"/></linearGradient><linearGradient id="SvgjsLinearGradient3583" x1="129.636" x2="127.91" y1="79.822" y2="81.879" class="svga-on-canvas-eyesiris-gradient-right-7" gradientUnits="userSpaceOnUse"><stop id="SvgjsStop3584" offset="0" stop-color="#fff" stop-opacity="1"/><stop id="SvgjsStop3585" offset="1" stop-color="#fff" stop-opacity="0"/></linearGradient><radialGradient id="SvgjsRadialGradient3619" cx="125.903" cy="85.096" r="13.25" class="svga-on-canvas-eyesback-gradient-left-0" gradientTransform="matrix(-1.0996,0.0423,0.0635,0.9207,206.5488,0.5932)" gradientUnits="userSpaceOnUse"><stop id="SvgjsStop3620" offset="0" stop-color="#fff" stop-opacity="1"/><stop id="SvgjsStop3621" offset=".544" stop-color="#fdfefe" stop-opacity="1"/><stop id="SvgjsStop3622" offset=".74" stop-color="#f6f8f9" stop-opacity="1"/><stop id="SvgjsStop3623" offset=".879" stop-color="#eaeff2" stop-opacity="1"/><stop id="SvgjsStop3624" offset=".992" stop-color="#d9e3e8" stop-opacity="1"/><stop id="SvgjsStop3625" offset="1" stop-color="#d8e2e7" stop-opacity="1"/></radialGradient><radialGradient id="SvgjsRadialGradient3627" cx="125.541" cy="85.113" r="13.249" class="svga-on-canvas-eyesback-gradient-right-0" gradientTransform="matrix(1.0996,0.0423,-0.0635,0.9207,-6.5488,0.5932)" gradientUnits="userSpaceOnUse"><stop id="SvgjsStop3628" offset="0" stop-color="#fff" stop-opacity="1"/><stop id="SvgjsStop3629" offset=".544" stop-color="#fdfefe" stop-opacity="1"/><stop id="SvgjsStop3630" offset=".74" stop-color="#f6f8f9" stop-opacity="1"/><stop id="SvgjsStop3631" offset=".879" stop-color="#eaeff2" stop-opacity="1"/><stop id="SvgjsStop3632" offset=".992" stop-color="#d9e3e8" stop-opacity="1"/><stop id="SvgjsStop3633" offset="1" stop-color="#d8e2e7" stop-opacity="1"/></radialGradient><radialGradient id="SvgjsRadialGradient3635" cx="125.903" cy="85.096" r="13.25" class="svga-on-canvas-eyesfront-gradient-left-0" gradientTransform="matrix(-1.0996,0.0423,0.0635,0.9207,206.5488,0.5932)" gradientUnits="userSpaceOnUse"><stop id="SvgjsStop3636" offset="0" stop-color="#fff" stop-opacity="1"/><stop id="SvgjsStop3637" offset=".544" stop-color="#fdfefe" stop-opacity="1"/><stop id="SvgjsStop3638" offset=".74" stop-color="#f6f8f9" stop-opacity="1"/><stop id="SvgjsStop3639" offset=".879" stop-color="#eaeff2" stop-opacity="1"/><stop id="SvgjsStop3640" offset=".992" stop-color="#d9e3e8" stop-opacity="1"/><stop id="SvgjsStop3641" offset="1" stop-color="#d8e2e7" stop-opacity="1"/></radialGradient><radialGradient id="SvgjsRadialGradient3645" cx="123.371" cy="81.442" r="17.038" class="svga-on-canvas-eyesfront-gradient-left-3" fx="136.805" fy="80.36" gradientTransform="matrix(0.9884,0.1367,0.1336,-0.7354,-56.0677,125.3)" gradientUnits="userSpaceOnUse"><stop id="SvgjsStop3646" offset="0" stop-color="#a4532d" stop-opacity="1"/><stop id="SvgjsStop3647" offset=".7" stop-color="#a4532d" stop-opacity=".3"/><stop id="SvgjsStop3648" offset="1" stop-color="#b36743" stop-opacity="0"/></radialGradient><radialGradient id="SvgjsRadialGradient3650" cx="78.965" cy="81.143" r="26.237" class="svga-on-canvas-eyesfront-gradient-left-4" gradientTransform="matrix(0.7183,-0.06,0.0803,0.6143,8.7915,49.2595)" gradientUnits="userSpaceOnUse"><stop id="SvgjsStop3651" offset=".95" stop-color="#000" stop-opacity="0"/><stop id="SvgjsStop3652" offset="1" stop-color="#000" stop-opacity=".2"/></radialGradient><radialGradient id="SvgjsRadialGradient3656" cx="125.541" cy="85.113" r="13.249" class="svga-on-canvas-eyesfront-gradient-right-0" gradientTransform="matrix(1.0996,0.0423,-0.0635,0.9207,-6.5488,0.5932)" gradientUnits="userSpaceOnUse"><stop id="SvgjsStop3657" offset="0" stop-color="#fff" stop-opacity="1"/><stop id="SvgjsStop3658" offset=".544" stop-color="#fdfefe" stop-opacity="1"/><stop id="SvgjsStop3659" offset=".74" stop-color="#f6f8f9" stop-opacity="1"/><stop id="SvgjsStop3660" offset=".879" stop-color="#eaeff2" stop-opacity="1"/><stop id="SvgjsStop3661" offset=".992" stop-color="#d9e3e8" stop-opacity="1"/><stop id="SvgjsStop3662" offset="1" stop-color="#d8e2e7" stop-opacity="1"/></radialGradient><radialGradient id="SvgjsRadialGradient3666" cx="122.972" cy="81.425" r="17.037" class="svga-on-canvas-eyesfront-gradient-right-3" fx="136.406" fy="80.344" gradientTransform="matrix(-0.9884,0.1367,-0.1336,-0.7354,255.271,125.3424)" gradientUnits="userSpaceOnUse"><stop id="SvgjsStop3667" offset="0" stop-color="#a4532d" stop-opacity="1"/><stop id="SvgjsStop3668" offset=".7" stop-color="#a4532d" stop-opacity=".3"/><stop id="SvgjsStop3669" offset="1" stop-color="#b36743" stop-opacity="0"/></radialGradient><radialGradient id="SvgjsRadialGradient3671" cx="79.515" cy="81.186" r="26.237" class="svga-on-canvas-eyesfront-gradient-right-4" gradientTransform="matrix(-0.7183,-0.06,-0.0803,0.6143,191.2076,49.2665)" gradientUnits="userSpaceOnUse"><stop id="SvgjsStop3672" offset=".95" stop-color="#000" stop-opacity="0"/><stop id="SvgjsStop3673" offset="1" stop-color="#000" stop-opacity=".2"/></radialGradient><linearGradient id="SvgjsLinearGradient3683" x1="132" x2="126" y1="78" y2="84" class="svga-on-canvas-eyesiris-gradient-left-6" gradientTransform="translate(-50)" gradientUnits="userSpaceOnUse"><stop id="SvgjsStop3684" offset="0" stop-color="#fff" stop-opacity="1"/><stop id="SvgjsStop3685" offset="1" stop-color="#fff" stop-opacity="0"/></linearGradient><linearGradient id="SvgjsLinearGradient3693" x1="132" x2="126" y1="78" y2="84" class="svga-on-canvas-eyesiris-gradient-right-6" gradientUnits="userSpaceOnUse"><stop id="SvgjsStop3694" offset="0" stop-color="#fff" stop-opacity="1"/><stop id="SvgjsStop3695" offset="1" stop-color="#fff" stop-opacity="0"/></linearGradient><linearGradient id="SvgjsLinearGradient3793" x1="100" x2="100" y1="140" y2="138" class="svga-on-canvas-mouth-gradient-single-0" gradientUnits="userSpaceOnUse"><stop id="SvgjsStop3794" offset=".1" stop-color="#ea7f4d" stop-opacity="1"/><stop id="SvgjsStop3795" offset="1" stop-color="#e0713e" stop-opacity="1"/></linearGradient><linearGradient id="SvgjsLinearGradient3962" x1="100" x2="100" y1="171" y2="128" class="svga-on-canvas-chinshadow-gradient-single-0" gradientTransform="matrix(1.4334586,0,0,0.8999997,-2.3768656,-5.3447163)" gradientUnits="userSpaceOnUse"><stop id="SvgjsStop3963" offset="0" stop-color="#e0713e" stop-opacity=".8"/><stop id="SvgjsStop3964" offset=".7" stop-color="#b6430d" stop-opacity="1"/></linearGradient><radialGradient id="SvgjsRadialGradient3619-3" cx="125.903" cy="85.096" r="13.25" class="svga-on-canvas-eyesback-gradient-left-0" gradientTransform="matrix(-1.0996,0.0423,0.0635,0.9207,206.5488,0.5932)" gradientUnits="userSpaceOnUse"><stop id="SvgjsStop3620-5" offset="0" stop-color="#fff" stop-opacity="1"/><stop id="SvgjsStop3621-6" offset=".544" stop-color="#fff" stop-opacity="1"/><stop id="SvgjsStop3622-2" offset=".74" stop-color="#fff" stop-opacity="1"/><stop id="SvgjsStop3623-9" offset=".879" stop-color="#fff" stop-opacity="1"/><stop id="SvgjsStop3624-1" offset=".992" stop-color="#fff" stop-opacity="1"/><stop id="SvgjsStop3625-2" offset="1" stop-color="#fff" stop-opacity="1"/></radialGradient><radialGradient id="SvgjsRadialGradient3645-9" cx="123.371" cy="81.442" r="17.038" class="svga-on-canvas-eyesfront-gradient-left-3" fx="136.805" fy="80.36" gradientTransform="matrix(0.9884,0.1367,0.1336,-0.7354,-56.0677,125.3)" gradientUnits="userSpaceOnUse"><stop id="SvgjsStop3646-3" offset="0" stop-color="#e0713e" stop-opacity="1"/><stop id="SvgjsStop3647-6" offset=".7" stop-color="#e0713e" stop-opacity=".3"/><stop id="SvgjsStop3648-0" offset="1" stop-color="#f68d5b" stop-opacity="0"/></radialGradient><radialGradient id="SvgjsRadialGradient3650-6" cx="78.965" cy="81.143" r="26.237" class="svga-on-canvas-eyesfront-gradient-left-4" gradientTransform="matrix(0.7183,-0.06,0.0803,0.6143,8.7915,49.2595)" gradientUnits="userSpaceOnUse"><stop id="SvgjsStop3651-2" offset=".95" stop-color="#0c0c0c" stop-opacity="0"/><stop id="SvgjsStop3652-6" offset="1" stop-color="#0c0c0c" stop-opacity=".2"/></radialGradient><radialGradient id="SvgjsRadialGradient3627-1" cx="125.541" cy="85.113" r="13.249" class="svga-on-canvas-eyesback-gradient-right-0" gradientTransform="matrix(1.0996,0.0423,-0.0635,0.9207,-6.5488,0.5932)" gradientUnits="userSpaceOnUse"><stop id="SvgjsStop3628-8" offset="0" stop-color="#fff" stop-opacity="1"/><stop id="SvgjsStop3629-7" offset=".544" stop-color="#fff" stop-opacity="1"/><stop id="SvgjsStop3630-9" offset=".74" stop-color="#fff" stop-opacity="1"/><stop id="SvgjsStop3631-2" offset=".879" stop-color="#fff" stop-opacity="1"/><stop id="SvgjsStop3632-0" offset=".992" stop-color="#fff" stop-opacity="1"/><stop id="SvgjsStop3633-2" offset="1" stop-color="#fff" stop-opacity="1"/></radialGradient><radialGradient id="SvgjsRadialGradient3666-5" cx="122.972" cy="81.425" r="17.037" class="svga-on-canvas-eyesfront-gradient-right-3" fx="136.406" fy="80.344" gradientTransform="matrix(-0.9884,0.1367,-0.1336,-0.7354,255.271,125.3424)" gradientUnits="userSpaceOnUse"><stop id="SvgjsStop3667-9" offset="0" stop-color="#e0713e" stop-opacity="1"/><stop id="SvgjsStop3668-2" offset=".7" stop-color="#e0713e" stop-opacity=".3"/><stop id="SvgjsStop3669-2" offset="1" stop-color="#f68d5b" stop-opacity="0"/></radialGradient><radialGradient id="SvgjsRadialGradient3671-8" cx="79.515" cy="81.186" r="26.237" class="svga-on-canvas-eyesfront-gradient-right-4" gradientTransform="matrix(-0.7183,-0.06,-0.0803,0.6143,191.2076,49.2665)" gradientUnits="userSpaceOnUse"><stop id="SvgjsStop3672-9" offset=".95" stop-color="#0c0c0c" stop-opacity="0"/><stop id="SvgjsStop3673-7" offset="1" stop-color="#0c0c0c" stop-opacity=".2"/></radialGradient><radialGradient id="SvgjsRadialGradient2907-3" cx="100" cy="114" r="41" class="svga-on-canvas-facehighlight-gradient-single-0" gradientUnits="userSpaceOnUse"><stop id="SvgjsStop2908-6" offset="0" stop-color="#c27d5c" stop-opacity=".5"/><stop id="SvgjsStop2909-1" offset=".9" stop-color="#b36743" stop-opacity="0"/></radialGradient><radialGradient id="SvgjsRadialGradient2911-2" cx="100" cy="54" r="37" class="svga-on-canvas-facehighlight-gradient-single-1" gradientUnits="userSpaceOnUse"><stop id="SvgjsStop2912-9" offset="0" stop-color="#c27d5c" stop-opacity=".5"/><stop id="SvgjsStop2913-3" offset=".9" stop-color="#b36743" stop-opacity="0"/></radialGradient><clipPath id="clipPath5319" clipPathUnits="userSpaceOnUse"><rect id="rect5321" width="181.436" height="214.873" x="50.154" y="-18.325" style="stroke-width:.33333334"/></clipPath><clipPath id="clipPath236" clipPathUnits="userSpaceOnUse"><circle id="circle238" cx="142.516" cy="89.385" r="108.807" style="stroke-width:.34283248"/></clipPath></defs><g id="layer1" transform="translate(-33.709358,19.421501)" style="display:inline;opacity:1"><g id="g5315" clip-path="url(#clipPath236)"><g id="svga-group-hair-back" transform="matrix(0.8999997,0,0,0.8999997,50.822184,-5.3447243)"><path id="SvgjsPath3910" stroke-width="none" d="m 38.058,105.866 c -4.527,-10.708 -3.86,-15.133 -2.654,-23.504 -2.078,2.251 -3.322,5.27 -6.713,8.063 0.263,-2.006 4.269,-13.639 4.587,-14.493 -3.844,3.504 -5.969,4.251 -7.809,4.972 1.242,-1.853 2.066,-4.007 3.9,-7.933 h 11.529 c 0.231,4.281 1.066,9.569 2.312,14.214 -0.659,0.437 -2.391,3.18 -5.152,18.681 z M 158.91,74.599 c -0.047,3.839 -1.342,11.034 -2.908,15.869 0.805,0.541 1.743,1.173 1.539,1.009 5.951,4.778 6.908,5.603 7.514,13.386 4.324,-9.33 0.656,-21.307 0.439,-30.263 h -6.584 z m 6.592,0 h 4.441 c -0.582,1.969 -1.936,4.788 -3.422,6.633 -0.558,-2.165 -0.865,-5.246 -1.019,-6.633 z" style="opacity:1;fill:#251b26"/><path id="SvgjsPath3911" stroke-width="none" d="m 34.21,74.635 c -3.399,8.93 -3.599,11.16 -5.399,15.54 2.85,-2.348 4.987,-6.981 6.9,-8.22 -0.33,3.02 -1.9,9.12 -0.15,15.8 0.66,2.53 1.5,4.98 2.511,7.37 0.26,-3.56 0.79,-13.93 4.079,-17.08 -2.26,5.95 -3.55,13.73 -3.55,19.8 -6.41,-11.17 -4.939,-17.3 -3.43,-25.09 -2.34,2.67 -3,6.01 -7.49,8.73 1.53,-3.23 2.021,-7.07 5.19,-14.94 -2.63,2.63 -4.4,3.68 -7.91,4.72 1.318,-2.181 2.478,-4.946 3.497,-7.194 h 1.082 c -0.999,2.154 -2.031,4.326 -3.289,6.204 2.63,-1.03 5.149,-2.95 7.959,-5.64 z m 121.792,15.833 c 0.216,0.149 1.676,1.152 2.332,1.728 2.736,2.402 6.264,4.594 6.018,15.28 4.543,-7.848 3.954,-19.464 2.539,-25.79 2.017,-2.169 3.379,-4.842 4.074,-7.094 l -1.203,-0.011 c -0.582,1.969 -1.655,4.34 -3.141,6.185 -0.56,-2.165 -0.865,-4.579 -1.019,-5.966 l -0.108,-0.2 c 0.217,8.956 3.115,19.588 -0.243,29.516 -0.606,-7.783 -2.41,-9.201 -9.249,-13.648 z" style="opacity:1;fill:#0c0c0c"/></g><path id="SvgjsPath2914" d="m 277.74531,174.45543 c -3.14784,-4.2714 -11.74718,-10.6011 -21.30119,-12.3498 -11.81027,-2.1627 -38.46971,-4.7772 -48.35485,-6.2307 -7.92417,-1.1664 -23.8843,-10.16459 -29.47764,-13.18499 -1.00342,-0.54 -1.82478,-1.6551 -1.84486,-2.484 -0.19924,-9.7776 6.01333,-35.75159 6.01333,-35.75159 H 140.96899 99.159312 c 0,0 6.212608,25.97309 6.010498,35.75159 -0.016,0.8289 -0.84146,1.944 -1.842,2.484 -5.593368,3.0204 -21.553474,12.01859 -29.477646,13.18499 -9.886563,1.4535 -36.546025,4.1571 -48.354859,6.3198 -9.556867,1.7478 -18.1533189,7.9884 -21.3011933,12.2598 -5.3152656,7.20719 -6.5709752,20.24999 -6.5709752,31.49999 H 140.96899 284.31486 c 0,-11.2491 -1.25715,-24.2919 -6.56955,-31.49909 z" style="opacity:1;fill:#dd7f52;stroke:none;stroke-width:1.13583112"/><path id="SvgjsPath2915" d="m 225.76669,160.23058 c 34.89325,3.19304 49.57757,7.85009 54.17612,45.72394 h 4.37205 c 0,-11.2685 -1.25715,-24.33274 -6.56955,-31.55178 -3.14784,-4.27842 -11.74718,-10.61852 -21.30119,-12.3701 -11.81027,-2.16625 -38.46971,-4.78505 -48.35485,-6.24094 -7.92417,-1.16832 -26.14916,-10.87995 -31.02435,-14.73918 4.81642,4.24056 18.33538,14.06758 30.18005,16.6413 5.66644,1.23142 10.3854,1.79214 18.52172,2.53676 z M 74.694475,157.69382 c 11.844663,-2.57282 25.362175,-12.40074 30.180045,-16.6413 -4.87377,3.85833 -23.098756,13.57086 -31.024356,14.73918 -9.885128,1.45589 -36.544592,4.16393 -48.354859,6.33019 -9.554001,1.75067 -18.1533189,8.00153 -21.3011933,12.27995 -5.3123993,7.21904 -6.569542,20.28328 -6.569542,31.55178 h 4.3720489 c 4.5698658,-37.63136 19.3158544,-42.5345 54.1761354,-45.72394 8.134878,-0.74372 12.855259,-1.30444 18.521721,-2.53586 z" style="opacity:1;fill:#f09a71;stroke:none;stroke-width:1.13676441"/><path id="SvgjsPath2916" d="m 134.7277,172.45645 c 0,0 -7.27335,-1.45048 -10.15315,-2.14462 -14.97823,-3.61403 -63.638411,-5.95608 -63.638411,-5.95608 0,0 51.251871,1.2792 62.561871,2.50522 -0.65652,-4.29736 -4.32474,-18.03319 -4.32474,-18.03319 0,0 7.38087,15.15837 9.18703,18.98244 0.96616,2.04456 6.3674,4.64623 6.3674,4.64623 z m 15.47994,-1.20979 c -0.12764,0.0658 -0.27377,0.15145 -0.43291,0.2416 0.16199,-0.0766 0.3082,-0.15686 0.43291,-0.2416 z m -15.47994,1.20979 c 0,0 4.14701,2.69723 6.23124,2.73148 2.73792,0.046 6.92076,-2.61339 8.81724,-3.69967 -1.81335,0.86272 -5.96176,1.25396 -7.61168,1.29453 -1.90651,0.046 -7.4368,-0.32634 -7.4368,-0.32634 z m 30.12845,-6.77823 c -2.21468,0.22357 -6.28714,0.71127 -6.28714,0.71127 l 3.27833,-13.42303 c -0.92603,2.76844 -6.4133,14.61389 -11.6397,18.2802 2.7379,-1.45679 8.82723,-2.15543 11.9321,-2.4376 14.6729,-1.33779 14.66718,-1.33689 58.86071,-4.45331 0,0 -41.6721,-0.13973 -56.1443,1.32247 z" style="opacity:1;fill:#e0713e;stroke:none;stroke-width:1.13676441"/><path id="SvgjsPath2917" d="m 277.74531,174.45543 c -3.14784,-4.2714 -11.74718,-10.6011 -21.30119,-12.3498 -11.81027,-2.1627 -38.46971,-4.7772 -48.35485,-6.2307 -7.92417,-1.1664 -23.8843,-10.16459 -29.47764,-13.18499 -1.00342,-0.54 -1.82478,-1.6551 -1.84486,-2.484 -0.19924,-9.7776 6.01333,-35.75159 6.01333,-35.75159 H 140.96899 99.159312 c 0,0 6.212608,25.97309 6.010498,35.75159 -0.016,0.8289 -0.84146,1.944 -1.842,2.484 -5.593368,3.0204 -21.553474,12.01859 -29.477646,13.18499 -9.886563,1.4535 -36.546025,4.1571 -48.354859,6.3198 -9.556867,1.7478 -18.1533189,7.9884 -21.3011933,12.2598 -5.3152656,7.20719 -6.5709752,20.24999 -6.5709752,31.49999 H 140.96899 284.31486 c 0,-11.2491 -1.25715,-24.2919 -6.56955,-31.49909 z" style="opacity:1;fill:none;stroke:#a43c0c;stroke-width:1.70374668"/><path id="SvgjsPath3961" d="m 175.76191,140.67844 c -0.0401,-0.1575 -0.0687,-0.3141 -0.0731,-0.4635 -0.13469,-6.642 2.60746,-20.44889 4.44084,-28.87019 -22.50387,-1.7856 -55.81458,-1.7775 -78.31987,0.0144 1.83339,8.4231 4.57273,22.21829 4.43512,28.85579 -0.001,0.1071 -0.02,0.2187 -0.0431,0.3303 5.48297,3.2274 10.99034,5.8752 15.84689,7.3359 7.61453,2.2914 30.15279,2.1843 37.84474,0 4.88952,-1.3869 10.3983,-3.9951 15.86839,-7.2027 z" style="opacity:1;fill:url(#SvgjsLinearGradient3962);stroke-width:1.13583112"/><path id="SvgjsPath3768" d="m 157.89242,206.95426 c -27.42922,0 -59.424034,-0.0667 -97.809191,-0.20644 l -33.942867,-0.11539 c -20.4955924,-0.0703 -21.7039966,-0.0847 -24.2068168,-0.0847 l -7.0225131,0.006 C -11.641307,168.80429 15.567171,158.89252 57.64205,155.43264 c 11.165213,-0.98892 22.145504,-2.79188 30.760584,-6.28511 23.404096,20.0516 92.903886,15.83178 104.790126,-0.56703 1.99251,0.47779 3.63954,1.0953 5.70086,1.56317 6.68853,3.09477 15.87126,5.26102 25.26903,5.58826 37.28139,1.29903 63.67279,11.71563 63.15388,49.25683 0.004,0.14875 0.006,1.05924 -0.0186,1.34321 -17.93685,0 -24.66408,0.10908 -38.75212,0.23619 -19.10944,0.17128 -42.89338,0.38493 -90.63615,0.38493 -0.009,9e-4 -0.0111,9e-4 -0.0172,9e-4 z" style="opacity:1;fill:#243139;stroke:none;stroke-width:1.13676441"/><path id="SvgjsPath3769" d="m 285.82716,205.82921 c -0.58772,-6.65742 -5.82558,-25.2937 -14.85062,-33.84243 -17.89245,-16.95233 -60.57797,-11.00346 -70.4287,-17.75284 -7.14723,9.15813 -35.80063,14.96005 -45.2887,15.81195 27.49516,-5.73341 39.04311,-9.87931 43.60583,-19.71535 9.1813,7.50932 58.87788,1.77681 78.43454,21.93389 5.72667,5.90199 11.17237,24.68791 8.52765,33.56478 z M 77.625895,154.43407 c 1.945217,-0.28397 2.915664,-1.12595 4.846536,-1.45499 l -2.04412,-1.7047 c -12.971364,6.35724 -61.50828,2.38442 -78.1507356,21.66797 -5.2450254,6.07687 -8.7828009,20.5429 -6.0090585,32.849 0.7697679,-7.558 1.145333,-23.72153 10.1703899,-32.27115 16.2324852,-15.37925 45.8334062,-11.31628 68.2598742,-17.82676 10.009827,7.75272 25.641709,11.56418 41.547379,13.14086 -19.955202,-3.27327 -31.397068,-8.80024 -38.620265,-14.40023 z" style="opacity:1;fill:#38444c;stroke:none;stroke-width:1.13676441"/><path id="SvgjsPath3770" d="m 191.58442,150.48199 c -7.9299,10.37963 -67.87427,22.46757 -101.67523,0.79239 -2.101442,0.56072 -8.388585,1.90393 -8.388585,1.90393 24.621095,21.082 96.774245,21.21542 115.979695,-0.10277 -0.0846,-0.0207 -3.96351,-1.96973 -5.91588,-2.59355 z" style="opacity:1;fill:#16242a;stroke:none;stroke-width:1.13676441"/><path id="SvgjsPath3771" d="m 193.11822,148.46088 c -13.49316,16.96763 -83.70968,19.36827 -104.65969,0.56973 -7.650349,1.42254 -15.006871,4.4542 -22.413547,5.21235 -44.322541,4.15131 -77.088539,6.23733 -71.2887642,52.4084 14.2485792,0 -9.4765948,-0.0586 65.3241432,0.19382 177.161158,0.64005 171.387168,-0.41558 227.355138,-0.41558 0.0415,-0.12621 0.0215,-1.30895 0.0301,-1.43876 3.00453,-50.87589 -44.22507,-47.87216 -76.14532,-51.37982 -4.5068,-0.64726 -8.69537,-2.4998 -12.37792,-3.55633 -2.03408,-0.58506 -3.76283,-1.11062 -5.82414,-1.59381 z m -105.167123,1.13856 c 18.597693,21.08741 92.055273,16.85676 106.237923,0.091 1.72015,0.45435 2.16022,0.63465 4.15416,1.07906 -14.69009,19.3719 -87.35782,25.54523 -117.080597,1.04843 0.209284,-0.037 4.592791,-1.72452 6.688514,-2.21854 z M -3.5881373,205.95362 C -7.05854,182.12661 -1.0122106,162.64384 43.400636,157.8642 c 14.730221,-1.70921 23.733779,-1.7687 36.386918,-5.22317 24.029066,24.70504 103.349496,20.87646 119.834266,-1.17643 2.36807,1.27018 6.06068,2.73148 10.61477,3.4121 25.94272,3.87546 78.60801,-0.80593 75.82711,51.07602 -77.4885,-0.63284 -141.71891,-2.11307 -289.6518373,9e-4 z" style="opacity:1;fill:#0b0b0b;stroke:none;stroke-width:1.13676441"/><g id="svga-group-ears-left-move" transform="matrix(0.87197626,0.20365449,-0.22283818,0.7969096,71.62899,-5.6332653)"><g id="svga-group-ears-left" transform="matrix(0.9499999,0,0,0.9499999,2.1253215,4.8499778)"><path id="SvgjsPath3772" d="m 47.34,82.506 c -1.378,-2.405 -9.403,-6.675 -11.855,-6.501 -4.229,0.299 -5.137,5.269 -5.446,7.648 -0.609,4.696 0.645,10 1.485,13.201 0.687,2.615 2.874,7.578 4.214,9.883 1.197,2.062 4.145,5.792 5.733,7.525 1.398,1.529 4.73,4.311 7.248,3.632 2.769,-0.744 6.015,-3.945 6.239,-5.312 1.207,-7.41 -4.032,-23.819 -7.618,-30.076 z" style="opacity:1;fill:#f68d5b;stroke:#b6430d;stroke-width:1.5"/><path id="SvgjsPath3773" stroke-width="none" d="m 42.903,99.38 c -0.142,-0.584 0.007,-1.569 0.151,-2.521 0.131,-0.868 0.255,-1.686 0.18,-2.265 -0.284,-2.169 -1.888,-6.29 -2.936,-8.524 -1.206,-2.568 -3.157,-5.803 -5.602,-6.639 -1.011,-0.346 -2.073,-0.522 -2.145,-0.241 -0.611,1.943 -0.563,7.341 -0.212,11.338 0.987,11.242 10.375,19.34 11.872,21.045 0.276,0.314 0.566,0.501 0.637,0.426 0.072,-0.076 -0.1,-0.388 -0.375,-0.704 -1.477,-1.692 -8.314,-8.684 -9.27,-13.098 -1.012,-4.685 3,-12.386 3.776,-13.855 0.397,0.69 0.732,1.352 0.991,1.904 0.204,0.434 0.429,0.941 0.66,1.489 -0.456,0.767 -3.656,6.36 -2.489,10.836 0.431,1.651 2.379,3.778 3.67,4.362 0.71,0.321 0.978,0.801 1.287,1.355 0.359,0.645 0.765,1.374 1.946,1.903 0.24,0.108 0.457,0.151 0.649,0.151 0.333,0 0.586,-0.135 0.773,-0.295 0.019,0.282 -0.349,2.52 -0.357,2.853 -0.012,0.431 0.045,0.787 0.146,0.796 0.101,0.008 0.207,-0.334 0.221,-0.766 0.016,-0.529 0.379,-3.061 0.289,-3.372 -0.264,-0.923 -1.073,-1.964 -1.93,-3.068 -0.841,-1.083 -1.713,-2.206 -1.932,-3.11 z m -8.475,-3.964 c -2.316,-7.184 1.456,-13.479 1.977,-14.464 0.906,0.826 1.704,1.932 2.354,3.015 -0.473,0.863 -4.233,6.617 -4.331,11.449 z m 10.759,10.415 c -1.069,-0.479 -1.427,-1.12 -1.774,-1.742 -0.313,-0.562 -0.637,-1.143 -1.458,-1.515 -0.179,-0.082 -0.375,-0.204 -0.576,-0.346 -2.646,-6.304 0.289,-9.059 1.025,-9.625 0.226,0.771 0.394,1.478 0.468,2.045 0.067,0.521 -0.058,1.348 -0.179,2.148 -0.149,0.992 -0.305,2.018 -0.144,2.681 0.239,0.989 1.137,2.146 2.005,3.263 0.771,0.993 1.562,2.015 1.832,2.849 -0.115,0.168 -0.481,0.566 -1.199,0.242 z" style="opacity:1;fill:#b6430d;stroke:none"/></g></g><g id="svga-group-ears-right-move" transform="matrix(0.87410896,-0.2035489,0.21431981,0.8301795,34.103708,32.480586)"><g id="svga-group-ears-right" transform="matrix(0.9499999,0,0,0.9499999,7.8615987,4.8499778)"><path id="SvgjsPath3774" d="m 152.398,82.506 c 1.377,-2.405 9.402,-6.675 11.855,-6.501 4.229,0.299 5.137,5.269 5.445,7.648 0.609,4.696 -0.645,10 -1.484,13.201 -0.688,2.615 -2.875,7.578 -4.215,9.883 -1.197,2.062 -4.145,5.792 -5.732,7.525 -1.398,1.529 -4.73,4.311 -7.248,3.632 -2.77,-0.744 -6.016,-3.945 -6.238,-5.312 -1.207,-7.41 4.032,-23.819 7.617,-30.076 z" style="opacity:1;fill:#f68d5b;stroke:#b6430d;stroke-width:1.5"/><path id="SvgjsPath3775" stroke-width="none" d="m 154.902,102.491 c -0.855,1.104 -1.666,2.146 -1.93,3.068 -0.09,0.312 0.273,2.843 0.289,3.372 0.014,0.432 0.119,0.773 0.221,0.766 0.102,-0.009 0.158,-0.365 0.146,-0.796 -0.01,-0.333 -0.377,-2.57 -0.357,-2.853 0.188,0.16 0.439,0.295 0.771,0.295 0.193,0 0.41,-0.043 0.65,-0.151 1.182,-0.53 1.588,-1.259 1.945,-1.903 0.311,-0.555 0.578,-1.034 1.287,-1.355 1.291,-0.584 3.24,-2.711 3.67,-4.362 1.168,-4.476 -2.031,-10.07 -2.488,-10.836 0.23,-0.548 0.457,-1.056 0.66,-1.489 0.26,-0.552 0.594,-1.214 0.99,-1.904 0.777,1.469 4.789,9.17 3.777,13.855 -0.955,4.415 -7.793,11.406 -9.27,13.098 -0.275,0.316 -0.447,0.628 -0.375,0.704 0.072,0.075 0.361,-0.111 0.637,-0.426 1.498,-1.705 10.885,-9.803 11.873,-21.045 0.35,-3.997 0.396,-9.395 -0.213,-11.338 -0.072,-0.281 -1.135,-0.104 -2.145,0.241 -2.445,0.836 -4.396,4.071 -5.604,6.639 -1.047,2.234 -2.65,6.354 -2.936,8.524 -0.076,0.579 0.049,1.397 0.18,2.265 0.145,0.951 0.293,1.936 0.15,2.521 -0.213,0.903 -1.086,2.026 -1.928,3.11 z m 6.077,-18.525 c 0.65,-1.083 1.449,-2.188 2.355,-3.015 0.52,0.986 4.291,7.28 1.977,14.464 -0.1,-4.831 -3.858,-10.585 -4.332,-11.449 z m -7.627,21.624 c 0.271,-0.834 1.063,-1.856 1.832,-2.849 0.869,-1.118 1.766,-2.274 2.006,-3.263 0.16,-0.663 0.006,-1.689 -0.145,-2.681 -0.121,-0.8 -0.246,-1.627 -0.178,-2.148 0.074,-0.567 0.242,-1.273 0.467,-2.045 0.736,0.566 3.672,3.321 1.025,9.625 -0.201,0.142 -0.396,0.264 -0.576,0.346 -0.82,0.372 -1.145,0.953 -1.457,1.515 -0.348,0.622 -0.705,1.263 -1.775,1.742 -0.717,0.323 -1.084,-0.075 -1.199,-0.242 z" style="opacity:1;fill:#b6430d;stroke:none"/></g></g><g id="svga-group-faceshape-wrap" transform="matrix(0.91898692,0,0,0.94073729,48.152949,-5.3902243)"><g id="svga-group-faceshape-single"><path id="SvgjsPath3958" stroke-width="none" d="m 144.004,126.997 c -5.003,10.225 -20.047,28.437 -30.801,33.266 -5.366,2.412 -21.089,2.53 -26.401,0 C 76.156,155.196 61.037,137.206 56.001,126.997 50.388,115.623 41.15,78.444 41.138,78.39 c -1.3,-4.988 -1.996,-10.225 -2.004,-15.623 -0.052,-34 27.154,-61.598 60.772,-61.65 33.621,-0.053 60.913,27.457 60.963,61.456 0.009,5.4 -0.669,10.638 -1.952,15.631 -0.016,0.052 -9.317,37.355 -14.913,48.793 z" style="opacity:1;fill:#f68d5b"/><path id="SvgjsPath3959" stroke-width="none" d="m 110.152,1.982 c 26.994,6.338 47.097,30.814 47.052,60.039 -0.009,5.399 -0.704,10.635 -2.004,15.624 -0.012,0.054 -8.61,37.245 -14.13,48.608 -4.859,10.004 -19.7,27.468 -30.067,32.521 -2.163,1.055 -8.694,1.555 -11.001,1.555 -2.307,0 -8.837,-0.5 -11,-1.555 C 78.635,153.721 63.793,136.257 58.935,126.253 53.414,114.89 44.816,77.699 44.805,77.645 43.505,72.657 42.809,67.42 42.801,62.021 42.756,32.796 62.857,8.32 89.853,1.982 61.03,6.877 39.087,32.232 39.134,62.767 c 0.008,5.398 0.704,10.635 2.004,15.623 0.012,0.054 9.232,37.241 14.863,48.607 5.052,10.199 20.207,28.085 30.801,33.266 2.658,1.301 9.305,1.855 12.954,1.853 3.646,0.003 10.791,-0.552 13.447,-1.853 10.594,-5.182 25.748,-23.066 30.801,-33.266 5.631,-11.366 14.852,-48.553 14.862,-48.607 1.3,-4.988 1.996,-10.225 2.004,-15.623 0.048,-30.535 -21.895,-55.89 -50.718,-60.785 z" style="opacity:1;fill:#ea7f4d"/><path id="SvgjsPath3960" d="m 144.004,126.997 c -5.003,10.225 -20.047,28.437 -30.801,33.266 -5.366,2.412 -21.089,2.53 -26.401,0 C 76.156,155.196 61.037,137.206 56.001,126.997 50.388,115.623 41.15,78.444 41.138,78.39 c -1.3,-4.988 -1.996,-10.225 -2.004,-15.623 -0.052,-34 27.154,-61.598 60.772,-61.65 33.621,-0.053 60.913,27.457 60.963,61.456 0.009,5.4 -0.669,10.638 -1.952,15.631 -0.016,0.052 -9.317,37.355 -14.913,48.793 z" style="opacity:1;fill:none;stroke:#b6430d;stroke-width:1.5"/></g></g><g id="svga-group-mouth-single-move" transform="matrix(1.0090453,0,0,1.1317312,40.498655,-38.540252)"><g id="svga-group-mouth-single" transform="matrix(1.1500005,0,0,1.1500005,-15.00057,-20.429809)"><path id="SvgjsPath3792" d="m 100.002,140.198 c -5.219,0 -6.442,-2.251 -6.442,-2.251 6.903,1.402 12.884,-0.096 12.884,-0.096 0,0 -1.852,2.347 -6.442,2.347 z" style="opacity:1;fill:url(#SvgjsLinearGradient3793)"/><path id="SvgjsPath3796" stroke-width="none" d="m 83.436,134.045 c 5.529,-0.367 8.751,-1.781 11.503,-1.845 1.422,-0.035 2.951,0.575 4.485,0.771 1.066,0.136 4.094,-0.765 5.184,-0.771 2.852,-0.017 7.046,1.422 11.926,1.845 0.175,0.015 0,0 0,0 0,0 -7.268,4.597 -16.549,4.597 -10.506,0 -16.549,-4.597 -16.549,-4.597 0,0 -0.177,0.011 0,0 z" style="opacity:1;fill:#c6604e;stroke:none"/><path id="SvgjsPath3797" stroke-width="none" d="m 116.994,133.91 c -0.061,-0.109 -0.606,-0.244 -0.82,-0.238 -0.392,0.011 -0.842,0.262 -1.648,0.271 -0.933,0.01 -5.871,0.402 -7.197,0.356 -2.674,-0.094 -4.802,0.44 -7.342,0.44 -2.542,0 -4.853,-0.583 -7.524,-0.489 -1.327,0.048 -6.085,-0.297 -7.019,-0.308 -0.807,-0.01 -1.119,-0.273 -1.463,-0.308 -0.241,-0.023 -0.833,0.11 -0.95,0.222 -0.104,0.102 0.115,0.445 0.262,0.527 0.357,0.195 1.425,0.16 2.132,0.169 0.974,0.012 5.744,0.355 7.091,0.308 2.611,-0.093 4.94,0.544 7.471,0.544 2.53,0 4.676,-0.587 7.287,-0.494 1.343,0.048 6.295,-0.347 7.271,-0.357 0.706,-0.009 1.715,-0.039 2.075,-0.193 0.172,-0.072 0.435,-0.339 0.374,-0.45 z" style="opacity:1;fill:#861e0c;stroke:none"/><path id="SvgjsPath3798" stroke-width="none" d="m 88.386,135.437 c 9.831,-0.289 6.257,0.233 10.942,0.392 2.369,0.085 9.812,-0.924 12.748,-0.869 -9.023,3.642 -17.299,3.266 -23.69,0.477 z m 23.268,-1.815 c -5.961,-1.694 -10.568,-0.265 -11.703,-0.185 -3.81,0.264 -1.78,-2.049 -10.986,0.24 8.953,-0.126 6.496,0.491 10.721,0.567 1.677,0.029 10.17,-0.691 11.968,-0.622 z" style="opacity:1;fill:#d16d5d;stroke:none"/><path id="SvgjsPath3799" stroke-width="none" d="m 92.763,135.67 c 4.978,-0.262 4.379,1.022 10.036,0.243 1.552,-0.212 2.205,-0.288 3.822,-0.221 -4.831,1.898 -9.926,1.562 -13.858,-0.022 z" style="opacity:1;fill:#db7b6d;stroke:none"/></g></g><g id="svga-group-eyes-left-move" transform="matrix(0.88665397,-0.15441567,0.15441567,0.88665397,41.939757,2.6341656)"><g id="svga-group-eyes-left" transform="matrix(0.8999997,0,0,0.8999997,7.4610541,8.4263064)"><g id="svga-group-eyesback-left"><path id="SvgjsPath3618" d="m 76.732,78.383 c 4.587,0.679 7.931,3.488 10.773,7.94 0.004,0.005 0.013,0.004 0.018,0.008 0.007,0.027 0.021,0.053 0.026,0.08 0.255,1.007 -0.816,1.819 -2.155,2.438 -4.771,0.609 -9.359,1.489 -14.194,0.87 -9.681,-1.241 -9.855,-5.509 -10.326,-6.629 -0.252,-1.101 -0.325,-1.417 -0.311,-2.473 2.332,-1.366 4.043,-1.647 5.854,-2.005 2.124,-0.418 6.851,-0.744 10.315,-0.229 z" style="opacity:1;fill:url(#SvgjsRadialGradient3619-3)"/></g><g id="svga-group-eyesiriswrapper-left" transform="translate(0.25)"><g id="svga-group-eyesiriscontrol-left"><g id="svga-group-eyesiris-left" transform="matrix(0.9499999,0,0,0.9499999,3.7000021,4.1999731)"><path id="SvgjsPath3676" d="m 79.788,85.588 c -0.869,3.192 -4.16,5.073 -7.358,4.196 -3.195,-0.876 -5.083,-4.178 -4.212,-7.371 0.868,-3.195 4.167,-5.076 7.362,-4.198 3.193,0.875 5.078,4.177 4.208,7.373 z" style="opacity:1;fill:#4d311a;stroke:#0d0800;stroke-width:.5"/><path id="SvgjsPath3677" stroke-width="none" d="m 73.265,80.413 -0.156,-0.279 c -0.548,0.218 -1.076,0.445 -1.575,0.687 l 0.37,0.894 -0.047,0.517 -1.426,-0.839 c -0.466,0.259 -0.898,0.529 -1.318,0.804 l 0.004,0.009 -0.489,0.55 0.781,0.799 -1.052,0.574 0.398,0.657 1.857,0.185 -1.741,1.181 1.863,-0.103 -0.982,1.693 2.297,-1.39 -0.618,2.364 1.329,-2.184 0.256,2.343 0.384,-2.072 0.353,-0.043 0.5,2.35 0.152,-0.705 c 0.201,-0.052 0.718,0.704 0.915,0.651 l -0.584,-2.556 1.282,2.556 -0.52,-2.651 1.578,2.05 c 0.057,-0.018 0.196,-0.85 0.252,-0.867 l -0.982,-1.469 1.785,0.539 -1.071,-1.16 -0.86,-0.712 3.586,0.803 -1.997,-1.217 1.411,-0.577 -3.055,-0.309 3.021,-1.602 -2.734,0.698 -0.736,-0.399 -0.181,-0.354 0.052,-0.846 0.061,-1.389 -1.248,2.198 -0.11,-1.609 -0.157,-0.421 c -0.25,0.087 -0.495,0.172 -0.736,0.265 z" style="opacity:1;fill:#62452a"/><path id="SvgjsPath3678" stroke-width="none" d="m 79.856,82.755 c -5.242,0.239 -7.907,1.36 -11.707,2.631 -0.732,-3.229 1.298,-6.438 4.53,-7.164 3.232,-0.726 6.446,1.303 7.177,4.533 z" style="opacity:.9;fill:#39210d"/><path id="SvgjsPath3679" stroke-width="none" d="m 74.869,81.998 c -1.319,-0.378 -2.666,0.375 -3.005,1.69 -0.342,1.308 0.452,2.678 1.771,3.056 1.32,0.379 2.667,-0.375 3.009,-1.684 0.343,-1.315 -0.454,-2.684 -1.775,-3.062 z" style="opacity:.8;fill:#0c0c0c"/><path id="SvgjsPath3680" d="m 74.869,81.998 c -1.319,-0.378 -2.666,0.375 -3.005,1.69 -0.342,1.308 0.452,2.678 1.771,3.056 1.32,0.379 2.667,-0.375 3.009,-1.684 0.343,-1.315 -0.454,-2.684 -1.775,-3.062 z" style="opacity:1;fill:none;stroke:#0d0800;stroke-width:.75"/><path id="SvgjsPath3681" stroke-width="none" d="m 69.631,87.56 c 0.613,0.973 1.426,1.706 2.578,1.95 1.326,0.281 1.477,-1.483 0.528,-1.685 -0.72,-0.152 -1.176,-0.505 -1.552,-1.102 -0.688,-1.093 -2.106,-0.039 -1.554,0.837 z" style="opacity:.4;fill:#fff"/><path id="SvgjsPath3682" d="m 75.033,81.493 c 0.929,0.187 1.469,0.768 1.938,1.64 0.862,1.604 3.299,0.178 2.437,-1.425 -0.757,-1.408 -2.019,-2.613 -3.625,-2.938 -2.057,-0.415 -2.345,2.401 -0.75,2.723 z" style="opacity:1;fill:url(#SvgjsLinearGradient3683)"/></g></g></g><g id="svga-group-eyesfront-left"><path id="SvgjsPath3643" stroke-width="none" d="m 55.112,83.583 c 3.224,11.315 7.475,23.313 17.685,23.669 10.21,0.356 22.135,-7.239 22.29,-22.238 C 95.26,68.247 84.613,61.633 74.403,61.277 64.193,60.921 50.307,66.714 55.112,83.583 Z m 5.763,-0.493 c -0.252,-1.101 -0.325,-1.417 -0.311,-2.473 2.027,-1.21 4.04,-1.547 5.851,-1.905 2.123,-0.418 6.853,-0.845 10.317,-0.329 4.587,0.679 7.931,3.488 10.773,7.94 0.004,0.005 0.013,0.004 0.018,0.008 0.007,0.027 0.021,0.053 0.026,0.08 0.255,1.007 -0.816,1.819 -2.155,2.438 -4.771,0.609 -9.359,1.489 -14.194,0.87 C 61.519,88.478 61.345,84.21 60.875,83.09 Z" style="opacity:1;fill:#f68d5b;stroke:none"/><path id="SvgjsPath3644" d="m 74.225,95.171 c 9.256,1.401 17.847,-3.01 19.186,-9.859 1.34,-6.849 -5.072,-13.537 -14.329,-14.94 -9.258,-1.399 -17.845,3.012 -19.185,9.862 -1.34,6.848 5.07,13.532 14.328,14.937 z M 60.563,80.617 c 2.125,-1.141 4.04,-1.547 5.851,-1.905 2.123,-0.418 6.853,-0.845 10.317,-0.329 4.587,0.679 7.931,3.488 10.773,7.94 0.004,0.005 0.013,0.004 0.018,0.008 0.007,0.027 0.021,0.053 0.026,0.08 0.255,1.007 -0.816,1.819 -2.155,2.438 -4.771,0.609 -9.359,1.489 -14.194,0.87 C 61.518,88.478 61.344,84.21 60.873,83.09 60.622,81.989 60.55,81.672 60.563,80.617 Z" style="opacity:1;fill:url(#SvgjsRadialGradient3645-9)"/><path id="SvgjsPath3649" d="m 60.875,83.09 c -0.252,-1.101 -0.325,-1.417 -0.311,-2.473 2.092,-1.175 4.04,-1.547 5.851,-1.905 2.123,-0.418 6.853,-0.845 10.317,-0.329 4.587,0.679 7.931,3.488 10.773,7.94 0.004,0.005 0.013,0.004 0.018,0.008 0.007,0.027 0.021,0.053 0.026,0.08 0.255,1.007 -0.816,1.819 -2.155,2.438 -4.771,0.609 -9.359,1.489 -14.194,0.87 C 61.519,88.478 61.345,84.21 60.875,83.09 Z" style="opacity:1;fill:url(#SvgjsRadialGradient3650-6)"/><path id="SvgjsPath3653" stroke-width="none" d="m 76.327,75.748 c 3.294,0.539 6.505,2.054 9.48,3.945 0.637,0.404 1.366,0.865 2.521,1.451 -0.828,-0.188 -1.594,-0.617 -2.309,-1.011 0.736,0.698 1.422,1.529 1.982,2.334 C 85.48,79.308 80.704,76.929 76.641,76.118 72.739,75.339 65.652,75.854 60.39,78.16 65.208,75.449 72.237,75.08 76.327,75.748 Z" style="opacity:1;fill:#b6430d;stroke:none"/><path id="SvgjsPath3654" stroke-width="none" d="m 87.508,86.277 c -2.847,-4.34 -6.193,-7.082 -10.781,-7.747 -4.833,-0.705 -11.271,-0.221 -15.034,1.843 -0.308,0.169 -1.607,1.249 -1.401,0.117 0.874,-1.167 4.322,-2.523 5.993,-2.928 18.745,-4.543 22.297,10.292 21.223,8.715 z M 60.646,82.841 c -0.716,2.063 0.861,6.654 10.145,7.503 6.595,0.602 15.767,-1.75 14.634,-1.613 C 80.646,89.32 76.05,90.18 71.206,89.57 60.224,88.19 61.468,83.023 60.646,82.841 Z" style="opacity:1;fill:#0c0c0c;stroke:none"/></g></g></g><g id="svga-group-eyes-right-move" transform="matrix(0.89689118,0.07473729,-0.07473729,0.89689118,58.374587,-19.082051)"><g id="svga-group-eyes-right" transform="matrix(0.8999997,0,0,0.8999997,12.487241,8.4262853)"><g id="svga-group-eyesback-right"><path id="SvgjsPath3626" d="m 122.867,78.383 c -4.586,0.679 -7.931,3.488 -10.773,7.94 -0.004,0.005 -0.012,0.004 -0.018,0.008 -0.006,0.027 -0.02,0.053 -0.025,0.08 -0.256,1.007 0.815,1.819 2.154,2.438 4.771,0.609 9.359,1.489 14.194,0.87 9.681,-1.241 9.855,-5.509 10.325,-6.629 0.253,-1.101 0.325,-1.417 0.312,-2.473 -2.331,-1.366 -4.043,-1.647 -5.854,-2.005 -2.123,-0.418 -6.85,-0.744 -10.315,-0.229 z" style="opacity:1;fill:url(#SvgjsRadialGradient3627-1)"/></g><g id="svga-group-eyesiriswrapper-right" transform="translate(-0.25)"><g id="svga-group-eyesiriscontrol-right"><g id="svga-group-eyesiris-right" transform="matrix(0.9499999,0,0,0.9499999,6.3000164,4.1999334)"><path id="SvgjsPath3686" d="m 131.788,85.587 c -0.869,3.193 -4.16,5.074 -7.358,4.196 -3.195,-0.876 -5.082,-4.178 -4.212,-7.371 0.867,-3.195 4.167,-5.076 7.361,-4.198 3.195,0.877 5.079,4.179 4.209,7.373 z" style="opacity:1;fill:#4d311a;stroke:#0d0800;stroke-width:.5"/><path id="SvgjsPath3687" stroke-width="none" d="m 125.266,80.413 -0.155,-0.278 c -0.548,0.217 -1.076,0.445 -1.576,0.686 l 0.37,0.894 -0.047,0.517 -1.426,-0.839 c -0.467,0.259 -0.898,0.529 -1.317,0.804 l 0.004,0.009 -0.49,0.551 0.782,0.799 -1.052,0.573 0.397,0.657 1.857,0.185 -1.741,1.181 1.863,-0.103 -0.982,1.692 2.296,-1.39 -0.616,2.364 1.328,-2.184 0.257,2.343 0.384,-2.073 0.353,-0.043 0.501,2.35 0.151,-0.704 c 0.201,-0.052 0.719,0.703 0.915,0.651 l -0.585,-2.556 1.283,2.556 -0.521,-2.651 1.577,2.05 c 0.057,-0.018 0.197,-0.85 0.253,-0.867 l -0.982,-1.469 1.786,0.538 -1.071,-1.16 -0.859,-0.712 3.586,0.802 -1.997,-1.216 1.411,-0.577 -3.054,-0.308 3.021,-1.603 -2.734,0.698 -0.736,-0.399 -0.18,-0.354 0.052,-0.847 0.061,-1.388 -1.247,2.198 -0.11,-1.609 -0.156,-0.422 c -0.25,0.087 -0.495,0.173 -0.735,0.265 z" style="opacity:1;fill:#62452a"/><path id="SvgjsPath3688" stroke-width="none" d="m 131.855,82.755 c -5.24,0.239 -7.906,1.36 -11.706,2.631 -0.731,-3.229 1.298,-6.438 4.53,-7.164 3.232,-0.727 6.447,1.303 7.176,4.533 z" style="opacity:.9;fill:#39210d"/><path id="SvgjsPath3689" stroke-width="none" d="m 126.87,81.998 c -1.319,-0.378 -2.666,0.376 -3.005,1.69 -0.343,1.308 0.451,2.678 1.77,3.056 1.322,0.379 2.668,-0.375 3.009,-1.684 0.343,-1.315 -0.455,-2.684 -1.774,-3.062 z" style="opacity:.8;fill:#0c0c0c"/><path id="SvgjsPath3690" d="m 126.87,81.998 c -1.319,-0.378 -2.666,0.376 -3.005,1.69 -0.343,1.308 0.451,2.678 1.77,3.056 1.322,0.379 2.668,-0.375 3.009,-1.684 0.343,-1.315 -0.455,-2.684 -1.774,-3.062 z" style="opacity:1;fill:none;stroke:#0d0800;stroke-width:.75"/><path id="SvgjsPath3691" stroke-width="none" d="m 121.632,87.56 c 0.612,0.973 1.426,1.706 2.577,1.95 1.326,0.281 1.478,-1.482 0.528,-1.685 -0.72,-0.152 -1.177,-0.504 -1.552,-1.102 -0.687,-1.093 -2.106,-0.039 -1.553,0.837 z" style="opacity:.4;fill:#fff"/><path id="SvgjsPath3692" d="m 127.034,81.493 c 0.929,0.187 1.469,0.767 1.938,1.639 0.862,1.604 3.3,0.178 2.437,-1.425 -0.757,-1.408 -2.018,-2.613 -3.625,-2.938 -2.057,-0.414 -2.346,2.402 -0.75,2.724 z" style="opacity:1;fill:url(#SvgjsLinearGradient3693)"/></g></g></g><g id="svga-group-eyesfront-right"><path id="SvgjsPath3664" stroke-width="none" d="m 125.197,61.277 c -10.211,0.356 -20.857,6.97 -20.685,23.737 0.154,15 12.079,22.595 22.29,22.238 10.21,-0.356 16.187,-17.323 17.685,-23.669 4.03,-17.071 -9.08,-22.662 -19.29,-22.306 z m 3.202,28.442 c -4.835,0.619 -9.423,-0.261 -14.194,-0.87 -1.339,-0.618 -2.41,-1.43 -2.154,-2.438 0.006,-0.027 0.02,-0.053 0.025,-0.08 0.006,-0.004 0.014,-0.003 0.018,-0.008 2.843,-4.452 6.188,-7.261 10.773,-7.94 3.465,-0.516 8.195,-0.089 10.318,0.329 1.811,0.357 3.824,0.694 5.851,1.905 0.014,1.055 -0.059,1.372 -0.312,2.473 -0.469,1.12 -0.644,5.388 -10.325,6.629 z" style="opacity:1;fill:#f68d5b;stroke:none"/><path id="SvgjsPath3665" d="m 139.703,80.234 c -1.34,-6.85 -9.928,-11.261 -19.186,-9.862 -9.257,1.403 -15.669,8.091 -14.328,14.94 1.339,6.849 9.93,11.26 19.186,9.859 9.258,-1.405 15.668,-8.089 14.328,-14.937 z m -0.978,2.856 c -0.47,1.121 -0.645,5.388 -10.325,6.629 -4.835,0.619 -9.423,-0.261 -14.194,-0.87 -1.339,-0.618 -2.41,-1.43 -2.154,-2.438 0.006,-0.027 0.02,-0.053 0.025,-0.08 0.006,-0.004 0.014,-0.003 0.018,-0.008 2.843,-4.452 6.188,-7.261 10.773,-7.94 3.465,-0.516 8.195,-0.089 10.318,0.329 1.811,0.357 3.727,0.764 5.851,1.905 0.013,1.055 -0.059,1.372 -0.312,2.473 z" style="opacity:1;fill:url(#SvgjsRadialGradient3666-5)"/><path id="SvgjsPath3670" d="m 138.725,83.09 c 0.253,-1.101 0.325,-1.417 0.312,-2.473 -2.092,-1.175 -4.04,-1.547 -5.851,-1.905 -2.123,-0.418 -6.854,-0.845 -10.318,-0.329 -4.586,0.679 -7.931,3.488 -10.773,7.94 -0.004,0.005 -0.012,0.004 -0.018,0.008 -0.006,0.027 -0.02,0.053 -0.025,0.08 -0.256,1.007 0.815,1.819 2.154,2.438 4.771,0.609 9.359,1.489 14.194,0.87 9.68,-1.241 9.855,-5.509 10.325,-6.629 z" style="opacity:1;fill:url(#SvgjsRadialGradient3671-8)"/><path id="SvgjsPath3674" stroke-width="none" d="m 123.273,75.748 c -3.295,0.539 -6.506,2.054 -9.48,3.945 -0.637,0.404 -1.367,0.865 -2.521,1.451 0.828,-0.188 1.594,-0.617 2.309,-1.011 -0.736,0.698 -1.422,1.529 -1.982,2.334 2.521,-3.159 7.297,-5.538 11.359,-6.349 3.902,-0.779 10.989,-0.264 16.252,2.042 -4.819,-2.711 -11.848,-3.08 -15.937,-2.412 z" style="opacity:1;fill:#b6430d;stroke:none"/><path id="SvgjsPath3675" stroke-width="none" d="m 133.314,77.563 c 1.672,0.405 5.119,1.761 5.994,2.928 0.205,1.132 -1.094,0.052 -1.402,-0.117 -3.764,-2.064 -10.201,-2.548 -15.033,-1.843 -4.588,0.665 -7.936,3.407 -10.781,7.747 -1.074,1.576 2.478,-13.259 21.222,-8.715 z m -4.919,12.007 c -4.844,0.61 -9.439,-0.25 -14.219,-0.839 -1.134,-0.137 8.038,2.215 14.633,1.613 9.284,-0.849 10.861,-5.44 10.145,-7.503 -0.823,0.182 0.422,5.349 -10.559,6.729 z" style="opacity:1;fill:#0c0c0c;stroke:none"/></g></g></g><g id="svga-group-eyebrows-left-move" transform="matrix(0.80643097,0,0,1.0032645,62.309396,-17.536595)"><g id="svga-group-eyebrows-left-rotate"><g id="svga-group-eyebrows-left"><path id="SvgjsPath3698" stroke-width="none" d="m 52.488,73.87 c 7.475,-9.383 20.338,-7.822 30.878,-6.314 2.681,0.384 5.441,0.672 8.07,1.336 1.884,0.475 3.365,2.622 1.851,4.356 C 92.579,74.073 91.034,73.92 90.08,73.9 77.459,73.645 63.193,66.387 52.488,73.87 Z" style="opacity:1;fill:#3a303b"/></g></g></g><g id="svga-group-eyebrows-right-move" transform="matrix(0.90934366,0,0,1.0486525,47.130836,-20.551035)"><g id="svga-group-eyebrows-right-rotate"><g id="svga-group-eyebrows-right"><path id="SvgjsPath3699" stroke-width="none" d="m 147.577,73.49 c -2.164,-1.448 -4.454,-2.47 -7.043,-2.889 -9.497,-1.54 -27.586,4.79 -32.341,3.45 -2.912,-0.822 -2.323,-3.739 -1.035,-4.458 0.775,-0.433 0.99,-0.422 7.909,-1.612 11.757,-2.02 24.921,-3.626 32.51,5.509 z" style="opacity:1;fill:#3a303b"/></g></g></g><g id="svga-group-nose-single-move" transform="matrix(0.8999997,0,0,0.8999997,52.155527,-12.944714)"><g id="svga-group-nose-single" transform="matrix(1.2500009,0,0,1.2500009,-25.017333,-25.741587)"><path id="SvgjsPath3800" stroke-width="none" d="m 91.115,115.499 c -0.878,2.064 5.934,4.292 8.519,4.429 2.8,0.147 10.646,-2.9 9.316,-4.992 -1.399,-2.195 -6.643,-0.286 -8.906,-0.286 -2.252,-0.001 -7.753,-1.905 -8.929,0.849 z" style="opacity:1;fill:#e0713e;stroke:none"/><path id="SvgjsPath3801" stroke-width="none" d="m 101.857,117.058 c -0.23,-0.759 1.876,-1.584 2.657,-1.694 1.101,-0.16 3.36,0.802 3.158,1.592 -0.184,0.698 -2.148,-0.533 -2.86,-0.429 -0.734,0.107 -2.737,1.242 -2.955,0.531 z m -6.883,-0.247 c 0.968,0 2.404,0.623 2.668,0.074 0.315,-0.655 -2.139,-1.461 -2.86,-1.372 -0.596,0.07 -2.733,1.315 -2.439,1.839 0.274,0.481 1.355,-0.541 2.631,-0.541 z" style="opacity:1;fill:#b6430d;stroke:none"/><path id="SvgjsPath3802" stroke-width="none" d="m 100.089,111.999 c 0.607,0 1.742,-0.74 1.792,-2.23 0.201,-6.008 -0.956,-23.833 -1.792,-23.77 -0.78,0.059 -2.267,17.637 -1.948,23.77 0.079,1.502 1.263,2.23 1.948,2.23 z" style="opacity:.2;fill:#ffcca4;stroke:none"/></g></g><g id="svga-group-beardwrap" transform="matrix(0.8999997,0,0,0.8999997,50.822184,-5.3447183)"><g id="svga-group-beard-single-move"><g id="svga-group-beard-single"><path id="SvgjsPath3042" stroke-width="none" d="M 100,18.13 Z" style="opacity:1;fill:#3a303b"/></g></g></g><g id="svga-group-mustache-single-move" transform="matrix(0.8999997,0,0,0.8999997,50.822193,-5.3447163)"><g id="svga-group-mustache-single"><path id="SvgjsPath3040" stroke-width="none" d="M 100,18.13 Z" style="opacity:1;fill:#3a303b"/></g></g><g id="svga-group-hair-front" transform="matrix(0.8999997,0,0,0.89999981,50.822184,-5.3447343)"><path id="SvgjsPath3913" stroke-width="none" d="m 57.802,28.734 c 9.237,-8.79 44.55,-0.761 55.197,0.239 10.142,0.782 23.526,-30.339 43.604,49.479 -0.045,3.839 -1.289,10.633 -2.796,15.468 -0.145,-0.101 -0.286,-0.208 -0.431,-0.306 0,0 0.518,3.257 -6.059,14.39 0.349,-8.073 -1.212,-13.893 -2.492,-21.414 -15.709,-19.987 -30.389,-24.674 -41.56,-28.155 7.5,8.755 14.919,16.79 18.165,25.564 -13.646,-9.576 -32.408,-28.884 -32.408,-28.884 0,0 1.404,4.704 27.687,28.885 -10.943,-2.68 -31.346,-13.68 -45.637,-34.952 -2.746,4.5 12.4,30.794 12.827,31.801 -7.663,-6.086 -18.079,-14.636 -20.755,-24.62 0,0 -1.571,4.043 -2.662,8.635 -2.878,12.162 -2.904,27.281 -3.429,31.125 -1.665,-8.721 -1.925,-18.482 -1.922,-18.355 -3.905,17.893 -0.419,30.394 -0.352,34.724 -5.198,-10.435 -10.604,-22.897 -12.177,-34.534 0.002,0 11.619,-50.69 15.2,-49.09 z" style="opacity:.1;fill:#3a303b"/><path id="SvgjsPath3914" stroke-width="none" d="m 29.382,67.866 c 0.08,-5.39 1.12,-13.92 2.921,-18.78 -3.28,3.39 -7.41,7.39 -10.78,9.5 4.46,-3.86 5.841,-7.16 15.921,-28.3 6.189,-12.98 10.287,-26.75 22.378,-28.37 4.079,-0.56 8.05,0.99 11.779,2.59 9.61,-8.79 21.59,-12.331 32.671,-11.331 33.879,2.51 42.916,24.391 61.036,28.771 -2.84,0.83 -7.616,-0.468 -10.336,-1.748 3.75,5.06 2.422,4.531 10.692,12.801 3.369,3.34 6.482,7.444 10.543,9.854 -5.449,-0.681 -8.313,-4.834 -16.282,-9.104 1.149,1.84 5.249,8.094 11.929,14.494 2.87,2.74 7.6,6.584 10.898,8.914 -2.409,-0.96 -9.488,-3.726 -15.607,-9.152 3.169,4.531 12.262,12.94 8.145,29.881 -0.832,-7.406 0.002,-16.415 -7.049,-20.895 0.784,3.301 3.814,10.222 1.604,17.708 H 158.91 c -0.047,3.839 -1.342,10.934 -2.908,15.769 -0.151,-0.101 -0.297,-0.208 -0.449,-0.306 0,0 -0.503,3.257 -7.344,14.39 0.363,-8.073 -0.222,-13.893 -1.553,-21.414 -16.346,-19.987 -31.619,-24.674 -43.241,-28.155 7.804,8.755 13.813,18.837 17.192,27.612 -11.046,-11.66 -33.834,-29.767 -33.834,-29.767 0,0 0.364,4.866 27.712,29.046 -9.449,-5.795 -29.698,-15.006 -44.566,-36.278 -2.858,4.5 10.819,30.794 11.264,31.801 -7.974,-6.086 -14.646,-16.636 -17.435,-26.62 0,0 -3.716,6.043 -4.847,10.635 -2.995,12.162 -1.984,22.281 -2.528,26.125 -1.732,-8.721 -3.042,-13.482 -3.039,-13.355 -4.066,17.893 0.604,32.394 0.672,36.724 C 48.6,100.471 41.934,85.908 40.297,74.271 H 28.7 c 0.669,-4.327 0.173,-4.339 0.682,-6.405 z" style="opacity:1;fill:#3a303b"/><path id="SvgjsPath3915" stroke-width="none" d="m 22.764,37.286 c 3.811,-0.17 5.876,0.099 10.356,-0.261 0.67,-1.53 2.738,-5.55 3.438,-7.07 -3.499,3.1 -10.764,7.021 -13.794,7.331 z" style="opacity:1;fill:#100b10"/><path id="SvgjsPath3916" stroke-width="none" d="m 120,6 c 16.027,-2.29 30.9,14.922 44.42,16.002 -2.873,0.59 -7.386,-1.022 -9.989,-2.247 3.75,5.06 2.74,5.09 11.011,13.36 3.369,3.34 5.77,6.92 9.83,9.33 C 170.92,41.723 167.403,37.49 159.616,33.266 150.467,19.744 136.495,7.833 120,6 Z M 63.748,50.777 c 0,0 -3.716,6.043 -4.847,10.635 -2.995,12.162 -1.984,22.281 -2.528,26.125 -1.732,-8.721 -3.042,-13.482 -3.039,-13.355 -0.098,0.428 -0.185,0.851 -0.272,1.275 -3.569,17.303 0.878,31.222 0.944,35.449 C 48.6,100.471 41.934,86.008 40.297,74.372 H 28.7 c 0.669,-4.328 0.173,-4.44 0.682,-6.505 0.08,-5.39 1.12,-13.92 2.921,-18.78 -3.28,3.39 -7.41,7.39 -10.78,9.5 4.384,-3.794 5.799,-7.06 15.417,-27.242 C 39.903,26.734 43.257,22.367 47,18 40,27 36,38 35,49 37,43 43.079,38.936 47.204,34.167 42.858,40.958 39.721,47.555 38,57 c 1.263,-2.166 3.05,-3.376 4.352,-5 -2.063,6.007 -1.46,9.452 -0.544,14.033 C 42.71,58.906 44.209,47.331 48,41 c 0,11 -3.411,21.569 1.005,33.277 -0.041,-8.667 3.242,-16.555 5.526,-22.481 -0.454,2.152 -0.105,7.455 0.016,9.648 1.278,-6.668 2.146,-13.21 6.033,-18.583 -1.734,-9.968 -4.468,-20.679 -0.784,-23.305 -5.987,10.398 12.487,19.472 11.935,19.03 10.333,5.74 16.882,6.44 22.24,7.796 -3.495,-2.813 -5.311,-6.313 -8.84,-9.096 10,3.45 23.963,14.121 31.086,18.481 1.902,2.784 2.074,3.492 2.641,4.833 -4.081,-1.928 -9.18,-3.742 -15.442,-5.618 14.409,16.165 11.53,12.905 17.192,27.612 -9.815,-10.361 -9.8,-10.658 -32.423,-28.645 2.733,3.566 9.971,13.486 26.301,27.924 C 110.796,79.61 83.351,64.812 69.92,45.595 69.279,50.818 69.996,54.249 81.184,77.396 79.136,76.769 71.168,69.641 63.748,50.777 Z m 55.109,9.824 c 8.503,4.017 17.955,10.501 27.799,22.537 1.331,7.521 1.916,13.341 1.553,21.414 1.527,-2.485 2.724,-4.558 3.684,-6.309 3.342,-6.095 3.66,-8.081 3.66,-8.081 0.152,0.098 0.298,0.205 0.449,0.306 1.566,-4.835 2.861,-11.629 2.908,-15.468 h 10.733 c 2.212,-7.485 -1.049,-15.243 -1.833,-18.544 7.051,4.48 7.24,12.74 7.57,20.16 3.37,-16.67 -5.95,-24.64 -8.9,-29.41 6.17,4.79 13.061,8.53 15.471,9.49 -3.301,-2.33 -7.41,-5.47 -10.28,-8.21 C 168.032,45 165.053,41.306 162.902,38.362 158.216,35.96 154.726,32.363 150,30 c 7.927,5.284 10.424,13.671 12.956,21.745 -1.214,-1.753 -3.177,-2.936 -4.23,-4.512 1.251,3.286 3.089,6.694 2.274,10.767 -5,-7 -7,-17 -15,-23 8.079,8.079 8.639,29.358 8.605,33.148 C 146.453,29.071 111.941,-7.698 77,6 c 35,-11 65,26 69,58 -7,-8 -9,-18 -19,-23 5,5 8,13 11,19 -11,-13 -20,-26 -35,-35 7,8 16,15 21,25 3,3 4,7 6,10 -7,-7 -15.796,-14.161 -24.869,-16.816 10.188,8.774 13.01,15.72 13.726,17.417 z" style="opacity:1;fill:#251b26"/><path id="SvgjsPath3917" stroke-width="none" d="M 117.766,5.829 C 126.058,5.8 149.289,12.323 160.86,35.028 148.464,17.819 135.714,9.892 117.766,5.829 Z m 20.079,32.879 C 124.893,11.58 100.687,3.229 87.714,4.067 c 9.373,-0.602 35.792,9 50.131,34.641 z M 73.181,14.559 C 72.572,9.286 65.426,3.87 57.615,6.905 56.944,7.166 56.354,7.642 55.686,7.884 64.214,4.803 72.008,9.383 73.181,14.559 Z M 70.78,17.966 C 68.509,14.72 65.436,11.727 61.471,10.768 49.418,7.854 40.4,25.7 38.314,33.687 38.577,32.684 48.91,8.619 61.811,11.621 c 3.721,0.849 6.603,3.492 8.969,6.345 z m -1.206,2.305 C 68.445,34.204 100.449,44.038 107.469,49.976 94.975,39.407 69.766,32.882 69.574,20.271 Z m 55.219,30.878 C 122.142,46.716 111.131,28.902 93.434,18.303 82.457,11.729 78.196,15.699 76.108,16.667 90.316,10.093 116.346,39.44 124.793,51.149 Z" style="opacity:1;fill:#100b10"/><path id="SvgjsPath3918" stroke-width="none" d="m 154.605,30.218 c 0,0 -12.998,-14.019 -32.379,-20.881 14.486,3.62 23.094,10.746 32.379,20.881 z M 122.58,10.545 c 8.373,2.862 22.848,18.934 24.674,22.069 C 142.53,24.503 131.43,12.888 122.58,10.545 Z M 96.203,7.936 c 16.427,3.769 31.383,22.259 31.383,22.259 C 120.613,19.403 109.143,9.004 96.203,7.936 Z m -14.176,9.62 c 7.952,2.046 25.885,16.866 26.805,18.162 C 106.244,32.075 90.721,18.78 82.027,17.556 Z m -5.713,1.556 c 8.738,1.131 15.985,8.446 17.066,9.925 -4.542,-6.213 -9.201,-9.734 -17.066,-9.925 z m -0.872,2.767 c 8.537,8.845 21.252,11.429 25.864,17.449 C 94.935,31.012 83.235,29.092 75.442,21.879 Z M 85.865,42.83 C 74.654,36.746 66.899,31.462 65.162,29.979 c -1.836,-1.565 -6.52,-5.33 -3.095,-9.151 -2.542,1.67 -2.01,5.382 1.396,8.925 3.704,3.854 21.4,13.077 22.402,13.077 -0.97,-0.527 -10e-4,0 0,0 z m 7.896,3.54 C 85.101,44.29 76.234,41.336 68.801,36.324 63.629,32.837 55.936,24.7 59.941,19.922 c 1.146,-1.371 3.559,-2.013 5.297,-1.993 -1.732,-0.021 -3.829,0.4 -5.168,1.556 -3.872,3.344 0.268,11.895 6.736,16.54 7.827,5.621 17.656,8.348 26.955,10.345 z m 0.435,-34.38 c 1.66,0.332 3.306,0.552 4.901,1.161 13.539,5.162 26.441,21.077 26.441,21.077 C 118.564,23.811 106.82,13.181 94.196,11.99 Z m 1.242,4.431 c 15.557,5.988 32.561,25.947 33.561,26.663 C 121.432,31.611 108.664,19.74 95.438,16.421 Z m -39.324,2.43 C 45.792,16.807 40.93,34.254 40.335,35.255 43.838,28.076 49.19,18.188 56.114,18.851 Z M 56.22,30.75 C 47.459,38.968 49.356,49.372 49.503,54.228 49.338,45.406 51.606,36.237 56.22,30.75 Z" style="opacity:1;fill:#4f494f"/><path id="SvgjsPath3919" stroke-width="none" d="m 31.491,50.465 c -3.98,10.99 -2.87,22.38 -2.931,23.38 -0.079,0.171 -0.238,0.529 -0.317,0.703 1.05,-0.224 0.815,-0.006 1.079,-0.006 2.013,-4.338 4.543,-10.008 11.318,-19.136 -4.29,5.17 -8.16,10.6 -11.21,16.62 1.811,-11.55 9.17,-21.13 10.021,-22.35 -4.04,5.13 -7.82,10.61 -9.87,17.39 0.08,-5.39 1.319,-13.72 3.12,-18.58 -3.28,3.39 -7.41,7.69 -10.78,9.8 4.46,-3.86 6.04,-6.86 16.12,-28 6.189,-12.98 9.689,-26.55 21.78,-28.17 4.079,-0.56 8.05,0.79 11.779,2.39 9.61,-8.79 21.59,-11.83 32.671,-10.83 33.879,2.51 42.409,23.86 60.529,28.24 -2.84,0.83 -7.65,-0.88 -10.37,-2.16 3.75,5.06 2.74,5.09 11.011,13.36 3.369,3.34 5.77,6.92 9.83,9.33 -4.4,-0.73 -7.94,-5.05 -15.91,-9.32 1.149,1.84 5.629,8.96 12.31,15.36 2.87,2.74 6.979,5.88 10.28,8.21 -2.41,-0.96 -9.301,-4.7 -15.471,-9.49 2.95,4.77 12.271,12.74 8.9,29.41 -0.33,-7.42 -0.52,-15.68 -7.57,-20.16 0.784,3.301 4.045,11.059 1.833,18.544 h 0.317 0.875 c 2.142,-6.938 -0.861,-13.751 -2.085,-17.224 6.409,5.8 6.31,18.31 5.67,24.379 2.521,-6.85 3.479,-13.449 1.46,-20.489 -1.13,-3.96 -3.5,-7.46 -5.96,-10.71 -0.17,-0.23 -0.351,-0.46 -0.521,-0.69 4.69,3.76 10.521,7.08 16.11,8.14 0,0 -17.069,-12.22 -24.31,-23.26 1.8,1.29 4.25,3.34 6.64,4.95 3.45,2.35 6.17,3.54 10.14,3.04 -4.72,-2.17 -7.83,-6.79 -11.149,-10.25 -7.37,-7.74 -4.36,-3.42 -10.56,-11.66 5,2.04 7.649,1.84 10.67,0.75 -1.701,-0.4 -3.48,-0.87 -5.08,-1.49 -13.41,-5.19 -28.451,-28.98 -60.24,-29.1 -10.9,-0.05 -22.641,4.17 -30.32,12.49 -1.33,-0.61 -2.68,-1.13 -4.04,-1.57 -17.26,-5.55 -23.17,10.32 -30.74,26.41 -2.88,2.39 -8.47,7.94 -16.029,8.68 3.67,0.26 7.54,0.58 12.06,0.2 -6.62,15.06 -6.979,16.7 -15.57,23.75 7.35,-2.551 9.68,-5.471 14.51,-10.881 z m 4.47,-19.71 c -0.7,1.52 -2.37,4.34 -3.04,5.87 -4.48,0.36 -5.55,0.39 -9.36,0.56 3.03,-0.31 8.9,-3.33 12.4,-6.43 z m 3.977,39.784 c 0,1.85 2.122,11.566 4.412,17.556 -1.18,-6.81 -1.41,-13.92 -1.229,-20.82 0.18,-7.13 1.3,-14.12 3.34,-20.95 -4.72,19.62 -2.17,45.13 7.229,63.271 -1.909,-9.51 -3.02,-19.14 -1.81,-28.82 0.28,-2.24 0.66,-4.46 1.16,-6.66 0,0 -0.92,-8.37 1.49,-22.32 -1.641,11.57 -0.5,22.83 1.76,34.21 -0.22,-8.28 0.2,-16.63 2.32,-24.67 1.159,-4.4 2.439,-5.78 4.5,-10.88 -1.131,-4.1 -1.711,-8.32 -2.11,-12.54 1.93,12.83 5.399,20.15 12.35,30.55 2.061,3.07 4.2,5.89 7.16,8.15 -2.08,-3.64 -8.96,-19.1 -9.37,-20.14 -1.37,-3.47 -2.2,-7.06 -1.569,-10.78 -2.04,-3.2 -3.83,-6.56 -5.46,-9.99 5.229,9.7 12.039,18.21 20.34,25.49 4.29,3.77 8.859,7.25 13.56,10.48 4.841,3.33 10.04,5.93 15.03,8.99 -6.52,-5.46 -12.99,-11.4 -17.41,-16.21 -2.68,-2.92 -5.81,-5.87 -7.97,-9.21 -2.15,-3.33 -3.08,-7.14 -4.78,-10.7 1.69,2.91 2.9,6.02 4.15,8.13 0.31,0.52 11.819,9.16 16.89,13.98 6.44,6.11 9.75,8.16 15.851,14.6 -2.791,-6.18 -3.521,-9.17 -11.131,-19.26 -5.02,-6.66 -7.09,-7.03 -13.779,-17.45 1.729,2.37 3.479,4.67 5.47,6.83 1.04,1.13 2.1,2.22 3.17,3.32 6.21,1.86 11.96,2.92 21.659,8.94 16.671,10.35 20.201,18.04 26.971,24.64 -1.2,-4.17 -4.88,-11.15 -8.18,-16.9 -3.01,-5.25 -6.32,-10.68 -9.99,-15.14 4.641,4.16 8.07,9.47 11.13,14.84 3.22,5.68 6.81,11.79 7.899,18.31 -2.109,-1.62 -4.01,-3.43 -5.869,-5.34 1.119,6.33 1.73,12.93 1.439,19.36 9.016,-14.682 12.535,-35.524 9.849,-48.787 6.943,27.12 -5.726,44.18 -11.658,54.876 0.46,-6.54 -0.2,-21.98 -0.71,-26.4 -2.21,-2.759 -17.912,-19.588 -41.29,-27.14 4.12,4.12 7.729,8.4 10.58,13.51 2.61,4.7 5.1,9.62 6.6,15.03 -5.3,-5.3 -11.079,-10.12 -16.739,-15.01 -5.82,-5.03 -11.44,-10.28 -17.24,-15.33 1.569,2.35 3.42,4.57 14.779,15.65 5.99,5.85 15.33,14.29 15.53,14.51 -1,-0.38 -17.76,-9.09 -25.62,-15.05 -8.22,-6.23 -17.02,-14.11 -22.58,-22.81 -0.489,6.01 3.061,12.45 4.9,16.33 2,4.21 4.979,11.6 8.229,16.96 -5.04,-2.96 -8.85,-7.15 -11.92,-12.14 -3.189,-5.18 -6.06,-10.19 -7.84,-16.03 -1.5,2.98 -3.14,5.96 -3.84,9.25 -0.74,3.46 -1.229,6.95 -1.57,10.47 -0.67,7.07 -1.43,14.33 -1.02,21.44 -1.74,-5.47 -3.07,-10.94 -3.64,-16.67 -1.7,9.52 -0.091,23.48 1.779,37.28 -5.149,-7.021 -9.5,-17.16 -11.99,-26.3 -1.639,-6.04 -3.492,-12.546 -3.212,-16.506 z" style="opacity:1;fill:#0c0c0c"/></g><g id="svga-group-glasses-single-move" transform="matrix(0.8999997,0,0,0.8999997,50.822193,-5.3447163)"><g id="svga-group-glasses-single"><path id="SvgjsPath3033" stroke-width="none" d="M 100,18.13 Z" style="opacity:1;fill:#34180e"/></g></g></g><rect style="display:none;opacity:.5;fill:#ecf0f1" id="SvgjsRect1057" width="200" height="15" x="40.836" y="161.517"/><text style="font-weight:400;font-size:10px;font-family:Roboto,Helvetica,Arial,sans-serif;text-anchor:start;display:none;fill:#333" id="SvgjsText1058" x="98.866" y="157.626" anchor="start" font-size="10" font-weight="400"><tspan id="SvgjsTspan1059" x="98.866" dy="13">Created on face.co</tspan></text></g></svg>