<svg xmlns="http://www.w3.org/2000/svg" xmlns:svg="http://www.w3.org/2000/svg" id="svg28" width="216.989" height="216.989" version="1.1" viewBox="0 0 216.989 216.989" xml:space="preserve"><metadata id="metadata34"/><defs id="defs32"><clipPath id="clipPath48" clipPathUnits="userSpaceOnUse"><path id="path46" d="m 1594.81,6248.39 c -98.73,338.18 -411.03,585.26 -781.103,585.26 -370.074,0 -682.375,-247.08 -781.1054,-585.26 z"/></clipPath><linearGradient id="linearGradient56" x1="0" x2="1" y1="0" y2="0" gradientTransform="matrix(0,770.994,770.994,0,813.708,6269.48)" gradientUnits="userSpaceOnUse" spreadMethod="pad"><stop style="stop-opacity:1;stop-color:#fff" id="stop50" offset="0"/><stop style="stop-opacity:1;stop-color:#fff" id="stop52" offset=".151"/><stop style="stop-opacity:1;stop-color:#100f0d" id="stop54" offset="1"/></linearGradient><clipPath id="clipPath68" clipPathUnits="userSpaceOnUse"><path id="path66" d="m 4719.01,6248.39 c -98.73,338.18 -411.03,585.26 -781.1,585.26 -370.08,0 -682.38,-247.08 -781.11,-585.26 z"/></clipPath><linearGradient id="linearGradient76" x1="0" x2="1" y1="0" y2="0" gradientTransform="matrix(0,770.994,770.994,0,3937.9,6269.48)" gradientUnits="userSpaceOnUse" spreadMethod="pad"><stop style="stop-opacity:1;stop-color:#fff" id="stop70" offset="0"/><stop style="stop-opacity:1;stop-color:#fff" id="stop72" offset=".151"/><stop style="stop-opacity:1;stop-color:#100f0d" id="stop74" offset="1"/></linearGradient><clipPath id="clipPath88" clipPathUnits="userSpaceOnUse"><path id="path86" d="m 7843.2,6248.39 c -98.73,338.18 -411.02,585.26 -781.1,585.26 -370.08,0 -682.38,-247.08 -781.11,-585.26 z"/></clipPath><linearGradient id="linearGradient96" x1="0" x2="1" y1="0" y2="0" gradientTransform="matrix(0,770.994,770.994,0,7062.1,6269.48)" gradientUnits="userSpaceOnUse" spreadMethod="pad"><stop style="stop-opacity:1;stop-color:#fff" id="stop90" offset="0"/><stop style="stop-opacity:1;stop-color:#fff" id="stop92" offset=".151"/><stop style="stop-opacity:1;stop-color:#100f0d" id="stop94" offset="1"/></linearGradient><clipPath id="clipPath108" clipPathUnits="userSpaceOnUse"><path id="path106" d="m 10967.4,6248.39 c -98.7,338.18 -411,585.26 -781.1,585.26 -370.09,0 -682.38,-247.08 -781.11,-585.26 z"/></clipPath><linearGradient id="linearGradient116" x1="0" x2="1" y1="0" y2="0" gradientTransform="matrix(0,770.994,770.994,0,10186.3,6269.48)" gradientUnits="userSpaceOnUse" spreadMethod="pad"><stop style="stop-opacity:1;stop-color:#fff" id="stop110" offset="0"/><stop style="stop-opacity:1;stop-color:#fff" id="stop112" offset=".151"/><stop style="stop-opacity:1;stop-color:#100f0d" id="stop114" offset="1"/></linearGradient><clipPath id="clipPath128" clipPathUnits="userSpaceOnUse"><path id="path126" d="m 1594.81,3124.2 c -98.73,338.18 -411.03,585.26 -781.103,585.26 -370.074,0 -682.375,-247.08 -781.1054,-585.26 z"/></clipPath><linearGradient id="linearGradient136" x1="0" x2="1" y1="0" y2="0" gradientTransform="matrix(0,770.995,770.995,0,813.708,3145.29)" gradientUnits="userSpaceOnUse" spreadMethod="pad"><stop style="stop-opacity:1;stop-color:#fff" id="stop130" offset="0"/><stop style="stop-opacity:1;stop-color:#fff" id="stop132" offset=".151"/><stop style="stop-opacity:1;stop-color:#100f0d" id="stop134" offset="1"/></linearGradient><clipPath id="clipPath148" clipPathUnits="userSpaceOnUse"><path id="path146" d="m 4719.01,3124.2 c -98.73,338.18 -411.03,585.26 -781.1,585.26 -370.08,0 -682.38,-247.08 -781.11,-585.26 z"/></clipPath><linearGradient id="linearGradient156" x1="0" x2="1" y1="0" y2="0" gradientTransform="matrix(0,770.995,770.995,0,3937.9,3145.29)" gradientUnits="userSpaceOnUse" spreadMethod="pad"><stop style="stop-opacity:1;stop-color:#fff" id="stop150" offset="0"/><stop style="stop-opacity:1;stop-color:#fff" id="stop152" offset=".151"/><stop style="stop-opacity:1;stop-color:#100f0d" id="stop154" offset="1"/></linearGradient><clipPath id="clipPath168" clipPathUnits="userSpaceOnUse"><path id="path166" d="m 7843.2,3124.2 c -98.73,338.18 -411.02,585.26 -781.1,585.26 -370.08,0 -682.38,-247.08 -781.11,-585.26 z"/></clipPath><linearGradient id="linearGradient176" x1="0" x2="1" y1="0" y2="0" gradientTransform="matrix(0,770.995,770.995,0,7062.1,3145.29)" gradientUnits="userSpaceOnUse" spreadMethod="pad"><stop style="stop-opacity:1;stop-color:#fff" id="stop170" offset="0"/><stop style="stop-opacity:1;stop-color:#fff" id="stop172" offset=".151"/><stop style="stop-opacity:1;stop-color:#100f0d" id="stop174" offset="1"/></linearGradient><clipPath id="clipPath188" clipPathUnits="userSpaceOnUse"><path id="path186" d="m 10967.4,3124.2 c -98.7,338.18 -411,585.26 -781.1,585.26 -370.09,0 -682.38,-247.08 -781.11,-585.26 z"/></clipPath><linearGradient id="linearGradient196" x1="0" x2="1" y1="0" y2="0" gradientTransform="matrix(0,770.995,770.995,0,10186.3,3145.29)" gradientUnits="userSpaceOnUse" spreadMethod="pad"><stop style="stop-opacity:1;stop-color:#fff" id="stop190" offset="0"/><stop style="stop-opacity:1;stop-color:#fff" id="stop192" offset=".151"/><stop style="stop-opacity:1;stop-color:#100f0d" id="stop194" offset="1"/></linearGradient><clipPath id="clipPath208" clipPathUnits="userSpaceOnUse"><path id="path206" d="M 1594.81,0 C 1496.08,338.18 1183.78,585.262 813.707,585.262 443.633,585.262 131.332,338.18 32.6016,0 Z"/></clipPath><linearGradient id="linearGradient216" x1="0" x2="1" y1="0" y2="0" gradientTransform="matrix(0,770.994,770.994,0,813.708,21.0905)" gradientUnits="userSpaceOnUse" spreadMethod="pad"><stop style="stop-opacity:1;stop-color:#fff" id="stop210" offset="0"/><stop style="stop-opacity:1;stop-color:#fff" id="stop212" offset=".151"/><stop style="stop-opacity:1;stop-color:#100f0d" id="stop214" offset="1"/></linearGradient><clipPath id="clipPath228" clipPathUnits="userSpaceOnUse"><path id="path226" d="M 4719.01,0 C 4620.28,338.18 4307.98,585.262 3937.91,585.262 3567.83,585.262 3255.53,338.18 3156.8,0 Z"/></clipPath><linearGradient id="linearGradient236" x1="0" x2="1" y1="0" y2="0" gradientTransform="matrix(0,770.994,770.994,0,3937.9,21.0905)" gradientUnits="userSpaceOnUse" spreadMethod="pad"><stop style="stop-opacity:1;stop-color:#fff" id="stop230" offset="0"/><stop style="stop-opacity:1;stop-color:#fff" id="stop232" offset=".151"/><stop style="stop-opacity:1;stop-color:#100f0d" id="stop234" offset="1"/></linearGradient><clipPath id="clipPath248" clipPathUnits="userSpaceOnUse"><path id="path246" d="M 7843.2,0 C 7744.47,338.18 7432.18,585.262 7062.1,585.262 6692.02,585.262 6379.72,338.18 6280.99,0 Z"/></clipPath><linearGradient id="linearGradient256" x1="0" x2="1" y1="0" y2="0" gradientTransform="matrix(0,770.994,770.994,0,7062.1,21.0905)" gradientUnits="userSpaceOnUse" spreadMethod="pad"><stop style="stop-opacity:1;stop-color:#fff" id="stop250" offset="0"/><stop style="stop-opacity:1;stop-color:#fff" id="stop252" offset=".151"/><stop style="stop-opacity:1;stop-color:#100f0d" id="stop254" offset="1"/></linearGradient><clipPath id="clipPath268" clipPathUnits="userSpaceOnUse"><path id="path266" d="m 10967.4,0 c -98.7,338.18 -411,585.262 -781.1,585.262 C 9816.21,585.262 9503.92,338.18 9405.19,0 Z"/></clipPath><linearGradient id="linearGradient276" x1="0" x2="1" y1="0" y2="0" gradientTransform="matrix(0,770.994,770.994,0,10186.3,21.0905)" gradientUnits="userSpaceOnUse" spreadMethod="pad"><stop style="stop-opacity:1;stop-color:#fff" id="stop270" offset="0"/><stop style="stop-opacity:1;stop-color:#fff" id="stop272" offset=".151"/><stop style="stop-opacity:1;stop-color:#100f0d" id="stop274" offset="1"/></linearGradient></defs><g id="g36" transform="matrix(1.3333333,0,0,-1.3333333,0,1128.1426)"><path style="fill:#3b393d;fill-opacity:1;fill-rule:nonzero;stroke:none;stroke-width:.1" id="path40" d="m 162.742,764.736 c 0,-44.94 -36.431,-81.371 -81.3713,-81.371 C 36.4313,683.365 0,719.796 0,764.736 c 0,44.94 36.4313,81.371 81.3707,81.371 44.9403,0 81.3713,-36.431 81.3713,-81.371"/><path style="fill:#fff;fill-opacity:1;fill-rule:nonzero;stroke:none;stroke-width:.1" id="path280" d="m 67.141882,764.736 v -46.752 h 28.4574 v 46.752 l 29.245698,-12.451 c 4.9356,-2.102 9.207,4.071 5.5012,7.949 l -48.975398,51.254 -48.9753,-51.254 c -3.706,-3.878 0.565,-10.051 5.501,-7.949 l 29.2454,12.451"/></g></svg>