<svg xmlns="http://www.w3.org/2000/svg" xmlns:svg="http://www.w3.org/2000/svg" xmlns:xlink="http://www.w3.org/1999/xlink" id="svg4163" width="659.689" height="595.621" version="1.1" viewBox="0 0 219.896 198.54" style="overflow:hidden"><metadata id="metadata4167"/><defs id="SvgjsDefs1007"><radialGradient id="SvgjsRadialGradient2907" cx="100" cy="114" r="41" class="svga-on-canvas-facehighlight-gradient-single-0" gradientUnits="userSpaceOnUse"><stop id="SvgjsStop2908" offset="0" stop-color="#c27d5c" stop-opacity=".5"/><stop id="SvgjsStop2909" offset=".9" stop-color="#b36743" stop-opacity="0"/></radialGradient><radialGradient id="SvgjsRadialGradient2911" cx="100" cy="54" r="37" class="svga-on-canvas-facehighlight-gradient-single-1" gradientUnits="userSpaceOnUse"><stop id="SvgjsStop2912" offset="0" stop-color="#c27d5c" stop-opacity=".5"/><stop id="SvgjsStop2913" offset=".9" stop-color="#b36743" stop-opacity="0"/></radialGradient><radialGradient id="SvgjsRadialGradient3542" cx="-568.659" cy="-521.042" r="59.751" class="svga-on-canvas-eyesiris-gradient-left-1" gradientTransform="matrix(0.096,-0.0248,0.0245,0.0961,141.2814,119.9893)" gradientUnits="userSpaceOnUse"><stop id="SvgjsStop3543" offset="0" stop-color="#fff" stop-opacity="1"/><stop id="SvgjsStop3544" offset="1" stop-color="#fff" stop-opacity="0"/></radialGradient><radialGradient id="SvgjsRadialGradient3546" cx="-582.838" cy="-519.099" r="59.745" class="svga-on-canvas-eyesiris-gradient-left-2" gradientTransform="matrix(0.0991,8.856319e-4,-0.0011,0.0991,131.1134,135.9855)" gradientUnits="userSpaceOnUse"><stop id="SvgjsStop3547" offset="0" stop-color="#fff" stop-opacity="1"/><stop id="SvgjsStop3548" offset="1" stop-color="#fff" stop-opacity="0"/></radialGradient><linearGradient id="SvgjsLinearGradient3552" x1="122.67" x2="123.606" y1="88.268" y2="87.152" class="svga-on-canvas-eyesiris-gradient-left-5" gradientTransform="translate(-52)" gradientUnits="userSpaceOnUse"><stop id="SvgjsStop3553" offset="0" stop-color="#fff" stop-opacity="1"/><stop id="SvgjsStop3554" offset="1" stop-color="#fff" stop-opacity="0"/></linearGradient><linearGradient id="SvgjsLinearGradient3560" x1="129.636" x2="127.91" y1="79.822" y2="81.879" class="svga-on-canvas-eyesiris-gradient-left-7" gradientTransform="translate(-52)" gradientUnits="userSpaceOnUse"><stop id="SvgjsStop3561" offset="0" stop-color="#fff" stop-opacity="1"/><stop id="SvgjsStop3562" offset="1" stop-color="#fff" stop-opacity="0"/></linearGradient><radialGradient id="SvgjsRadialGradient3565" cx="-568.654" cy="-521.042" r="59.752" class="svga-on-canvas-eyesiris-gradient-right-1" gradientTransform="matrix(0.096,-0.0248,0.0245,0.0961,193.2804,119.9894)" gradientUnits="userSpaceOnUse"><stop id="SvgjsStop3566" offset="0" stop-color="#fff" stop-opacity="1"/><stop id="SvgjsStop3567" offset="1" stop-color="#fff" stop-opacity="0"/></radialGradient><radialGradient id="SvgjsRadialGradient3569" cx="-582.833" cy="-519.102" r="59.747" class="svga-on-canvas-eyesiris-gradient-right-2" gradientTransform="matrix(0.0991,8.856319e-4,-0.0011,0.0991,183.1126,135.9856)" gradientUnits="userSpaceOnUse"><stop id="SvgjsStop3570" offset="0" stop-color="#fff" stop-opacity="1"/><stop id="SvgjsStop3571" offset="1" stop-color="#fff" stop-opacity="0"/></radialGradient><linearGradient id="SvgjsLinearGradient3575" x1="122.67" x2="123.606" y1="88.268" y2="87.152" class="svga-on-canvas-eyesiris-gradient-right-5" gradientUnits="userSpaceOnUse"><stop id="SvgjsStop3576" offset="0" stop-color="#fff" stop-opacity="1"/><stop id="SvgjsStop3577" offset="1" stop-color="#fff" stop-opacity="0"/></linearGradient><linearGradient id="SvgjsLinearGradient3583" x1="129.636" x2="127.91" y1="79.822" y2="81.879" class="svga-on-canvas-eyesiris-gradient-right-7" gradientUnits="userSpaceOnUse"><stop id="SvgjsStop3584" offset="0" stop-color="#fff" stop-opacity="1"/><stop id="SvgjsStop3585" offset="1" stop-color="#fff" stop-opacity="0"/></linearGradient><radialGradient id="SvgjsRadialGradient3619" cx="125.903" cy="85.096" r="13.25" class="svga-on-canvas-eyesback-gradient-left-0" gradientTransform="matrix(-1.0996,0.0423,0.0635,0.9207,206.5488,0.5932)" gradientUnits="userSpaceOnUse"><stop id="SvgjsStop3620" offset="0" stop-color="#fff" stop-opacity="1"/><stop id="SvgjsStop3621" offset=".544" stop-color="#fdfefe" stop-opacity="1"/><stop id="SvgjsStop3622" offset=".74" stop-color="#f6f8f9" stop-opacity="1"/><stop id="SvgjsStop3623" offset=".879" stop-color="#eaeff2" stop-opacity="1"/><stop id="SvgjsStop3624" offset=".992" stop-color="#d9e3e8" stop-opacity="1"/><stop id="SvgjsStop3625" offset="1" stop-color="#d8e2e7" stop-opacity="1"/></radialGradient><radialGradient id="SvgjsRadialGradient3627" cx="125.541" cy="85.113" r="13.249" class="svga-on-canvas-eyesback-gradient-right-0" gradientTransform="matrix(1.0996,0.0423,-0.0635,0.9207,-6.5488,0.5932)" gradientUnits="userSpaceOnUse"><stop id="SvgjsStop3628" offset="0" stop-color="#fff" stop-opacity="1"/><stop id="SvgjsStop3629" offset=".544" stop-color="#fdfefe" stop-opacity="1"/><stop id="SvgjsStop3630" offset=".74" stop-color="#f6f8f9" stop-opacity="1"/><stop id="SvgjsStop3631" offset=".879" stop-color="#eaeff2" stop-opacity="1"/><stop id="SvgjsStop3632" offset=".992" stop-color="#d9e3e8" stop-opacity="1"/><stop id="SvgjsStop3633" offset="1" stop-color="#d8e2e7" stop-opacity="1"/></radialGradient><radialGradient id="SvgjsRadialGradient3635" cx="125.903" cy="85.096" r="13.25" class="svga-on-canvas-eyesfront-gradient-left-0" gradientTransform="matrix(-1.0996,0.0423,0.0635,0.9207,206.5488,0.5932)" gradientUnits="userSpaceOnUse"><stop id="SvgjsStop3636" offset="0" stop-color="#fff" stop-opacity="1"/><stop id="SvgjsStop3637" offset=".544" stop-color="#fdfefe" stop-opacity="1"/><stop id="SvgjsStop3638" offset=".74" stop-color="#f6f8f9" stop-opacity="1"/><stop id="SvgjsStop3639" offset=".879" stop-color="#eaeff2" stop-opacity="1"/><stop id="SvgjsStop3640" offset=".992" stop-color="#d9e3e8" stop-opacity="1"/><stop id="SvgjsStop3641" offset="1" stop-color="#d8e2e7" stop-opacity="1"/></radialGradient><radialGradient id="SvgjsRadialGradient3645" cx="123.371" cy="81.442" r="17.038" class="svga-on-canvas-eyesfront-gradient-left-3" fx="136.805" fy="80.36" gradientTransform="matrix(0.9884,0.1367,0.1336,-0.7354,-56.0677,125.3)" gradientUnits="userSpaceOnUse"><stop id="SvgjsStop3646" offset="0" stop-color="#a4532d" stop-opacity="1"/><stop id="SvgjsStop3647" offset=".7" stop-color="#a4532d" stop-opacity=".3"/><stop id="SvgjsStop3648" offset="1" stop-color="#b36743" stop-opacity="0"/></radialGradient><radialGradient id="SvgjsRadialGradient3650" cx="78.965" cy="81.143" r="26.237" class="svga-on-canvas-eyesfront-gradient-left-4" gradientTransform="matrix(0.7183,-0.06,0.0803,0.6143,8.7915,49.2595)" gradientUnits="userSpaceOnUse"><stop id="SvgjsStop3651" offset=".95" stop-color="#000" stop-opacity="0"/><stop id="SvgjsStop3652" offset="1" stop-color="#000" stop-opacity=".2"/></radialGradient><radialGradient id="SvgjsRadialGradient3656" cx="125.541" cy="85.113" r="13.249" class="svga-on-canvas-eyesfront-gradient-right-0" gradientTransform="matrix(1.0996,0.0423,-0.0635,0.9207,-6.5488,0.5932)" gradientUnits="userSpaceOnUse"><stop id="SvgjsStop3657" offset="0" stop-color="#fff" stop-opacity="1"/><stop id="SvgjsStop3658" offset=".544" stop-color="#fdfefe" stop-opacity="1"/><stop id="SvgjsStop3659" offset=".74" stop-color="#f6f8f9" stop-opacity="1"/><stop id="SvgjsStop3660" offset=".879" stop-color="#eaeff2" stop-opacity="1"/><stop id="SvgjsStop3661" offset=".992" stop-color="#d9e3e8" stop-opacity="1"/><stop id="SvgjsStop3662" offset="1" stop-color="#d8e2e7" stop-opacity="1"/></radialGradient><radialGradient id="SvgjsRadialGradient3666" cx="122.972" cy="81.425" r="17.037" class="svga-on-canvas-eyesfront-gradient-right-3" fx="136.406" fy="80.344" gradientTransform="matrix(-0.9884,0.1367,-0.1336,-0.7354,255.271,125.3424)" gradientUnits="userSpaceOnUse"><stop id="SvgjsStop3667" offset="0" stop-color="#a4532d" stop-opacity="1"/><stop id="SvgjsStop3668" offset=".7" stop-color="#a4532d" stop-opacity=".3"/><stop id="SvgjsStop3669" offset="1" stop-color="#b36743" stop-opacity="0"/></radialGradient><radialGradient id="SvgjsRadialGradient3671" cx="79.515" cy="81.186" r="26.237" class="svga-on-canvas-eyesfront-gradient-right-4" gradientTransform="matrix(-0.7183,-0.06,-0.0803,0.6143,191.2076,49.2665)" gradientUnits="userSpaceOnUse"><stop id="SvgjsStop3672" offset=".95" stop-color="#000" stop-opacity="0"/><stop id="SvgjsStop3673" offset="1" stop-color="#000" stop-opacity=".2"/></radialGradient><linearGradient id="SvgjsLinearGradient3683" x1="132" x2="126" y1="78" y2="84" class="svga-on-canvas-eyesiris-gradient-left-6" gradientTransform="translate(-50)" gradientUnits="userSpaceOnUse"><stop id="SvgjsStop3684" offset="0" stop-color="#fff" stop-opacity="1"/><stop id="SvgjsStop3685" offset="1" stop-color="#fff" stop-opacity="0"/></linearGradient><linearGradient id="SvgjsLinearGradient3693" x1="132" x2="126" y1="78" y2="84" class="svga-on-canvas-eyesiris-gradient-right-6" gradientUnits="userSpaceOnUse"><stop id="SvgjsStop3694" offset="0" stop-color="#fff" stop-opacity="1"/><stop id="SvgjsStop3695" offset="1" stop-color="#fff" stop-opacity="0"/></linearGradient><linearGradient id="SvgjsLinearGradient3793" x1="100" x2="100" y1="140" y2="138" class="svga-on-canvas-mouth-gradient-single-0" gradientUnits="userSpaceOnUse"><stop id="SvgjsStop3794" offset=".1" stop-color="#ab5d38" stop-opacity="1"/><stop id="SvgjsStop3795" offset="1" stop-color="#a4532d" stop-opacity="1"/></linearGradient><linearGradient id="SvgjsLinearGradient3962" x1="100" x2="100" y1="171" y2="128" class="svga-on-canvas-chinshadow-gradient-single-0" gradientTransform="matrix(-1.6155194,0,0,1.1101363,269.19991,1.4881482)" gradientUnits="userSpaceOnUse"><stop id="SvgjsStop3963" offset="0" stop-color="#a4532d" stop-opacity=".8"/><stop id="SvgjsStop3964" offset=".7" stop-color="#85310a" stop-opacity="1"/></linearGradient><radialGradient id="SvgjsRadialGradient3619-3" cx="125.903" cy="85.096" r="13.25" class="svga-on-canvas-eyesback-gradient-left-0" gradientTransform="matrix(-1.0996,0.0423,0.0635,0.9207,206.5488,0.5932)" gradientUnits="userSpaceOnUse"><stop id="SvgjsStop3620-5" offset="0" stop-color="#fff" stop-opacity="1"/><stop id="SvgjsStop3621-6" offset=".544" stop-color="#fdfefe" stop-opacity="1"/><stop id="SvgjsStop3622-2" offset=".74" stop-color="#f6f8f9" stop-opacity="1"/><stop id="SvgjsStop3623-9" offset=".879" stop-color="#eaeff2" stop-opacity="1"/><stop id="SvgjsStop3624-1" offset=".992" stop-color="#d9e3e8" stop-opacity="1"/><stop id="SvgjsStop3625-2" offset="1" stop-color="#d8e2e7" stop-opacity="1"/></radialGradient><radialGradient id="SvgjsRadialGradient3645-9" cx="123.371" cy="81.442" r="17.038" class="svga-on-canvas-eyesfront-gradient-left-3" fx="136.805" fy="80.36" gradientTransform="matrix(0.9884,0.1367,0.1336,-0.7354,-56.0677,125.3)" gradientUnits="userSpaceOnUse"><stop id="SvgjsStop3646-3" offset="0" stop-color="#a4532d" stop-opacity="1"/><stop id="SvgjsStop3647-6" offset=".7" stop-color="#a4532d" stop-opacity=".3"/><stop id="SvgjsStop3648-0" offset="1" stop-color="#b36743" stop-opacity="0"/></radialGradient><radialGradient id="SvgjsRadialGradient3650-6" cx="78.965" cy="81.143" r="26.237" class="svga-on-canvas-eyesfront-gradient-left-4" gradientTransform="matrix(0.7183,-0.06,0.0803,0.6143,8.7915,49.2595)" gradientUnits="userSpaceOnUse"><stop id="SvgjsStop3651-2" offset=".95" stop-color="#000" stop-opacity="0"/><stop id="SvgjsStop3652-6" offset="1" stop-color="#000" stop-opacity=".2"/></radialGradient><radialGradient id="SvgjsRadialGradient3627-1" cx="125.541" cy="85.113" r="13.249" class="svga-on-canvas-eyesback-gradient-right-0" gradientTransform="matrix(1.0996,0.0423,-0.0635,0.9207,-6.5488,0.5932)" gradientUnits="userSpaceOnUse"><stop id="SvgjsStop3628-8" offset="0" stop-color="#fff" stop-opacity="1"/><stop id="SvgjsStop3629-7" offset=".544" stop-color="#fdfefe" stop-opacity="1"/><stop id="SvgjsStop3630-9" offset=".74" stop-color="#f6f8f9" stop-opacity="1"/><stop id="SvgjsStop3631-2" offset=".879" stop-color="#eaeff2" stop-opacity="1"/><stop id="SvgjsStop3632-0" offset=".992" stop-color="#d9e3e8" stop-opacity="1"/><stop id="SvgjsStop3633-2" offset="1" stop-color="#d8e2e7" stop-opacity="1"/></radialGradient><radialGradient id="SvgjsRadialGradient3666-5" cx="122.972" cy="81.425" r="17.037" class="svga-on-canvas-eyesfront-gradient-right-3" fx="136.406" fy="80.344" gradientTransform="matrix(-0.9884,0.1367,-0.1336,-0.7354,255.271,125.3424)" gradientUnits="userSpaceOnUse"><stop id="SvgjsStop3667-9" offset="0" stop-color="#a4532d" stop-opacity="1"/><stop id="SvgjsStop3668-2" offset=".7" stop-color="#a4532d" stop-opacity=".3"/><stop id="SvgjsStop3669-2" offset="1" stop-color="#b36743" stop-opacity="0"/></radialGradient><radialGradient id="SvgjsRadialGradient3671-8" cx="79.515" cy="81.186" r="26.237" class="svga-on-canvas-eyesfront-gradient-right-4" gradientTransform="matrix(-0.7183,-0.06,-0.0803,0.6143,191.2076,49.2665)" gradientUnits="userSpaceOnUse"><stop id="SvgjsStop3672-9" offset=".95" stop-color="#000" stop-opacity="0"/><stop id="SvgjsStop3673-7" offset="1" stop-color="#000" stop-opacity=".2"/></radialGradient><radialGradient id="SvgjsRadialGradient2907-3" cx="100" cy="114" r="41" class="svga-on-canvas-facehighlight-gradient-single-0" gradientUnits="userSpaceOnUse"><stop id="SvgjsStop2908-6" offset="0" stop-color="#c27d5c" stop-opacity=".5"/><stop id="SvgjsStop2909-1" offset=".9" stop-color="#b36743" stop-opacity="0"/></radialGradient><radialGradient id="SvgjsRadialGradient2911-2" cx="100" cy="54" r="37" class="svga-on-canvas-facehighlight-gradient-single-1" gradientUnits="userSpaceOnUse"><stop id="SvgjsStop2912-9" offset="0" stop-color="#c27d5c" stop-opacity=".5"/><stop id="SvgjsStop2913-3" offset=".9" stop-color="#b36743" stop-opacity="0"/></radialGradient><clipPath id="clipPath5319" clipPathUnits="userSpaceOnUse"><rect style="stroke-width:.33333334" id="rect5321" width="181.436" height="214.873" x="50.154" y="-18.325"/></clipPath><clipPath id="clipPath236" clipPathUnits="userSpaceOnUse"><circle style="stroke-width:.34283248" id="circle238" cx="142.516" cy="89.385" r="108.807"/></clipPath><clipPath id="clipPath236-3" clipPathUnits="userSpaceOnUse"><circle style="stroke-width:.34283248" id="circle238-6" cx="142.516" cy="89.385" r="108.807"/></clipPath><radialGradient id="SvgjsRadialGradient3619-3-6" cx="125.903" cy="85.096" r="13.25" class="svga-on-canvas-eyesback-gradient-left-0" gradientTransform="matrix(-1.0996,0.0423,0.0635,0.9207,206.5488,0.5932)" gradientUnits="userSpaceOnUse"><stop id="SvgjsStop3620-5-2" offset="0" stop-color="#fff" stop-opacity="1"/><stop id="SvgjsStop3621-6-9" offset=".544" stop-color="#fdfefe" stop-opacity="1"/><stop id="SvgjsStop3622-2-1" offset=".74" stop-color="#f6f8f9" stop-opacity="1"/><stop id="SvgjsStop3623-9-2" offset=".879" stop-color="#eaeff2" stop-opacity="1"/><stop id="SvgjsStop3624-1-7" offset=".992" stop-color="#d9e3e8" stop-opacity="1"/><stop id="SvgjsStop3625-2-0" offset="1" stop-color="#d8e2e7" stop-opacity="1"/></radialGradient><radialGradient id="SvgjsRadialGradient3645-9-6" cx="123.371" cy="81.442" r="17.038" class="svga-on-canvas-eyesfront-gradient-left-3" fx="136.805" fy="80.36" gradientTransform="matrix(0.9884,0.1367,0.1336,-0.7354,-56.0677,125.3)" gradientUnits="userSpaceOnUse"><stop id="SvgjsStop3646-3-0" offset="0" stop-color="#a4532d" stop-opacity="1"/><stop id="SvgjsStop3647-6-6" offset=".7" stop-color="#a4532d" stop-opacity=".3"/><stop id="SvgjsStop3648-0-2" offset="1" stop-color="#b36743" stop-opacity="0"/></radialGradient><radialGradient id="SvgjsRadialGradient3650-6-6" cx="78.965" cy="81.143" r="26.237" class="svga-on-canvas-eyesfront-gradient-left-4" gradientTransform="matrix(0.7183,-0.06,0.0803,0.6143,8.7915,49.2595)" gradientUnits="userSpaceOnUse"><stop id="SvgjsStop3651-2-1" offset=".95" stop-color="#000" stop-opacity="0"/><stop id="SvgjsStop3652-6-8" offset="1" stop-color="#000" stop-opacity=".2"/></radialGradient><radialGradient id="SvgjsRadialGradient3627-1-7" cx="125.541" cy="85.113" r="13.249" class="svga-on-canvas-eyesback-gradient-right-0" gradientTransform="matrix(1.0996,0.0423,-0.0635,0.9207,-6.5488,0.5932)" gradientUnits="userSpaceOnUse"><stop id="SvgjsStop3628-8-9" offset="0" stop-color="#fff" stop-opacity="1"/><stop id="SvgjsStop3629-7-2" offset=".544" stop-color="#fdfefe" stop-opacity="1"/><stop id="SvgjsStop3630-9-0" offset=".74" stop-color="#f6f8f9" stop-opacity="1"/><stop id="SvgjsStop3631-2-2" offset=".879" stop-color="#eaeff2" stop-opacity="1"/><stop id="SvgjsStop3632-0-3" offset=".992" stop-color="#d9e3e8" stop-opacity="1"/><stop id="SvgjsStop3633-2-7" offset="1" stop-color="#d8e2e7" stop-opacity="1"/></radialGradient><radialGradient id="SvgjsRadialGradient3666-5-2" cx="122.972" cy="81.425" r="17.037" class="svga-on-canvas-eyesfront-gradient-right-3" fx="136.406" fy="80.344" gradientTransform="matrix(-0.9884,0.1367,-0.1336,-0.7354,255.271,125.3424)" gradientUnits="userSpaceOnUse"><stop id="SvgjsStop3667-9-2" offset="0" stop-color="#a4532d" stop-opacity="1"/><stop id="SvgjsStop3668-2-8" offset=".7" stop-color="#a4532d" stop-opacity=".3"/><stop id="SvgjsStop3669-2-9" offset="1" stop-color="#b36743" stop-opacity="0"/></radialGradient><radialGradient id="SvgjsRadialGradient3671-8-7" cx="79.515" cy="81.186" r="26.237" class="svga-on-canvas-eyesfront-gradient-right-4" gradientTransform="matrix(-0.7183,-0.06,-0.0803,0.6143,191.2076,49.2665)" gradientUnits="userSpaceOnUse"><stop id="SvgjsStop3672-9-3" offset=".95" stop-color="#000" stop-opacity="0"/><stop id="SvgjsStop3673-7-6" offset="1" stop-color="#000" stop-opacity=".2"/></radialGradient><radialGradient id="radialGradient6255" cx="79.515" cy="81.186" r="26.237" gradientTransform="matrix(-0.7183,-0.06,-0.0803,0.6143,191.2076,49.2665)" gradientUnits="userSpaceOnUse" xlink:href="#SvgjsRadialGradient3671-8-7"/><clipPath id="clipPath10844" clipPathUnits="userSpaceOnUse"><path id="path10842" d="M 0,500 H 500 V 0 H 0 Z"/></clipPath><clipPath id="clipPath11054" clipPathUnits="userSpaceOnUse"><path id="path11052" d="M 0,500 H 500 V 0 H 0 Z"/></clipPath><filter id="filter317" style="color-interpolation-filters:sRGB"><feColorMatrix id="feColorMatrix315" result="fbSourceGraphic" values="1 0 0 0.082 -0 0 1 0 0.082 -0 0 0 1 0.082 -0 0 0 0 1 0"/><feColorMatrix id="feColorMatrix2060" in="fbSourceGraphic" result="fbSourceGraphicAlpha" values="0 0 0 -1 0 0 0 0 -1 0 0 0 0 -1 0 0 0 0 1 0"/><feColorMatrix id="feColorMatrix2062" in="fbSourceGraphic" values="1.2 0 0 0.11 -0.1 0 1.2 0 0.11 -0.1 0 0 1.2 0.11 -0.1 0 0 0 1 0"/></filter><clipPath id="clipPath236-36" clipPathUnits="userSpaceOnUse"><circle style="stroke-width:.34283248" id="circle238-7" cx="142.516" cy="89.385" r="108.807"/></clipPath><linearGradient id="SvgjsLinearGradient3962-5" x1="100" x2="100" y1="171" y2="128" class="svga-on-canvas-chinshadow-gradient-single-0" gradientTransform="matrix(1.4334586,0,0,0.8999997,229.38566,28.047347)" gradientUnits="userSpaceOnUse"><stop id="SvgjsStop3963-3" offset="0" stop-color="#a4532d" stop-opacity=".8"/><stop id="SvgjsStop3964-5" offset=".7" stop-color="#85310a" stop-opacity="1"/></linearGradient><radialGradient id="SvgjsRadialGradient3619-3-9" cx="125.903" cy="85.096" r="13.25" class="svga-on-canvas-eyesback-gradient-left-0" gradientTransform="matrix(-1.0996,0.0423,0.0635,0.9207,206.5488,0.5932)" gradientUnits="userSpaceOnUse"><stop id="SvgjsStop3620-5-1" offset="0" stop-color="#fff" stop-opacity="1"/><stop id="SvgjsStop3621-6-2" offset=".544" stop-color="#fdfefe" stop-opacity="1"/><stop id="SvgjsStop3622-2-7" offset=".74" stop-color="#f6f8f9" stop-opacity="1"/><stop id="SvgjsStop3623-9-0" offset=".879" stop-color="#eaeff2" stop-opacity="1"/><stop id="SvgjsStop3624-1-9" offset=".992" stop-color="#d9e3e8" stop-opacity="1"/><stop id="SvgjsStop3625-2-3" offset="1" stop-color="#d8e2e7" stop-opacity="1"/></radialGradient><radialGradient id="SvgjsRadialGradient3645-9-62" cx="123.371" cy="81.442" r="17.038" class="svga-on-canvas-eyesfront-gradient-left-3" fx="136.805" fy="80.36" gradientTransform="matrix(0.9884,0.1367,0.1336,-0.7354,-56.0677,125.3)" gradientUnits="userSpaceOnUse"><stop id="SvgjsStop3646-3-6" offset="0" stop-color="#a4532d" stop-opacity="1"/><stop id="SvgjsStop3647-6-1" offset=".7" stop-color="#a4532d" stop-opacity=".3"/><stop id="SvgjsStop3648-0-8" offset="1" stop-color="#b36743" stop-opacity="0"/></radialGradient><radialGradient id="SvgjsRadialGradient3650-6-7" cx="78.965" cy="81.143" r="26.237" class="svga-on-canvas-eyesfront-gradient-left-4" gradientTransform="matrix(0.7183,-0.06,0.0803,0.6143,8.7915,49.2595)" gradientUnits="userSpaceOnUse"><stop id="SvgjsStop3651-2-9" offset=".95" stop-color="#000" stop-opacity="0"/><stop id="SvgjsStop3652-6-2" offset="1" stop-color="#000" stop-opacity=".2"/></radialGradient><radialGradient id="SvgjsRadialGradient3627-1-0" cx="125.541" cy="85.113" r="13.249" class="svga-on-canvas-eyesback-gradient-right-0" gradientTransform="matrix(1.0996,0.0423,-0.0635,0.9207,-6.5488,0.5932)" gradientUnits="userSpaceOnUse"><stop id="SvgjsStop3628-8-2" offset="0" stop-color="#fff" stop-opacity="1"/><stop id="SvgjsStop3629-7-3" offset=".544" stop-color="#fdfefe" stop-opacity="1"/><stop id="SvgjsStop3630-9-7" offset=".74" stop-color="#f6f8f9" stop-opacity="1"/><stop id="SvgjsStop3631-2-5" offset=".879" stop-color="#eaeff2" stop-opacity="1"/><stop id="SvgjsStop3632-0-9" offset=".992" stop-color="#d9e3e8" stop-opacity="1"/><stop id="SvgjsStop3633-2-2" offset="1" stop-color="#d8e2e7" stop-opacity="1"/></radialGradient><radialGradient id="SvgjsRadialGradient3666-5-9" cx="122.972" cy="81.425" r="17.037" class="svga-on-canvas-eyesfront-gradient-right-3" fx="136.406" fy="80.344" gradientTransform="matrix(-0.9884,0.1367,-0.1336,-0.7354,255.271,125.3424)" gradientUnits="userSpaceOnUse"><stop id="SvgjsStop3667-9-7" offset="0" stop-color="#a4532d" stop-opacity="1"/><stop id="SvgjsStop3668-2-3" offset=".7" stop-color="#a4532d" stop-opacity=".3"/><stop id="SvgjsStop3669-2-6" offset="1" stop-color="#b36743" stop-opacity="0"/></radialGradient><radialGradient id="SvgjsRadialGradient3671-8-1" cx="79.515" cy="81.186" r="26.237" class="svga-on-canvas-eyesfront-gradient-right-4" gradientTransform="matrix(-0.7183,-0.06,-0.0803,0.6143,191.2076,49.2665)" gradientUnits="userSpaceOnUse"><stop id="SvgjsStop3672-9-2" offset=".95" stop-color="#000" stop-opacity="0"/><stop id="SvgjsStop3673-7-9" offset="1" stop-color="#000" stop-opacity=".2"/></radialGradient><linearGradient id="linearGradient565" x1="100" x2="100" y1="140" y2="138" gradientUnits="userSpaceOnUse" xlink:href="#SvgjsLinearGradient3793"/><linearGradient id="linearGradient567" x1="132" x2="126" y1="78" y2="84" gradientTransform="translate(-50)" gradientUnits="userSpaceOnUse" xlink:href="#SvgjsLinearGradient3683"/><linearGradient id="linearGradient569" x1="132" x2="126" y1="78" y2="84" gradientUnits="userSpaceOnUse" xlink:href="#SvgjsLinearGradient3693"/><linearGradient id="SvgjsLinearGradient3962-5-3" x1="100" x2="100" y1="171" y2="128" class="svga-on-canvas-chinshadow-gradient-single-0" gradientTransform="matrix(4.3003758,0,0,2.6999991,-312.55992,-346.06526)" gradientUnits="userSpaceOnUse"><stop id="SvgjsStop3963-3-9" offset="0" stop-color="#a4532d" stop-opacity=".8"/><stop id="SvgjsStop3964-5-0" offset=".7" stop-color="#85310a" stop-opacity="1"/></linearGradient><linearGradient id="linearGradient2317" x1="100" x2="100" y1="171" y2="128" gradientTransform="matrix(0.94389999,0,0,0.5926294,190.82687,47.327125)" gradientUnits="userSpaceOnUse" xlink:href="#SvgjsLinearGradient3962-5"/><clipPath id="clipPath945" clipPathUnits="userSpaceOnUse"><circle style="opacity:1;vector-effect:none;fill:none;fill-opacity:1;stroke:none;stroke-width:1.040272;stroke-linecap:butt;stroke-linejoin:miter;stroke-miterlimit:4;stroke-dasharray:none;stroke-dashoffset:0;stroke-opacity:1" id="circle947" cx="111.084" cy="103.208" r="98.872"/></clipPath><radialGradient id="SvgjsRadialGradient2907-5" cx="100" cy="114" r="41" class="svga-on-canvas-facehighlight-gradient-single-0" gradientUnits="userSpaceOnUse"><stop id="SvgjsStop2908-62" offset="0" stop-color="#c27d5c" stop-opacity=".5"/><stop id="SvgjsStop2909-9" offset=".9" stop-color="#b36743" stop-opacity="0"/></radialGradient><radialGradient id="SvgjsRadialGradient2911-1" cx="100" cy="54" r="37" class="svga-on-canvas-facehighlight-gradient-single-1" gradientUnits="userSpaceOnUse"><stop id="SvgjsStop2912-2" offset="0" stop-color="#c27d5c" stop-opacity=".5"/><stop id="SvgjsStop2913-7" offset=".9" stop-color="#b36743" stop-opacity="0"/></radialGradient><radialGradient id="SvgjsRadialGradient3542-0" cx="-568.659" cy="-521.042" r="59.751" class="svga-on-canvas-eyesiris-gradient-left-1" gradientTransform="matrix(0.096,-0.0248,0.0245,0.0961,141.2814,119.9893)" gradientUnits="userSpaceOnUse"><stop id="SvgjsStop3543-9" offset="0" stop-color="#fff" stop-opacity="1"/><stop id="SvgjsStop3544-3" offset="1" stop-color="#fff" stop-opacity="0"/></radialGradient><radialGradient id="SvgjsRadialGradient3546-6" cx="-582.838" cy="-519.099" r="59.745" class="svga-on-canvas-eyesiris-gradient-left-2" gradientTransform="matrix(0.0991,8.856319e-4,-0.0011,0.0991,131.1134,135.9855)" gradientUnits="userSpaceOnUse"><stop id="SvgjsStop3547-0" offset="0" stop-color="#fff" stop-opacity="1"/><stop id="SvgjsStop3548-6" offset="1" stop-color="#fff" stop-opacity="0"/></radialGradient><radialGradient id="SvgjsRadialGradient3565-7" cx="-568.654" cy="-521.042" r="59.752" class="svga-on-canvas-eyesiris-gradient-right-1" gradientTransform="matrix(0.096,-0.0248,0.0245,0.0961,193.2804,119.9894)" gradientUnits="userSpaceOnUse"><stop id="SvgjsStop3566-9" offset="0" stop-color="#fff" stop-opacity="1"/><stop id="SvgjsStop3567-2" offset="1" stop-color="#fff" stop-opacity="0"/></radialGradient><radialGradient id="SvgjsRadialGradient3569-0" cx="-582.833" cy="-519.102" r="59.747" class="svga-on-canvas-eyesiris-gradient-right-2" gradientTransform="matrix(0.0991,8.856319e-4,-0.0011,0.0991,183.1126,135.9856)" gradientUnits="userSpaceOnUse"><stop id="SvgjsStop3570-2" offset="0" stop-color="#fff" stop-opacity="1"/><stop id="SvgjsStop3571-3" offset="1" stop-color="#fff" stop-opacity="0"/></radialGradient><radialGradient id="SvgjsRadialGradient3619-2" cx="125.903" cy="85.096" r="13.25" class="svga-on-canvas-eyesback-gradient-left-0" gradientTransform="matrix(-1.0996,0.0423,0.0635,0.9207,206.5488,0.5932)" gradientUnits="userSpaceOnUse"><stop id="SvgjsStop3620-8" offset="0" stop-color="#fff" stop-opacity="1"/><stop id="SvgjsStop3621-9" offset=".544" stop-color="#fdfefe" stop-opacity="1"/><stop id="SvgjsStop3622-7" offset=".74" stop-color="#f6f8f9" stop-opacity="1"/><stop id="SvgjsStop3623-3" offset=".879" stop-color="#eaeff2" stop-opacity="1"/><stop id="SvgjsStop3624-6" offset=".992" stop-color="#d9e3e8" stop-opacity="1"/><stop id="SvgjsStop3625-1" offset="1" stop-color="#d8e2e7" stop-opacity="1"/></radialGradient><radialGradient id="SvgjsRadialGradient3627-2" cx="125.541" cy="85.113" r="13.249" class="svga-on-canvas-eyesback-gradient-right-0" gradientTransform="matrix(1.0996,0.0423,-0.0635,0.9207,-6.5488,0.5932)" gradientUnits="userSpaceOnUse"><stop id="SvgjsStop3628-9" offset="0" stop-color="#fff" stop-opacity="1"/><stop id="SvgjsStop3629-3" offset=".544" stop-color="#fdfefe" stop-opacity="1"/><stop id="SvgjsStop3630-1" offset=".74" stop-color="#f6f8f9" stop-opacity="1"/><stop id="SvgjsStop3631-9" offset=".879" stop-color="#eaeff2" stop-opacity="1"/><stop id="SvgjsStop3632-4" offset=".992" stop-color="#d9e3e8" stop-opacity="1"/><stop id="SvgjsStop3633-7" offset="1" stop-color="#d8e2e7" stop-opacity="1"/></radialGradient><radialGradient id="SvgjsRadialGradient3635-8" cx="125.903" cy="85.096" r="13.25" class="svga-on-canvas-eyesfront-gradient-left-0" gradientTransform="matrix(-1.0996,0.0423,0.0635,0.9207,206.5488,0.5932)" gradientUnits="userSpaceOnUse"><stop id="SvgjsStop3636-4" offset="0" stop-color="#fff" stop-opacity="1"/><stop id="SvgjsStop3637-5" offset=".544" stop-color="#fdfefe" stop-opacity="1"/><stop id="SvgjsStop3638-0" offset=".74" stop-color="#f6f8f9" stop-opacity="1"/><stop id="SvgjsStop3639-3" offset=".879" stop-color="#eaeff2" stop-opacity="1"/><stop id="SvgjsStop3640-6" offset=".992" stop-color="#d9e3e8" stop-opacity="1"/><stop id="SvgjsStop3641-1" offset="1" stop-color="#d8e2e7" stop-opacity="1"/></radialGradient><radialGradient id="SvgjsRadialGradient3645-0" cx="123.371" cy="81.442" r="17.038" class="svga-on-canvas-eyesfront-gradient-left-3" fx="136.805" fy="80.36" gradientTransform="matrix(0.9884,0.1367,0.1336,-0.7354,-56.0677,125.3)" gradientUnits="userSpaceOnUse"><stop id="SvgjsStop3646-6" offset="0" stop-color="#a4532d" stop-opacity="1"/><stop id="SvgjsStop3647-3" offset=".7" stop-color="#a4532d" stop-opacity=".3"/><stop id="SvgjsStop3648-2" offset="1" stop-color="#b36743" stop-opacity="0"/></radialGradient><radialGradient id="SvgjsRadialGradient3650-0" cx="78.965" cy="81.143" r="26.237" class="svga-on-canvas-eyesfront-gradient-left-4" gradientTransform="matrix(0.7183,-0.06,0.0803,0.6143,8.7915,49.2595)" gradientUnits="userSpaceOnUse"><stop id="SvgjsStop3651-6" offset=".95" stop-color="#000" stop-opacity="0"/><stop id="SvgjsStop3652-1" offset="1" stop-color="#000" stop-opacity=".2"/></radialGradient><radialGradient id="SvgjsRadialGradient3656-5" cx="125.541" cy="85.113" r="13.249" class="svga-on-canvas-eyesfront-gradient-right-0" gradientTransform="matrix(1.0996,0.0423,-0.0635,0.9207,-6.5488,0.5932)" gradientUnits="userSpaceOnUse"><stop id="SvgjsStop3657-5" offset="0" stop-color="#fff" stop-opacity="1"/><stop id="SvgjsStop3658-4" offset=".544" stop-color="#fdfefe" stop-opacity="1"/><stop id="SvgjsStop3659-7" offset=".74" stop-color="#f6f8f9" stop-opacity="1"/><stop id="SvgjsStop3660-6" offset=".879" stop-color="#eaeff2" stop-opacity="1"/><stop id="SvgjsStop3661-5" offset=".992" stop-color="#d9e3e8" stop-opacity="1"/><stop id="SvgjsStop3662-6" offset="1" stop-color="#d8e2e7" stop-opacity="1"/></radialGradient><radialGradient id="SvgjsRadialGradient3666-9" cx="122.972" cy="81.425" r="17.037" class="svga-on-canvas-eyesfront-gradient-right-3" fx="136.406" fy="80.344" gradientTransform="matrix(-0.9884,0.1367,-0.1336,-0.7354,255.271,125.3424)" gradientUnits="userSpaceOnUse"><stop id="SvgjsStop3667-3" offset="0" stop-color="#a4532d" stop-opacity="1"/><stop id="SvgjsStop3668-7" offset=".7" stop-color="#a4532d" stop-opacity=".3"/><stop id="SvgjsStop3669-4" offset="1" stop-color="#b36743" stop-opacity="0"/></radialGradient><radialGradient id="SvgjsRadialGradient3671-5" cx="79.515" cy="81.186" r="26.237" class="svga-on-canvas-eyesfront-gradient-right-4" gradientTransform="matrix(-0.7183,-0.06,-0.0803,0.6143,191.2076,49.2665)" gradientUnits="userSpaceOnUse"><stop id="SvgjsStop3672-2" offset=".95" stop-color="#000" stop-opacity="0"/><stop id="SvgjsStop3673-5" offset="1" stop-color="#000" stop-opacity=".2"/></radialGradient><radialGradient id="SvgjsRadialGradient3619-3-68" cx="125.903" cy="85.096" r="13.25" class="svga-on-canvas-eyesback-gradient-left-0" gradientTransform="matrix(-1.0996,0.0423,0.0635,0.9207,206.5488,0.5932)" gradientUnits="userSpaceOnUse"><stop id="SvgjsStop3620-5-8" offset="0" stop-color="#fff" stop-opacity="1"/><stop id="SvgjsStop3621-6-4" offset=".544" stop-color="#fdfefe" stop-opacity="1"/><stop id="SvgjsStop3622-2-3" offset=".74" stop-color="#f6f8f9" stop-opacity="1"/><stop id="SvgjsStop3623-9-1" offset=".879" stop-color="#eaeff2" stop-opacity="1"/><stop id="SvgjsStop3624-1-4" offset=".992" stop-color="#d9e3e8" stop-opacity="1"/><stop id="SvgjsStop3625-2-9" offset="1" stop-color="#d8e2e7" stop-opacity="1"/></radialGradient><radialGradient id="SvgjsRadialGradient3645-9-2" cx="123.371" cy="81.442" r="17.038" class="svga-on-canvas-eyesfront-gradient-left-3" fx="136.805" fy="80.36" gradientTransform="matrix(0.9884,0.1367,0.1336,-0.7354,-56.0677,125.3)" gradientUnits="userSpaceOnUse"><stop id="SvgjsStop3646-3-06" offset="0" stop-color="#a4532d" stop-opacity="1"/><stop id="SvgjsStop3647-6-8" offset=".7" stop-color="#a4532d" stop-opacity=".3"/><stop id="SvgjsStop3648-0-9" offset="1" stop-color="#b36743" stop-opacity="0"/></radialGradient><radialGradient id="SvgjsRadialGradient3650-6-2" cx="78.965" cy="81.143" r="26.237" class="svga-on-canvas-eyesfront-gradient-left-4" gradientTransform="matrix(0.7183,-0.06,0.0803,0.6143,8.7915,49.2595)" gradientUnits="userSpaceOnUse"><stop id="SvgjsStop3651-2-6" offset=".95" stop-color="#000" stop-opacity="0"/><stop id="SvgjsStop3652-6-6" offset="1" stop-color="#000" stop-opacity=".2"/></radialGradient><radialGradient id="SvgjsRadialGradient3627-1-4" cx="125.541" cy="85.113" r="13.249" class="svga-on-canvas-eyesback-gradient-right-0" gradientTransform="matrix(1.0996,0.0423,-0.0635,0.9207,-6.5488,0.5932)" gradientUnits="userSpaceOnUse"><stop id="SvgjsStop3628-8-95" offset="0" stop-color="#fff" stop-opacity="1"/><stop id="SvgjsStop3629-7-0" offset=".544" stop-color="#fdfefe" stop-opacity="1"/><stop id="SvgjsStop3630-9-4" offset=".74" stop-color="#f6f8f9" stop-opacity="1"/><stop id="SvgjsStop3631-2-8" offset=".879" stop-color="#eaeff2" stop-opacity="1"/><stop id="SvgjsStop3632-0-7" offset=".992" stop-color="#d9e3e8" stop-opacity="1"/><stop id="SvgjsStop3633-2-1" offset="1" stop-color="#d8e2e7" stop-opacity="1"/></radialGradient><radialGradient id="SvgjsRadialGradient3666-5-7" cx="122.972" cy="81.425" r="17.037" class="svga-on-canvas-eyesfront-gradient-right-3" fx="136.406" fy="80.344" gradientTransform="matrix(-0.9884,0.1367,-0.1336,-0.7354,255.271,125.3424)" gradientUnits="userSpaceOnUse"><stop id="SvgjsStop3667-9-27" offset="0" stop-color="#a4532d" stop-opacity="1"/><stop id="SvgjsStop3668-2-2" offset=".7" stop-color="#a4532d" stop-opacity=".3"/><stop id="SvgjsStop3669-2-2" offset="1" stop-color="#b36743" stop-opacity="0"/></radialGradient><radialGradient id="SvgjsRadialGradient3671-8-6" cx="79.515" cy="81.186" r="26.237" class="svga-on-canvas-eyesfront-gradient-right-4" gradientTransform="matrix(-0.7183,-0.06,-0.0803,0.6143,191.2076,49.2665)" gradientUnits="userSpaceOnUse"><stop id="SvgjsStop3672-9-1" offset=".95" stop-color="#000" stop-opacity="0"/><stop id="SvgjsStop3673-7-0" offset="1" stop-color="#000" stop-opacity=".2"/></radialGradient><radialGradient id="SvgjsRadialGradient2907-3-6" cx="100" cy="114" r="41" class="svga-on-canvas-facehighlight-gradient-single-0" gradientUnits="userSpaceOnUse"><stop id="SvgjsStop2908-6-1" offset="0" stop-color="#c27d5c" stop-opacity=".5"/><stop id="SvgjsStop2909-1-5" offset=".9" stop-color="#b36743" stop-opacity="0"/></radialGradient><radialGradient id="SvgjsRadialGradient2911-2-9" cx="100" cy="54" r="37" class="svga-on-canvas-facehighlight-gradient-single-1" gradientUnits="userSpaceOnUse"><stop id="SvgjsStop2912-9-4" offset="0" stop-color="#c27d5c" stop-opacity=".5"/><stop id="SvgjsStop2913-3-9" offset=".9" stop-color="#b36743" stop-opacity="0"/></radialGradient><clipPath id="clipPath5319-0" clipPathUnits="userSpaceOnUse"><rect id="rect5321-9" width="181.436" height="214.873" x="50.154" y="-18.325" style="stroke-width:.33333334"/></clipPath><clipPath id="clipPath236-1" clipPathUnits="userSpaceOnUse"><circle id="circle238-77" cx="142.516" cy="89.385" r="108.807" style="stroke-width:.34283248"/></clipPath><clipPath id="clipPath236-3-1" clipPathUnits="userSpaceOnUse"><circle id="circle238-6-1" cx="142.516" cy="89.385" r="108.807" style="stroke-width:.34283248"/></clipPath><radialGradient id="SvgjsRadialGradient3619-3-6-5" cx="125.903" cy="85.096" r="13.25" class="svga-on-canvas-eyesback-gradient-left-0" gradientTransform="matrix(-1.0996,0.0423,0.0635,0.9207,206.5488,0.5932)" gradientUnits="userSpaceOnUse"><stop id="SvgjsStop3620-5-2-9" offset="0" stop-color="#fff" stop-opacity="1"/><stop id="SvgjsStop3621-6-9-7" offset=".544" stop-color="#fdfefe" stop-opacity="1"/><stop id="SvgjsStop3622-2-1-7" offset=".74" stop-color="#f6f8f9" stop-opacity="1"/><stop id="SvgjsStop3623-9-2-6" offset=".879" stop-color="#eaeff2" stop-opacity="1"/><stop id="SvgjsStop3624-1-7-7" offset=".992" stop-color="#d9e3e8" stop-opacity="1"/><stop id="SvgjsStop3625-2-0-3" offset="1" stop-color="#d8e2e7" stop-opacity="1"/></radialGradient><radialGradient id="SvgjsRadialGradient3645-9-6-6" cx="123.371" cy="81.442" r="17.038" class="svga-on-canvas-eyesfront-gradient-left-3" fx="136.805" fy="80.36" gradientTransform="matrix(0.9884,0.1367,0.1336,-0.7354,-56.0677,125.3)" gradientUnits="userSpaceOnUse"><stop id="SvgjsStop3646-3-0-5" offset="0" stop-color="#a4532d" stop-opacity="1"/><stop id="SvgjsStop3647-6-6-6" offset=".7" stop-color="#a4532d" stop-opacity=".3"/><stop id="SvgjsStop3648-0-2-3" offset="1" stop-color="#b36743" stop-opacity="0"/></radialGradient><radialGradient id="SvgjsRadialGradient3650-6-6-9" cx="78.965" cy="81.143" r="26.237" class="svga-on-canvas-eyesfront-gradient-left-4" gradientTransform="matrix(0.7183,-0.06,0.0803,0.6143,8.7915,49.2595)" gradientUnits="userSpaceOnUse"><stop id="SvgjsStop3651-2-1-4" offset=".95" stop-color="#000" stop-opacity="0"/><stop id="SvgjsStop3652-6-8-8" offset="1" stop-color="#000" stop-opacity=".2"/></radialGradient><radialGradient id="SvgjsRadialGradient3627-1-7-1" cx="125.541" cy="85.113" r="13.249" class="svga-on-canvas-eyesback-gradient-right-0" gradientTransform="matrix(1.0996,0.0423,-0.0635,0.9207,-6.5488,0.5932)" gradientUnits="userSpaceOnUse"><stop id="SvgjsStop3628-8-9-2" offset="0" stop-color="#fff" stop-opacity="1"/><stop id="SvgjsStop3629-7-2-9" offset=".544" stop-color="#fdfefe" stop-opacity="1"/><stop id="SvgjsStop3630-9-0-3" offset=".74" stop-color="#f6f8f9" stop-opacity="1"/><stop id="SvgjsStop3631-2-2-9" offset=".879" stop-color="#eaeff2" stop-opacity="1"/><stop id="SvgjsStop3632-0-3-0" offset=".992" stop-color="#d9e3e8" stop-opacity="1"/><stop id="SvgjsStop3633-2-7-8" offset="1" stop-color="#d8e2e7" stop-opacity="1"/></radialGradient><radialGradient id="SvgjsRadialGradient3666-5-2-8" cx="122.972" cy="81.425" r="17.037" class="svga-on-canvas-eyesfront-gradient-right-3" fx="136.406" fy="80.344" gradientTransform="matrix(-0.9884,0.1367,-0.1336,-0.7354,255.271,125.3424)" gradientUnits="userSpaceOnUse"><stop id="SvgjsStop3667-9-2-5" offset="0" stop-color="#a4532d" stop-opacity="1"/><stop id="SvgjsStop3668-2-8-0" offset=".7" stop-color="#a4532d" stop-opacity=".3"/><stop id="SvgjsStop3669-2-9-9" offset="1" stop-color="#b36743" stop-opacity="0"/></radialGradient><radialGradient id="SvgjsRadialGradient3671-8-7-6" cx="79.515" cy="81.186" r="26.237" class="svga-on-canvas-eyesfront-gradient-right-4" gradientTransform="matrix(-0.7183,-0.06,-0.0803,0.6143,191.2076,49.2665)" gradientUnits="userSpaceOnUse"><stop id="SvgjsStop3672-9-3-3" offset=".95" stop-color="#000" stop-opacity="0"/><stop id="SvgjsStop3673-7-6-8" offset="1" stop-color="#000" stop-opacity=".2"/></radialGradient><clipPath id="clipPath10844-6" clipPathUnits="userSpaceOnUse"><path id="path10842-1" d="M 0,500 H 500 V 0 H 0 Z"/></clipPath><clipPath id="clipPath11054-1" clipPathUnits="userSpaceOnUse"><path id="path11052-5" d="M 0,500 H 500 V 0 H 0 Z"/></clipPath><filter id="filter2042" style="color-interpolation-filters:sRGB"><feColorMatrix id="feColorMatrix2040" values="1.2 0 0 0.11 -0.1 0 1.2 0 0.11 -0.1 0 0 1.2 0.11 -0.1 0 0 0 1 0"/></filter><filter id="filter2046" style="color-interpolation-filters:sRGB"><feColorMatrix id="feColorMatrix2044" values="1.2 0 0 0.11 -0.1 0 1.2 0 0.11 -0.1 0 0 1.2 0.11 -0.1 0 0 0 1 0"/></filter><filter id="filter2050" style="color-interpolation-filters:sRGB"><feColorMatrix id="feColorMatrix2048" values="1.2 0 0 0.11 -0.1 0 1.2 0 0.11 -0.1 0 0 1.2 0.11 -0.1 0 0 0 1 0"/></filter><filter id="filter2054" style="color-interpolation-filters:sRGB"><feColorMatrix id="feColorMatrix2052" values="1.2 0 0 0.11 -0.1 0 1.2 0 0.11 -0.1 0 0 1.2 0.11 -0.1 0 0 0 1 0"/></filter><filter id="filter2058" style="color-interpolation-filters:sRGB"><feColorMatrix id="feColorMatrix2056" values="1.2 0 0 0.11 -0.1 0 1.2 0 0.11 -0.1 0 0 1.2 0.11 -0.1 0 0 0 1 0"/></filter><filter id="filter2066" style="color-interpolation-filters:sRGB"><feColorMatrix id="feColorMatrix2064" values="1.2 0 0 0.11 -0.1 0 1.2 0 0.11 -0.1 0 0 1.2 0.11 -0.1 0 0 0 1 0"/></filter><filter id="filter2070" style="color-interpolation-filters:sRGB"><feColorMatrix id="feColorMatrix2068" values="1.2 0 0 0.11 -0.1 0 1.2 0 0.11 -0.1 0 0 1.2 0.11 -0.1 0 0 0 1 0"/></filter><filter id="filter2074" style="color-interpolation-filters:sRGB"><feColorMatrix id="feColorMatrix2072" values="1.2 0 0 0.11 -0.1 0 1.2 0 0.11 -0.1 0 0 1.2 0.11 -0.1 0 0 0 1 0"/></filter><filter id="filter2078" style="color-interpolation-filters:sRGB"><feColorMatrix id="feColorMatrix2076" values="1.2 0 0 0.11 -0.1 0 1.2 0 0.11 -0.1 0 0 1.2 0.11 -0.1 0 0 0 1 0"/></filter><filter id="filter2082" style="color-interpolation-filters:sRGB"><feColorMatrix id="feColorMatrix2080" values="1.2 0 0 0.11 -0.1 0 1.2 0 0.11 -0.1 0 0 1.2 0.11 -0.1 0 0 0 1 0"/></filter><filter id="filter2086" style="color-interpolation-filters:sRGB"><feColorMatrix id="feColorMatrix2084" values="1.2 0 0 0.11 -0.1 0 1.2 0 0.11 -0.1 0 0 1.2 0.11 -0.1 0 0 0 1 0"/></filter><filter id="filter2090" style="color-interpolation-filters:sRGB"><feColorMatrix id="feColorMatrix2088" values="1.2 0 0 0.11 -0.1 0 1.2 0 0.11 -0.1 0 0 1.2 0.11 -0.1 0 0 0 1 0"/></filter><filter id="filter2094" style="color-interpolation-filters:sRGB"><feColorMatrix id="feColorMatrix2092" values="1.2 0 0 0.11 -0.1 0 1.2 0 0.11 -0.1 0 0 1.2 0.11 -0.1 0 0 0 1 0"/></filter><filter id="filter2098" style="color-interpolation-filters:sRGB"><feColorMatrix id="feColorMatrix2096" values="1.2 0 0 0.11 -0.1 0 1.2 0 0.11 -0.1 0 0 1.2 0.11 -0.1 0 0 0 1 0"/></filter><filter id="filter2102" style="color-interpolation-filters:sRGB"><feColorMatrix id="feColorMatrix2100" values="1.2 0 0 0.11 -0.1 0 1.2 0 0.11 -0.1 0 0 1.2 0.11 -0.1 0 0 0 1 0"/></filter><filter id="filter2106" style="color-interpolation-filters:sRGB"><feColorMatrix id="feColorMatrix2104" values="1.2 0 0 0.11 -0.1 0 1.2 0 0.11 -0.1 0 0 1.2 0.11 -0.1 0 0 0 1 0"/></filter></defs><g style="display:inline;opacity:1" id="layer2" transform="translate(0.29706019,-10.814047)"><g id="g943" clip-path="url(#clipPath945)" transform="matrix(1.1120263,0,0,1.1120263,-13.877191,-15.364529)"><g id="svga-group-hair-back" transform="matrix(-0.73099959,0,0,0.73099959,183.84608,29.838488)"><path style="opacity:1;fill:#1b141c" id="SvgjsPath3910" stroke-width="none" d="m 38.058,105.866 c -4.527,-10.708 -3.86,-15.133 -2.654,-23.504 -2.078,2.251 -3.322,5.27 -6.713,8.063 0.263,-2.006 4.269,-13.639 4.587,-14.493 -3.844,3.504 -5.969,4.251 -7.809,4.972 1.242,-1.853 2.066,-4.007 3.9,-7.933 h 11.529 c 0.231,4.281 1.066,9.569 2.312,14.214 -0.659,0.437 -2.391,3.18 -5.152,18.681 z M 158.91,74.599 c -0.047,3.839 -1.342,11.034 -2.908,15.869 0.805,0.541 1.743,1.173 1.539,1.009 5.951,4.778 6.908,5.603 7.514,13.386 4.324,-9.33 0.656,-21.307 0.439,-30.263 h -6.584 z m 6.592,0 h 4.441 c -0.582,1.969 -1.936,4.788 -3.422,6.633 -0.558,-2.165 -0.865,-5.246 -1.019,-6.633 z"/><path style="opacity:1;vector-effect:none;fill:#000;fill-opacity:1;stroke-width:1.40960205;stroke-linecap:butt;stroke-linejoin:miter;stroke-miterlimit:4;stroke-dasharray:none;stroke-dashoffset:0;stroke-opacity:1" id="SvgjsPath3911" d="m 34.21,74.635 c -3.399,8.93 -3.599,11.16 -5.399,15.54 2.85,-2.348 4.987,-6.981 6.9,-8.22 -0.33,3.02 -1.9,9.12 -0.15,15.8 0.66,2.53 1.5,4.98 2.511,7.37 0.26,-3.56 0.79,-13.93 4.079,-17.08 -2.26,5.95 -3.55,13.73 -3.55,19.8 -6.41,-11.17 -4.939,-17.3 -3.43,-25.09 -2.34,2.67 -3,6.01 -7.49,8.73 1.53,-3.23 2.021,-7.07 5.19,-14.94 -2.63,2.63 -4.4,3.68 -7.91,4.72 1.318,-2.181 2.478,-4.946 3.497,-7.194 h 1.082 c -0.999,2.154 -2.031,4.326 -3.289,6.204 2.63,-1.03 5.149,-2.95 7.959,-5.64 z m 121.792,15.833 c 0.216,0.149 1.676,1.152 2.332,1.728 2.736,2.402 6.264,4.594 6.018,15.28 4.543,-7.848 3.954,-19.464 2.539,-25.79 2.017,-2.169 3.379,-4.842 4.074,-7.094 l -1.203,-0.011 c -0.582,1.969 -1.655,4.34 -3.141,6.185 -0.56,-2.165 -0.865,-4.579 -1.019,-5.966 l -0.108,-0.2 c 0.217,8.956 3.115,19.588 -0.243,29.516 -0.606,-7.783 -2.41,-9.201 -9.249,-13.648 z"/></g><path style="opacity:1;fill:#965738;fill-opacity:1;stroke:none;stroke-width:1.4010309;filter:url(#filter317)" id="SvgjsPath2914" d="m -27.78874,223.26897 c 3.88282,-5.26871 14.48997,-13.0763 26.2747004,-15.2333 14.5677996,-2.66766 14.1184866,-5.8926 26.3116666,-7.68547 9.77434,-1.43874 29.46093,-12.53788 36.36023,-16.26349 1.2377,-0.66609 6.25084,-2.04155 6.27561,-3.06398 0.24576,-12.06053 -2.89798,-43.71146 -2.89798,-43.71146 l 43.054013,-0.3876 h 46.90494 c 0,0 -7.66316,32.03742 -7.41386,44.09906 0.0197,1.02243 5.7046,2.39789 6.93875,3.06398 6.89934,3.72561 26.58589,14.82475 36.36024,16.26349 12.19493,1.79287 45.07898,5.12772 59.64501,7.79538 9.46267,4.28766 9.17558,7.88568 13.05843,13.15439 6.5563,8.88996 -3.85111,26.94473 -3.85111,40.82144 l -151.6424,10e-4 H -35.89218 c 0,-13.8756 1.55067,-29.9637 8.10344,-38.85366 z" transform="matrix(0.65847733,0,0,0.65847733,39.781613,28.858583)"/><path style="opacity:1;fill:#c27d5c;stroke:none;stroke-width:1.4021821;filter:url(#filter317)" id="SvgjsPath2915" d="m 2.9927867,205.72283 c -43.0403097,3.93856 -34.4865327,9.68297 -40.1587727,56.3998 h -5.39286 c 0,-13.89953 1.55067,-30.01408 8.10344,-38.91865 3.88282,-5.27737 14.48997,-13.09779 26.2746997,-15.25834 14.5678,-2.67204 20.7851533,-5.90229 32.9783333,-7.69811 9.77434,-1.4411 32.2546,-13.42025 38.26807,-18.18056 -5.94098,5.23067 -22.61642,17.35215 -37.22664,20.5268 -6.98947,1.51894 -12.81024,2.21058 -22.8462703,3.12906 z M 189.33813,202.59377 c -14.61022,-3.17354 -31.28387,-15.29613 -37.22664,-20.5268 6.01172,4.7592 28.49197,16.73946 38.26808,18.18056 12.19316,1.79582 45.07722,5.13615 59.64501,7.8082 11.78471,2.15942 -2.77897,9.86966 1.10388,15.14703 6.55277,8.90457 8.10344,25.01912 8.10344,38.91865 v 0 c 7.51862,-41.21035 -4.04786,-52.46557 -47.0475,-56.39969 -10.03425,-0.91737 -15.85677,-1.60901 -22.84627,-3.12795 z" transform="matrix(0.65847733,0,0,0.65847733,39.781613,28.858583)"/><path style="opacity:1;fill:#a4532d;stroke:none;stroke-width:.92330515" id="SvgjsPath2916" d="m 115.69617,174.25252 c 0,0 5.90757,-1.17811 8.24661,-1.74191 12.16565,-2.93539 51.68852,-4.83766 51.68852,-4.83766 0,0 -41.6279,1.039 -50.81413,2.0348 0.53324,-3.49041 3.51265,-14.64696 3.51265,-14.64696 0,0 -5.9949,12.31197 -7.46191,15.41796 -0.78474,1.66063 -5.17174,3.77377 -5.17174,3.77377 z m -12.57315,-0.98262 c 0.10367,0.0535 0.22236,0.12301 0.35162,0.19624 -0.13157,-0.0622 -0.25033,-0.12741 -0.35162,-0.19624 z m 12.57315,0.98262 c 0,0 -3.36829,2.19075 -5.06115,2.21857 -2.2238,0.0373 -5.62119,-2.12265 -7.16156,-3.00495 1.47285,0.70072 4.84228,1.01849 6.18238,1.05144 1.54851,0.0373 6.04033,-0.26506 6.04033,-0.26506 z m -24.470991,-5.50543 c 1.798808,0.18159 5.106551,0.57771 5.106551,0.57771 l -2.662731,-10.90248 c 0.752146,2.24859 5.209023,11.86973 9.454021,14.84758 -2.22378,-1.18323 -7.169671,-1.75068 -9.691514,-1.97987 -11.91765,-1.08658 -11.913007,-1.08585 -47.807963,-3.61708 0,0 33.846999,-0.11349 45.601636,1.07414 z"/><path style="opacity:1;fill:none;stroke:#85310a;stroke-width:2.10154629;filter:url(#filter317)" id="SvgjsPath2917" d="m -34.455406,223.26897 c 3.88282,-5.26871 21.738032,-16.37087 33.52276186,-18.52787 14.56780014,-2.66766 13.53709114,-2.59803 25.73027114,-4.3909 9.77434,-1.43874 29.46093,-12.53788 36.36023,-16.26349 1.2377,-0.66609 6.25084,-2.04155 6.27561,-3.06398 0.24576,-12.06053 -4.89798,-43.71146 -4.89798,-43.71146 l 45.054013,-0.3876 45.43983,0.1938 c 0,0 -5.53138,31.84362 -5.28208,43.90526 0.0197,1.02243 5.03793,2.39789 6.27208,3.06398 6.89934,3.72561 26.58589,14.82475 36.36024,16.26349 12.19493,1.79287 44.10999,6.87191 58.67602,9.53957 11.78825,2.15588 9.69749,3.25506 13.58034,8.52377 6.5563,8.88996 -1.55278,30.57107 -1.55278,44.44778 L 107.5895,262.12263 H -42.558846 c 0,-13.8756 1.55067,-29.9637 8.10344,-38.85366 z" transform="matrix(0.65847733,0,0,0.65847733,39.781613,28.858583)"/><path style="opacity:1;vector-effect:none;fill:url(#linearGradient2317);fill-opacity:1;stroke-width:1.25874734;stroke-linecap:butt;stroke-linejoin:miter;stroke-miterlimit:4;stroke-dasharray:none;stroke-dashoffset:0;stroke-opacity:1;filter:url(#filter2098)" id="SvgjsPath3961" d="m 84.268097,148.44172 c 0.02978,-0.12792 -0.402494,-0.57095 0.05427,-0.37646 0.09996,-5.39478 -1.036405,-16.87521 -1.902298,-23.89565 16.70033,-1.4503 40.604341,-0.99708 57.305731,0.45836 -0.89419,7.28807 -2.81048,17.91857 -2.70836,23.3097 6e-4,0.087 -0.56814,0.30524 -0.551,0.39589 -4.06897,2.62136 -8.15603,4.77196 -11.76013,5.95838 -5.65081,1.86112 -22.37665,1.77414 -28.084925,0 -3.628557,-1.12647 -8.829695,-2.92908 -12.889097,-5.53437 z"/><path style="opacity:1;fill:#1d282e;stroke:none;stroke-width:1.4021821;filter:url(#filter317)" id="SvgjsPath3768" d="m 86.714697,263.35579 c 33.833533,0 73.492463,0.3053 120.839983,0.13296 l 40.60834,0.53596 c 6.95934,-0.0713 14.35775,0.0181 18.62132,-0.36954 -0.79689,-49.51974 -11.0913,-55.19809 -56.4123,-63.85096 -13.77212,-1.21982 -27.31615,-3.44374 -37.94272,-7.75259 -28.86861,24.73335 -114.595573,19.52826 -129.257073,-0.69943 -2.45773,0.58935 -4.48932,1.35104 -7.03193,1.92815 -8.2502,3.81735 -19.57696,6.48939 -31.1689703,6.89304 -21.1798377,6.25349 -49.8727737,14.45105 -49.2327137,60.75757 -0.005,0.18348 -0.007,1.97323 0.0229,2.3235 22.12484,0 35.0894374,-0.53212 52.4668274,-0.37534 23.5712096,0.21128 19.5750166,0.47481 78.4650166,0.47481 0.0111,10e-4 0.0137,10e-4 0.0212,10e-4 z" transform="matrix(0.65847733,0,0,0.65847733,39.781613,28.858583)"/><path style="opacity:1;fill:#2d373d;stroke:none;stroke-width:1.4021821;filter:url(#filter317)" id="SvgjsPath3769" d="m -44.424246,261.96806 c 0.72494,-8.21183 7.18577,-31.1994 18.31802,-41.74414 22.0700697,-20.91044 48.055363,-13.5726 60.206093,-21.89786 8.816,11.29642 44.15955,18.453 55.86294,19.50381 -33.91487,-7.07208 -48.1591,-12.18599 -53.78715,-24.3186 -11.32499,9.26264 -45.9583233,2.19167 -70.081173,27.05513 -7.06376,7.28002 -13.78095,30.45217 -10.51873,41.40166 z M 185.72226,198.57292 c -2.39939,-0.35028 -3.59642,-1.38885 -5.97813,-1.79471 l 2.5214,-2.10272 c 15.99998,7.84156 59.84218,-0.0479 80.3704,23.73805 4.82523,7.49574 -1.55278,44.44778 -1.55278,44.44778 -0.9495,-9.32268 5.78039,-34.93336 -5.35189,-45.47919 -18.92624,-14.859 -38.73573,-9.22522 -66.39844,-17.2558 -12.34698,9.56287 -31.62867,14.26425 -51.24808,16.20906 24.61445,-4.03753 38.72782,-10.85497 47.63752,-17.76247 z" transform="matrix(0.65847733,0,0,0.65847733,39.781613,28.858583)"/><path style="opacity:1;fill:#101a1f;stroke:none;stroke-width:.92330515" id="SvgjsPath3770" d="m 69.515886,156.40438 c 6.440843,8.43056 55.128984,18.24866 82.582864,0.6436 1.70684,0.45543 6.8134,1.54641 6.8134,1.54641 -19.9978,17.12327 -78.602181,17.23163 -94.201272,-0.0835 0.06872,-0.0168 3.219249,-1.59986 4.805008,-2.10654 z"/><path style="opacity:1;vector-effect:none;fill:#000;fill-opacity:1;stroke:none;stroke-width:1.56485045;stroke-linecap:butt;stroke-linejoin:miter;stroke-miterlimit:4;stroke-dasharray:none;stroke-dashoffset:0;stroke-opacity:1;filter:url(#filter317)" id="SvgjsPath3771" d="m 43.264187,191.20507 c 16.64362,20.92933 103.254653,23.89048 129.096183,0.70276 9.43659,1.75468 18.51075,5.49419 27.64678,6.42936 47.12753,4.82671 65.68998,5.99265 67.46872,33.74359 0.49637,7.74399 0.49509,19.11878 -0.69153,31.57439 -17.57541,0 32.84568,-0.7453 -59.41992,-0.43393 -218.525663,0.7895 -184.736867,0.15406 -253.772526,0.15406 -0.0512,-0.15568 -0.0265,-2.28124 -0.0371,-2.44136 2.107904,-50.54535 27.884303,-59.0496 67.257453,-63.37624 5.55907,-0.79839 10.72561,-3.08347 15.26798,-4.38668 2.50901,-0.72167 4.6414,-1.36994 7.18399,-1.96595 z m 129.722093,1.4044 c -22.93998,26.01101 -113.548813,20.79257 -131.042903,0.11225 -2.12178,0.56043 -2.6646,0.78283 -5.1241,1.331 18.12001,23.89496 107.754583,31.50967 144.417183,1.29323 -0.25814,-0.0456 -5.66514,-2.12717 -8.25018,-2.73654 z m 91.27868,70.5612 c 1.08415,-45.72613 0.39501,-54.19135 -45.91887,-60.36674 -18.16951,-2.10828 -19.68274,-2.18166 -35.2902,-6.4427 -29.6395,30.4733 -127.480073,25.7508 -147.813793,-1.45111 -2.92098,1.56675 -7.47576,3.36924 -13.09316,4.20877 -25.7984099,7.10591 -63.512207,1.33148 -66.864953,63.00152 95.58092,-0.7806 98.219035,-1.05605 280.692106,1.55139 z" transform="matrix(0.65847733,0,0,0.65847733,39.781613,28.858583)"/><g id="svga-group-ears-left-move" transform="matrix(-0.70823833,0.16541267,0.18099409,0.64726755,166.94633,25.21428)"><g id="svga-group-ears-left" transform="matrix(0.9499999,0,0,0.9499999,2.1253215,4.8499778)"><path style="opacity:1;fill:#b36743;stroke:#85310a;stroke-width:1.5;filter:url(#filter2042)" id="SvgjsPath3772" d="m 47.34,82.506 c -1.378,-2.405 -9.403,-6.675 -11.855,-6.501 -4.229,0.299 -5.137,5.269 -5.446,7.648 -0.609,4.696 0.645,10 1.485,13.201 0.687,2.615 2.874,7.578 4.214,9.883 1.197,2.062 4.145,5.792 5.733,7.525 1.398,1.529 4.73,4.311 7.248,3.632 2.769,-0.744 6.015,-3.945 6.239,-5.312 1.207,-7.41 -4.032,-23.819 -7.618,-30.076 z"/><path style="opacity:1;fill:#85310a;stroke:none" id="SvgjsPath3773" stroke-width="none" d="m 42.903,99.38 c -0.142,-0.584 0.007,-1.569 0.151,-2.521 0.131,-0.868 0.255,-1.686 0.18,-2.265 -0.284,-2.169 -1.888,-6.29 -2.936,-8.524 -1.206,-2.568 -3.157,-5.803 -5.602,-6.639 -1.011,-0.346 -2.073,-0.522 -2.145,-0.241 -0.611,1.943 -0.563,7.341 -0.212,11.338 0.987,11.242 10.375,19.34 11.872,21.045 0.276,0.314 0.566,0.501 0.637,0.426 0.072,-0.076 -0.1,-0.388 -0.375,-0.704 -1.477,-1.692 -8.314,-8.684 -9.27,-13.098 -1.012,-4.685 3,-12.386 3.776,-13.855 0.397,0.69 0.732,1.352 0.991,1.904 0.204,0.434 0.429,0.941 0.66,1.489 -0.456,0.767 -3.656,6.36 -2.489,10.836 0.431,1.651 2.379,3.778 3.67,4.362 0.71,0.321 0.978,0.801 1.287,1.355 0.359,0.645 0.765,1.374 1.946,1.903 0.24,0.108 0.457,0.151 0.649,0.151 0.333,0 0.586,-0.135 0.773,-0.295 0.019,0.282 -0.349,2.52 -0.357,2.853 -0.012,0.431 0.045,0.787 0.146,0.796 0.101,0.008 0.207,-0.334 0.221,-0.766 0.016,-0.529 0.379,-3.061 0.289,-3.372 -0.264,-0.923 -1.073,-1.964 -1.93,-3.068 -0.841,-1.083 -1.713,-2.206 -1.932,-3.11 z m -8.475,-3.964 c -2.316,-7.184 1.456,-13.479 1.977,-14.464 0.906,0.826 1.704,1.932 2.354,3.015 -0.473,0.863 -4.233,6.617 -4.331,11.449 z m 10.759,10.415 c -1.069,-0.479 -1.427,-1.12 -1.774,-1.742 -0.313,-0.562 -0.637,-1.143 -1.458,-1.515 -0.179,-0.082 -0.375,-0.204 -0.576,-0.346 -2.646,-6.304 0.289,-9.059 1.025,-9.625 0.226,0.771 0.394,1.478 0.468,2.045 0.067,0.521 -0.058,1.348 -0.179,2.148 -0.149,0.992 -0.305,2.018 -0.144,2.681 0.239,0.989 1.137,2.146 2.005,3.263 0.771,0.993 1.562,2.015 1.832,2.849 -0.115,0.168 -0.481,0.566 -1.199,0.242 z"/></g></g><g id="svga-group-ears-right-move" transform="matrix(-0.70997059,-0.16532692,-0.17407528,0.67429007,197.4252,55.293219)"><g id="svga-group-ears-right" transform="matrix(0.9499999,0,0,0.9499999,7.8615987,4.8499778)"><path style="opacity:1;fill:#b36743;stroke:#85310a;stroke-width:1.5;filter:url(#filter2046)" id="SvgjsPath3774" d="m 152.398,82.506 c 1.377,-2.405 9.402,-6.675 11.855,-6.501 4.229,0.299 5.137,5.269 5.445,7.648 0.609,4.696 -0.645,10 -1.484,13.201 -0.688,2.615 -2.875,7.578 -4.215,9.883 -1.197,2.062 -4.145,5.792 -5.732,7.525 -1.398,1.529 -4.73,4.311 -7.248,3.632 -2.77,-0.744 -6.016,-3.945 -6.238,-5.312 -1.207,-7.41 4.032,-23.819 7.617,-30.076 z"/><path style="opacity:1;fill:#85310a;stroke:none" id="SvgjsPath3775" stroke-width="none" d="m 154.902,102.491 c -0.855,1.104 -1.666,2.146 -1.93,3.068 -0.09,0.312 0.273,2.843 0.289,3.372 0.014,0.432 0.119,0.773 0.221,0.766 0.102,-0.009 0.158,-0.365 0.146,-0.796 -0.01,-0.333 -0.377,-2.57 -0.357,-2.853 0.188,0.16 0.439,0.295 0.771,0.295 0.193,0 0.41,-0.043 0.65,-0.151 1.182,-0.53 1.588,-1.259 1.945,-1.903 0.311,-0.555 0.578,-1.034 1.287,-1.355 1.291,-0.584 3.24,-2.711 3.67,-4.362 1.168,-4.476 -2.031,-10.07 -2.488,-10.836 0.23,-0.548 0.457,-1.056 0.66,-1.489 0.26,-0.552 0.594,-1.214 0.99,-1.904 0.777,1.469 4.789,9.17 3.777,13.855 -0.955,4.415 -7.793,11.406 -9.27,13.098 -0.275,0.316 -0.447,0.628 -0.375,0.704 0.072,0.075 0.361,-0.111 0.637,-0.426 1.498,-1.705 10.885,-9.803 11.873,-21.045 0.35,-3.997 0.396,-9.395 -0.213,-11.338 -0.072,-0.281 -1.135,-0.104 -2.145,0.241 -2.445,0.836 -4.396,4.071 -5.604,6.639 -1.047,2.234 -2.65,6.354 -2.936,8.524 -0.076,0.579 0.049,1.397 0.18,2.265 0.145,0.951 0.293,1.936 0.15,2.521 -0.213,0.903 -1.086,2.026 -1.928,3.11 z m 6.077,-18.525 c 0.65,-1.083 1.449,-2.188 2.355,-3.015 0.52,0.986 4.291,7.28 1.977,14.464 -0.1,-4.831 -3.858,-10.585 -4.332,-11.449 z m -7.627,21.624 c 0.271,-0.834 1.063,-1.856 1.832,-2.849 0.869,-1.118 1.766,-2.274 2.006,-3.263 0.16,-0.663 0.006,-1.689 -0.145,-2.681 -0.121,-0.8 -0.246,-1.627 -0.178,-2.148 0.074,-0.567 0.242,-1.273 0.467,-2.045 0.736,0.566 3.672,3.321 1.025,9.625 -0.201,0.142 -0.396,0.264 -0.576,0.346 -0.82,0.372 -1.145,0.953 -1.457,1.515 -0.348,0.622 -0.705,1.263 -1.775,1.742 -0.717,0.323 -1.084,-0.075 -1.199,-0.242 z"/></g></g><g id="svga-group-beardwrap" transform="matrix(-0.73099959,0,0,0.73099959,183.84608,29.838493)"><g id="svga-group-beard-single-move"><g id="svga-group-beard-single"><path style="opacity:1;fill:#2a232b" id="SvgjsPath3042" stroke-width="none" d="M 100,18.13 Z"/></g></g></g><g id="svga-group-mustache-single-move" transform="matrix(-0.73099959,0,0,0.73099959,183.84608,29.838495)"><g id="svga-group-mustache-single"><path style="opacity:1;fill:#2a232b" id="SvgjsPath3040" stroke-width="none" d="M 100,18.13 Z"/></g></g><g id="svga-group-faceshape-wrap" transform="matrix(-0.74642146,0,0,0.76408755,186.0141,29.801532)"><g id="svga-group-faceshape-single"><path style="opacity:1;fill:#b36743;filter:url(#filter2050)" id="SvgjsPath3958" stroke-width="none" d="m 141.86694,125.82792 c -5.003,10.225 -17.90994,29.60608 -28.66394,34.43508 -5.366,2.412 -21.089,2.53 -26.401,0 C 76.156,155.196 64.589339,136.3119 59.553339,126.1029 53.940339,114.7289 41.15,78.444 41.138,78.39 c -1.3,-4.988 -1.996,-10.225 -2.004,-15.623 -0.052,-34 27.154,-61.598 60.772,-61.65 33.621,-0.053 60.913,27.457 60.963,61.456 0.009,5.4 -0.669,10.638 -1.952,15.631 -0.016,0.052 -11.45406,36.18592 -17.05006,47.62392 z"/><path style="opacity:1;fill:#ab5d38;filter:url(#filter2102)" id="SvgjsPath3959" stroke-width="none" d="m 110.152,1.982 c 26.994,6.338 47.097,30.814 47.052,60.039 -0.009,5.399 -0.704,10.635 -2.004,15.624 -0.012,0.054 -11.26959,26.61641 -15.82246,41.04989 -4.859,10.004 -18.00754,35.02611 -28.37454,40.07911 -2.163,1.055 -8.694,1.555 -11.001,1.555 -2.307,0 -8.837,-0.5 -11,-1.555 C 81.29459,151.1229 61.616971,124.44746 56.758971,114.44346 50.99619,102.37189 44.816,77.699 44.805,77.645 43.505,72.657 42.809,67.42 42.801,62.021 42.756,32.796 62.857,8.32 89.853,1.982 61.03,6.877 39.087,32.232 39.134,62.767 c 0.008,5.398 0.704,10.635 2.004,15.623 0.012,0.054 13.247159,37.241 18.878159,48.607 5.052,10.199 16.191841,28.085 26.785841,33.266 2.658,1.301 9.305,1.855 12.954,1.853 3.646,0.003 10.791,-0.552 13.447,-1.853 10.594,-5.182 24.15829,-26.55872 29.21129,-36.75872 C 146.67757,111.80426 158.856,78.444 158.866,78.39 c 1.3,-4.988 1.996,-10.225 2.004,-15.623 0.048,-30.535 -21.895,-55.89 -50.718,-60.785 z"/><path style="opacity:1;fill:none;stroke:#85310a;stroke-width:1.5;filter:url(#filter2066)" id="SvgjsPath3960" d="m 143.58877,121.77471 c -5.003,10.225 -20.08848,35.80639 -30.84248,40.63539 -5.366,2.412 -17.9727,2.03624 -23.2847,-0.49376 -10.646,-5.067 -23.713421,-23.89206 -28.749421,-34.10106 C 55.099169,116.44128 41.15,78.444 41.138,78.39 c -1.3,-4.988 -1.996,-10.225 -2.004,-15.623 -0.052,-34 27.154,-61.598 60.772,-61.65 33.621,-0.053 60.913,27.457 60.963,61.456 0.009,5.4 -0.669,10.638 -1.952,15.631 -0.016,0.052 -9.73223,32.13271 -15.32823,43.57071 z"/></g></g><g id="g5174" transform="matrix(-0.65847733,0,0,0.65847733,181.79421,28.858583)"><g id="svga-group-mouth-single-move" transform="matrix(1.2446424,0,0,1.3959737,-15.850019,-32.791387)"><g id="svga-group-mouth-single" transform="matrix(1.1500005,0,0,1.1500005,-15.00057,-20.429809)"><path id="SvgjsPath3792" d="m 100.002,140.198 c -5.219,0 -6.442,-2.251 -6.442,-2.251 6.903,1.402 12.884,-0.096 12.884,-0.096 0,0 -1.852,2.347 -6.442,2.347 z" style="opacity:1;fill:url(#linearGradient565);filter:url(#filter2078)"/><path id="SvgjsPath3796" stroke-width="none" d="m 83.436,134.045 c 5.529,-0.367 8.751,-1.781 11.503,-1.845 1.422,-0.035 2.951,0.575 4.485,0.771 1.066,0.136 4.094,-0.765 5.184,-0.771 2.852,-0.017 7.046,1.422 11.926,1.845 0.175,0.015 0,0 0,0 0,0 -7.268,4.597 -16.549,4.597 -10.506,0 -16.549,-4.597 -16.549,-4.597 0,0 -0.177,0.011 0,0 z" style="opacity:1;fill:#904539;stroke:none;filter:url(#filter2082)"/><path id="SvgjsPath3797" stroke-width="none" d="m 116.994,133.91 c -0.061,-0.109 -0.606,-0.244 -0.82,-0.238 -0.392,0.011 -0.842,0.262 -1.648,0.271 -0.933,0.01 -5.871,0.402 -7.197,0.356 -2.674,-0.094 -4.802,0.44 -7.342,0.44 -2.542,0 -4.853,-0.583 -7.524,-0.489 -1.327,0.048 -6.085,-0.297 -7.019,-0.308 -0.807,-0.01 -1.119,-0.273 -1.463,-0.308 -0.241,-0.023 -0.833,0.11 -0.95,0.222 -0.104,0.102 0.115,0.445 0.262,0.527 0.357,0.195 1.425,0.16 2.132,0.169 0.974,0.012 5.744,0.355 7.091,0.308 2.611,-0.093 4.94,0.544 7.471,0.544 2.53,0 4.676,-0.587 7.287,-0.494 1.343,0.048 6.295,-0.347 7.271,-0.357 0.706,-0.009 1.715,-0.039 2.075,-0.193 0.172,-0.072 0.435,-0.339 0.374,-0.45 z" style="opacity:1;fill:#621609;stroke:none;filter:url(#filter2094)"/><path id="SvgjsPath3798" stroke-width="none" d="m 88.386,135.437 c 9.831,-0.289 6.257,0.233 10.942,0.392 2.369,0.085 9.812,-0.924 12.748,-0.869 -9.023,3.642 -17.299,3.266 -23.69,0.477 z m 23.268,-1.815 c -5.961,-1.694 -10.568,-0.265 -11.703,-0.185 -3.81,0.264 -1.78,-2.049 -10.986,0.24 8.953,-0.126 6.496,0.491 10.721,0.567 1.677,0.029 10.17,-0.691 11.968,-0.622 z" style="opacity:1;fill:#984f44;stroke:none;filter:url(#filter2086)"/><path id="SvgjsPath3799" stroke-width="none" d="m 92.763,135.67 c 4.978,-0.262 4.379,1.022 10.036,0.243 1.552,-0.212 2.205,-0.288 3.822,-0.221 -4.831,1.898 -9.926,1.562 -13.858,-0.022 z" style="opacity:1;fill:#9f5a4f;stroke:none;filter:url(#filter2090)"/></g></g><g id="svga-group-eyes-left-move" transform="matrix(1.0936745,-0.19046944,0.19046944,1.0936745,-14.072441,19.329982)"><g id="svga-group-eyes-left" transform="matrix(0.8999997,0,0,0.8999997,7.4610541,8.4263064)"><g id="svga-group-eyesback-left"><path id="SvgjsPath3618" d="m 76.732,78.383 c 4.587,0.679 7.931,3.488 10.773,7.94 0.004,0.005 0.013,0.004 0.018,0.008 0.007,0.027 0.021,0.053 0.026,0.08 0.255,1.007 -0.816,1.819 -2.155,2.438 -4.771,0.609 -9.359,1.489 -14.194,0.87 -9.681,-1.241 -9.855,-5.509 -10.326,-6.629 -0.252,-1.101 -0.325,-1.417 -0.311,-2.473 2.332,-1.366 4.043,-1.647 5.854,-2.005 2.124,-0.418 6.851,-0.744 10.315,-0.229 z" style="opacity:1;fill:url(#SvgjsRadialGradient3619-3-6)"/></g><g id="svga-group-eyesiriswrapper-left" transform="translate(0.25)"><g id="svga-group-eyesiriscontrol-left"><g id="svga-group-eyesiris-left" transform="matrix(0.9499999,0,0,0.9499999,3.7000021,4.1999731)"><path id="SvgjsPath3676" d="m 79.788,85.588 c -0.869,3.192 -4.16,5.073 -7.358,4.196 -3.195,-0.876 -5.083,-4.178 -4.212,-7.371 0.868,-3.195 4.167,-5.076 7.362,-4.198 3.193,0.875 5.078,4.177 4.208,7.373 z" style="opacity:1;fill:#382413;stroke:#0a0500;stroke-width:.5"/><path id="SvgjsPath3677" stroke-width="none" d="m 73.265,80.413 -0.156,-0.279 c -0.548,0.218 -1.076,0.445 -1.575,0.687 l 0.37,0.894 -0.047,0.517 -1.426,-0.839 c -0.466,0.259 -0.898,0.529 -1.318,0.804 l 0.004,0.009 -0.489,0.55 0.781,0.799 -1.052,0.574 0.398,0.657 1.857,0.185 -1.741,1.181 1.863,-0.103 -0.982,1.693 2.297,-1.39 -0.618,2.364 1.329,-2.184 0.256,2.343 0.384,-2.072 0.353,-0.043 0.5,2.35 0.152,-0.705 c 0.201,-0.052 0.718,0.704 0.915,0.651 l -0.584,-2.556 1.282,2.556 -0.52,-2.651 1.578,2.05 c 0.057,-0.018 0.196,-0.85 0.252,-0.867 l -0.982,-1.469 1.785,0.539 -1.071,-1.16 -0.86,-0.712 3.586,0.803 -1.997,-1.217 1.411,-0.577 -3.055,-0.309 3.021,-1.602 -2.734,0.698 -0.736,-0.399 -0.181,-0.354 0.052,-0.846 0.061,-1.389 -1.248,2.198 -0.11,-1.609 -0.157,-0.421 c -0.25,0.087 -0.495,0.172 -0.736,0.265 z" style="opacity:1;fill:#47321f"/><path id="SvgjsPath3678" stroke-width="none" d="m 79.856,82.755 c -5.242,0.239 -7.907,1.36 -11.707,2.631 -0.732,-3.229 1.298,-6.438 4.53,-7.164 3.232,-0.726 6.446,1.303 7.177,4.533 z" style="opacity:.9;fill:#29180a"/><path id="SvgjsPath3679" d="m 74.869,81.998 c -1.319,-0.378 -2.666,0.375 -3.005,1.69 -0.342,1.308 0.452,2.678 1.771,3.056 1.32,0.379 2.667,-0.375 3.009,-1.684 0.343,-1.315 -0.454,-2.684 -1.775,-3.062 z" style="opacity:1;vector-effect:none;fill:#000;fill-opacity:1;stroke-width:1.64865816;stroke-linecap:butt;stroke-linejoin:miter;stroke-miterlimit:4;stroke-dasharray:none;stroke-dashoffset:0;stroke-opacity:1"/><path id="SvgjsPath3680" d="m 74.869,81.998 c -1.319,-0.378 -2.666,0.375 -3.005,1.69 -0.342,1.308 0.452,2.678 1.771,3.056 1.32,0.379 2.667,-0.375 3.009,-1.684 0.343,-1.315 -0.454,-2.684 -1.775,-3.062 z" style="opacity:1;fill:none;stroke:#0a0500;stroke-width:.75;filter:url(#filter2070)"/><path id="SvgjsPath3681" stroke-width="none" d="m 69.631,87.56 c 0.613,0.973 1.426,1.706 2.578,1.95 1.326,0.281 1.477,-1.483 0.528,-1.685 -0.72,-0.152 -1.176,-0.505 -1.552,-1.102 -0.688,-1.093 -2.106,-0.039 -1.554,0.837 z" style="opacity:.4;fill:#fff"/><path id="SvgjsPath3682" d="m 75.033,81.493 c 0.929,0.187 1.469,0.768 1.938,1.64 0.862,1.604 3.299,0.178 2.437,-1.425 -0.757,-1.408 -2.019,-2.613 -3.625,-2.938 -2.057,-0.415 -2.345,2.401 -0.75,2.723 z" style="opacity:1;fill:url(#linearGradient567)"/></g></g></g><g id="svga-group-eyesfront-left"><path id="SvgjsPath3643" stroke-width="none" d="m 55.112,83.583 c 3.224,11.315 7.475,23.313 17.685,23.669 10.21,0.356 22.135,-7.239 22.29,-22.238 C 95.26,68.247 84.613,61.633 74.403,61.277 64.193,60.921 50.307,66.714 55.112,83.583 Z m 5.763,-0.493 c -0.252,-1.101 -0.325,-1.417 -0.311,-2.473 2.027,-1.21 4.04,-1.547 5.851,-1.905 2.123,-0.418 6.853,-0.845 10.317,-0.329 4.587,0.679 7.931,3.488 10.773,7.94 0.004,0.005 0.013,0.004 0.018,0.008 0.007,0.027 0.021,0.053 0.026,0.08 0.255,1.007 -0.816,1.819 -2.155,2.438 -4.771,0.609 -9.359,1.489 -14.194,0.87 C 61.519,88.478 61.345,84.21 60.875,83.09 Z" style="opacity:1;fill:#b36743;stroke:none;filter:url(#filter2054)"/><path id="SvgjsPath3644" d="m 74.225,95.171 c 9.256,1.401 17.847,-3.01 19.186,-9.859 1.34,-6.849 -5.072,-13.537 -14.329,-14.94 -9.258,-1.399 -17.845,3.012 -19.185,9.862 -1.34,6.848 5.07,13.532 14.328,14.937 z M 60.563,80.617 c 2.125,-1.141 4.04,-1.547 5.851,-1.905 2.123,-0.418 6.853,-0.845 10.317,-0.329 4.587,0.679 7.931,3.488 10.773,7.94 0.004,0.005 0.013,0.004 0.018,0.008 0.007,0.027 0.021,0.053 0.026,0.08 0.255,1.007 -0.816,1.819 -2.155,2.438 -4.771,0.609 -9.359,1.489 -14.194,0.87 C 61.518,88.478 61.344,84.21 60.873,83.09 60.622,81.989 60.55,81.672 60.563,80.617 Z" style="opacity:1;fill:url(#SvgjsRadialGradient3645-9-6)"/><path id="SvgjsPath3649" d="m 60.875,83.09 c -0.252,-1.101 -0.325,-1.417 -0.311,-2.473 2.092,-1.175 4.04,-1.547 5.851,-1.905 2.123,-0.418 6.853,-0.845 10.317,-0.329 4.587,0.679 7.931,3.488 10.773,7.94 0.004,0.005 0.013,0.004 0.018,0.008 0.007,0.027 0.021,0.053 0.026,0.08 0.255,1.007 -0.816,1.819 -2.155,2.438 -4.771,0.609 -9.359,1.489 -14.194,0.87 C 61.519,88.478 61.345,84.21 60.875,83.09 Z" style="opacity:1;fill:url(#SvgjsRadialGradient3650-6-6)"/><path id="SvgjsPath3653" stroke-width="none" d="m 76.327,75.748 c 3.294,0.539 6.505,2.054 9.48,3.945 0.637,0.404 1.366,0.865 2.521,1.451 -0.828,-0.188 -1.594,-0.617 -2.309,-1.011 0.736,0.698 1.422,1.529 1.982,2.334 C 85.48,79.308 80.704,76.929 76.641,76.118 72.739,75.339 65.652,75.854 60.39,78.16 65.208,75.449 72.237,75.08 76.327,75.748 Z" style="opacity:1;fill:#85310a;stroke:none"/><path id="SvgjsPath3654" d="m 87.508,86.277 c -2.847,-4.34 -6.193,-7.082 -10.781,-7.747 -4.833,-0.705 -11.271,-0.221 -15.034,1.843 -0.308,0.169 -1.607,1.249 -1.401,0.117 0.874,-1.167 4.322,-2.523 5.993,-2.928 18.745,-4.543 22.297,10.292 21.223,8.715 z M 60.646,82.841 c -0.716,2.063 0.861,6.654 10.145,7.503 6.595,0.602 15.767,-1.75 14.634,-1.613 C 80.646,89.32 76.05,90.18 71.206,89.57 60.224,88.19 61.468,83.023 60.646,82.841 Z" style="opacity:1;vector-effect:none;fill:#000;fill-opacity:1;stroke:none;stroke-width:1.56622505;stroke-linecap:butt;stroke-linejoin:miter;stroke-miterlimit:4;stroke-dasharray:none;stroke-dashoffset:0;stroke-opacity:1"/></g></g></g><g id="svga-group-eyes-right-move" transform="matrix(1.106302,0.09218734,-0.09218734,1.106302,6.1996781,-7.4566509)"><g id="svga-group-eyes-right" transform="matrix(0.8999997,0,0,0.8999997,12.487241,8.4262853)"><g id="svga-group-eyesback-right"><path id="SvgjsPath3626" d="m 122.867,78.383 c -4.586,0.679 -7.931,3.488 -10.773,7.94 -0.004,0.005 -0.012,0.004 -0.018,0.008 -0.006,0.027 -0.02,0.053 -0.025,0.08 -0.256,1.007 0.815,1.819 2.154,2.438 4.771,0.609 9.359,1.489 14.194,0.87 9.681,-1.241 9.855,-5.509 10.325,-6.629 0.253,-1.101 0.325,-1.417 0.312,-2.473 -2.331,-1.366 -4.043,-1.647 -5.854,-2.005 -2.123,-0.418 -6.85,-0.744 -10.315,-0.229 z" style="opacity:1;fill:url(#SvgjsRadialGradient3627-1-7)"/></g><g id="svga-group-eyesiriswrapper-right" transform="translate(-0.25)"><g id="svga-group-eyesiriscontrol-right"><g id="svga-group-eyesiris-right" transform="matrix(0.9499999,0,0,0.9499999,6.3000164,4.1999334)"><path id="SvgjsPath3686" d="m 131.788,85.587 c -0.869,3.193 -4.16,5.074 -7.358,4.196 -3.195,-0.876 -5.082,-4.178 -4.212,-7.371 0.867,-3.195 4.167,-5.076 7.361,-4.198 3.195,0.877 5.079,4.179 4.209,7.373 z" style="opacity:1;fill:#382413;stroke:#0a0500;stroke-width:.5"/><path id="SvgjsPath3687" stroke-width="none" d="m 125.266,80.413 -0.155,-0.278 c -0.548,0.217 -1.076,0.445 -1.576,0.686 l 0.37,0.894 -0.047,0.517 -1.426,-0.839 c -0.467,0.259 -0.898,0.529 -1.317,0.804 l 0.004,0.009 -0.49,0.551 0.782,0.799 -1.052,0.573 0.397,0.657 1.857,0.185 -1.741,1.181 1.863,-0.103 -0.982,1.692 2.296,-1.39 -0.616,2.364 1.328,-2.184 0.257,2.343 0.384,-2.073 0.353,-0.043 0.501,2.35 0.151,-0.704 c 0.201,-0.052 0.719,0.703 0.915,0.651 l -0.585,-2.556 1.283,2.556 -0.521,-2.651 1.577,2.05 c 0.057,-0.018 0.197,-0.85 0.253,-0.867 l -0.982,-1.469 1.786,0.538 -1.071,-1.16 -0.859,-0.712 3.586,0.802 -1.997,-1.216 1.411,-0.577 -3.054,-0.308 3.021,-1.603 -2.734,0.698 -0.736,-0.399 -0.18,-0.354 0.052,-0.847 0.061,-1.388 -1.247,2.198 -0.11,-1.609 -0.156,-0.422 c -0.25,0.087 -0.495,0.173 -0.735,0.265 z" style="opacity:1;fill:#47321f"/><path id="SvgjsPath3688" stroke-width="none" d="m 131.855,82.755 c -5.24,0.239 -7.906,1.36 -11.706,2.631 -0.731,-3.229 1.298,-6.438 4.53,-7.164 3.232,-0.727 6.447,1.303 7.176,4.533 z" style="opacity:.9;fill:#29180a"/><path id="SvgjsPath3689" d="m 126.87,81.998 c -1.319,-0.378 -2.666,0.376 -3.005,1.69 -0.343,1.308 0.451,2.678 1.77,3.056 1.322,0.379 2.668,-0.375 3.009,-1.684 0.343,-1.315 -0.455,-2.684 -1.774,-3.062 z" style="opacity:1;vector-effect:none;fill:#000;fill-opacity:1;stroke-width:1.64865804;stroke-linecap:butt;stroke-linejoin:miter;stroke-miterlimit:4;stroke-dasharray:none;stroke-dashoffset:0;stroke-opacity:1"/><path id="SvgjsPath3690" d="m 126.87,81.998 c -1.319,-0.378 -2.666,0.376 -3.005,1.69 -0.343,1.308 0.451,2.678 1.77,3.056 1.322,0.379 2.668,-0.375 3.009,-1.684 0.343,-1.315 -0.455,-2.684 -1.774,-3.062 z" style="opacity:1;fill:none;stroke:#0a0500;stroke-width:.75;filter:url(#filter2074)"/><path id="SvgjsPath3691" stroke-width="none" d="m 121.632,87.56 c 0.612,0.973 1.426,1.706 2.577,1.95 1.326,0.281 1.478,-1.482 0.528,-1.685 -0.72,-0.152 -1.177,-0.504 -1.552,-1.102 -0.687,-1.093 -2.106,-0.039 -1.553,0.837 z" style="opacity:.4;fill:#fff"/><path id="SvgjsPath3692" d="m 127.034,81.493 c 0.929,0.187 1.469,0.767 1.938,1.639 0.862,1.604 3.3,0.178 2.437,-1.425 -0.757,-1.408 -2.018,-2.613 -3.625,-2.938 -2.057,-0.414 -2.346,2.402 -0.75,2.724 z" style="opacity:1;fill:url(#linearGradient569)"/></g></g></g><g id="svga-group-eyesfront-right"><path id="SvgjsPath3664" stroke-width="none" d="m 125.197,61.277 c -10.211,0.356 -20.857,6.97 -20.685,23.737 0.154,15 12.079,22.595 22.29,22.238 10.21,-0.356 16.187,-17.323 17.685,-23.669 4.03,-17.071 -9.08,-22.662 -19.29,-22.306 z m 3.202,28.442 c -4.835,0.619 -9.423,-0.261 -14.194,-0.87 -1.339,-0.618 -2.41,-1.43 -2.154,-2.438 0.006,-0.027 0.02,-0.053 0.025,-0.08 0.006,-0.004 0.014,-0.003 0.018,-0.008 2.843,-4.452 6.188,-7.261 10.773,-7.94 3.465,-0.516 8.195,-0.089 10.318,0.329 1.811,0.357 3.824,0.694 5.851,1.905 0.014,1.055 -0.059,1.372 -0.312,2.473 -0.469,1.12 -0.644,5.388 -10.325,6.629 z" style="opacity:1;fill:#b36743;stroke:none;filter:url(#filter2058)"/><path id="SvgjsPath3665" d="m 139.703,80.234 c -1.34,-6.85 -9.928,-11.261 -19.186,-9.862 -9.257,1.403 -15.669,8.091 -14.328,14.94 1.339,6.849 9.93,11.26 19.186,9.859 9.258,-1.405 15.668,-8.089 14.328,-14.937 z m -0.978,2.856 c -0.47,1.121 -0.645,5.388 -10.325,6.629 -4.835,0.619 -9.423,-0.261 -14.194,-0.87 -1.339,-0.618 -2.41,-1.43 -2.154,-2.438 0.006,-0.027 0.02,-0.053 0.025,-0.08 0.006,-0.004 0.014,-0.003 0.018,-0.008 2.843,-4.452 6.188,-7.261 10.773,-7.94 3.465,-0.516 8.195,-0.089 10.318,0.329 1.811,0.357 3.727,0.764 5.851,1.905 0.013,1.055 -0.059,1.372 -0.312,2.473 z" style="opacity:1;fill:url(#SvgjsRadialGradient3666-5-2)"/><path id="SvgjsPath3670" d="m 138.725,83.09 c 0.253,-1.101 0.325,-1.417 0.312,-2.473 -2.092,-1.175 -4.04,-1.547 -5.851,-1.905 -2.123,-0.418 -6.854,-0.845 -10.318,-0.329 -4.586,0.679 -7.931,3.488 -10.773,7.94 -0.004,0.005 -0.012,0.004 -0.018,0.008 -0.006,0.027 -0.02,0.053 -0.025,0.08 -0.256,1.007 0.815,1.819 2.154,2.438 4.771,0.609 9.359,1.489 14.194,0.87 9.68,-1.241 9.855,-5.509 10.325,-6.629 z" style="opacity:1;fill:url(#radialGradient6255)"/><path id="SvgjsPath3674" stroke-width="none" d="m 123.273,75.748 c -3.295,0.539 -6.506,2.054 -9.48,3.945 -0.637,0.404 -1.367,0.865 -2.521,1.451 0.828,-0.188 1.594,-0.617 2.309,-1.011 -0.736,0.698 -1.422,1.529 -1.982,2.334 2.521,-3.159 7.297,-5.538 11.359,-6.349 3.902,-0.779 10.989,-0.264 16.252,2.042 -4.819,-2.711 -11.848,-3.08 -15.937,-2.412 z" style="opacity:1;fill:#85310a;stroke:none"/><path id="SvgjsPath3675" d="m 133.314,77.563 c 1.672,0.405 5.119,1.761 5.994,2.928 0.205,1.132 -1.094,0.052 -1.402,-0.117 -3.764,-2.064 -10.201,-2.548 -15.033,-1.843 -4.588,0.665 -7.936,3.407 -10.781,7.747 -1.074,1.576 2.478,-13.259 21.222,-8.715 z m -4.919,12.007 c -4.844,0.61 -9.439,-0.25 -14.219,-0.839 -1.134,-0.137 8.038,2.215 14.633,1.613 9.284,-0.849 10.861,-5.44 10.145,-7.503 -0.823,0.182 0.422,5.349 -10.559,6.729 z" style="opacity:1;vector-effect:none;fill:#000;fill-opacity:1;stroke:none;stroke-width:1.56622505;stroke-linecap:butt;stroke-linejoin:miter;stroke-miterlimit:4;stroke-dasharray:none;stroke-dashoffset:0;stroke-opacity:1"/></g></g></g><g id="svga-group-eyebrows-left-move" transform="matrix(1.0744357,-0.08019704,0.09211299,1.234079,-3.6011535,2.4459515)"><g id="svga-group-eyebrows-left-rotate"><g id="svga-group-eyebrows-left"><path id="SvgjsPath3698" stroke-width="none" d="m 52.488,73.87 c 7.475,-9.383 20.269118,-7.157588 30.809118,-5.649588 2.681,0.384 6.161217,1.22829 8.138882,2.287734 1.884,0.475 3.365,2.622 1.851,4.356 -0.708,0.825 -2.253,0.672 -3.207,0.652 C 77.069346,72.285683 63.193,66.387 52.488,73.87 Z" style="opacity:1;fill:#1a1a1a"/></g></g></g><g id="svga-group-eyebrows-right-move" transform="matrix(1.1190954,0.07583399,-0.08745154,1.2905377,-1.0979469,-17.40224)" style="fill:#1a1a1a"><g id="svga-group-eyebrows-right-rotate" style="fill:#1a1a1a"><g id="svga-group-eyebrows-right" style="fill:#1a1a1a"><path id="SvgjsPath3699" stroke-width="none" d="m 147.577,73.49 c -2.164,-1.448 -4.454,-2.47 -7.043,-2.889 -9.497,-1.54 -23.09377,2.093147 -29.9221,5.397728 -2.4844,0.449309 -3.2034,-1.757446 -2.85954,-3.313337 0.62016,-1.974518 3.64006,-3.112733 7.31464,-4.188992 4.94339,-1.460343 24.921,-4.141399 32.51,4.993601 z" style="opacity:1;fill:#1a1a1a"/></g></g></g><g id="svga-group-nose-single-move" transform="matrix(1.1101363,0,0,1.1101363,-1.4714403,1.446997)"><g id="svga-group-nose-single" transform="matrix(1.2500009,0,0,1.2500009,-25.017333,-25.741587)"><path id="SvgjsPath3800" stroke-width="none" d="m 91.115,115.499 c -0.878,2.064 5.934,4.292 8.519,4.429 2.8,0.147 10.646,-2.9 9.316,-4.992 -1.399,-2.195 -6.643,-0.286 -8.906,-0.286 -2.252,-0.001 -7.753,-1.905 -8.929,0.849 z" style="opacity:1;fill:#a4532d;stroke:none;filter:url(#filter2106)"/><path id="SvgjsPath3801" stroke-width="none" d="m 101.857,117.058 c -0.23,-0.759 1.876,-1.584 2.657,-1.694 1.101,-0.16 3.36,0.802 3.158,1.592 -0.184,0.698 -2.148,-0.533 -2.86,-0.429 -0.734,0.107 -2.737,1.242 -2.955,0.531 z m -6.883,-0.247 c 0.968,0 2.404,0.623 2.668,0.074 0.315,-0.655 -2.139,-1.461 -2.86,-1.372 -0.596,0.07 -2.733,1.315 -2.439,1.839 0.274,0.481 1.355,-0.541 2.631,-0.541 z" style="opacity:1;fill:#85310a;stroke:none"/><path id="SvgjsPath3802" stroke-width="none" d="m 100.089,111.999 c 0.607,0 1.742,-0.74 1.792,-2.23 0.201,-6.008 -0.956,-23.833 -1.792,-23.77 -0.78,0.059 -2.267,17.637 -1.948,23.77 0.079,1.502 1.263,2.23 1.948,2.23 z" style="opacity:.2;fill:#eca787;fill-opacity:1;stroke:none"/></g></g></g><g id="svga-group-hair-front" transform="matrix(-0.73099959,0,0,0.73099966,183.84608,29.83848)"><path style="opacity:.1;fill:#2a232b" id="SvgjsPath3913" stroke-width="none" d="m 57.802,28.734 c 9.237,-8.79 44.55,-0.761 55.197,0.239 10.142,0.782 23.526,-30.339 43.604,49.479 -0.045,3.839 -1.289,10.633 -2.796,15.468 -0.145,-0.101 -0.286,-0.208 -0.431,-0.306 0,0 0.518,3.257 -6.059,14.39 16.70533,-28.390394 -70.364772,-81.68178 -84.173,-51.775 0,0 -1.571,4.043 -2.662,8.635 -2.878,12.162 -2.904,27.281 -3.429,31.125 -1.665,-8.721 -1.925,-18.482 -1.922,-18.355 -3.905,17.893 -0.419,30.394 -0.352,34.724 -5.198,-10.435 -10.604,-22.897 -12.177,-34.534 0.002,0 11.619,-50.69 15.2,-49.09 z"/><path style="opacity:1;fill:#090015;fill-opacity:1" id="SvgjsPath3914" stroke-width="none" d="m 29.382,67.866 c 0.08,-5.39 1.12,-13.92 2.921,-18.78 -3.28,3.39 -7.41,7.39 -10.78,9.5 4.46,-3.86 5.841,-7.16 15.921,-28.3 6.189,-12.98 10.287,-26.75 22.378,-28.37 4.079,-0.56 8.05,0.99 11.779,2.59 9.61,-8.79 21.59,-12.331 32.671,-11.331 33.879,2.51 42.916,24.391 61.036,28.771 -2.84,0.83 -7.616,-0.468 -10.336,-1.748 3.75,5.06 2.422,4.531 10.692,12.801 3.369,3.34 6.482,7.444 10.543,9.854 -5.449,-0.681 -8.313,-4.834 -16.282,-9.104 1.149,1.84 5.249,8.094 11.929,14.494 2.87,2.74 7.6,6.584 10.898,8.914 -2.409,-0.96 -9.488,-3.726 -15.607,-9.152 3.169,4.531 12.262,12.94 8.145,29.881 -0.832,-7.406 0.002,-16.415 -7.049,-20.895 0.784,3.301 3.814,10.222 1.604,17.708 H 158.91 c -0.047,3.839 -1.342,10.934 -2.908,15.769 -0.151,-0.101 -0.297,-0.208 -0.449,-0.306 0,0 1.06815,1.68585 -5.77285,12.81885 C 150.14315,94.90785 147.987,90.659 146.656,83.138 130.31,63.151 107.13678,52.78572 95.514784,49.30472 97.90094,57.588942 75.213328,52.399834 69.919,45.596 c -5.808,-9.89 -0.379609,31.337472 -6.171,5.181 0,0 -3.716,6.043 -4.847,10.635 -2.995,12.162 -1.984,22.281 -2.528,26.125 -1.732,-8.721 -3.042,-13.482 -3.039,-13.355 -4.066,17.893 0.604,32.394 0.672,36.724 C 48.6,100.471 41.934,85.908 40.297,74.271 H 28.7 c 0.669,-4.327 0.173,-4.339 0.682,-6.405 z"/><path style="opacity:1;fill:#0c080c" id="SvgjsPath3915" stroke-width="none" d="m 22.764,37.286 c 3.811,-0.17 5.876,0.099 10.356,-0.261 0.67,-1.53 2.738,-5.55 3.438,-7.07 -3.499,3.1 -10.764,7.021 -13.794,7.331 z"/><path style="opacity:1;fill:#1a131b;fill-opacity:1" id="SvgjsPath3916" stroke-width="none" d="m 120,6 c 16.027,-2.29 30.9,14.922 44.42,16.002 -2.873,0.59 -7.386,-1.022 -9.989,-2.247 3.75,5.06 2.74,5.09 11.011,13.36 3.369,3.34 5.77,6.92 9.83,9.33 C 170.92,41.723 167.403,37.49 159.616,33.266 150.467,19.744 136.495,7.833 120,6 Z M 63.748,50.777 c 0,0 -3.716,6.043 -4.847,10.635 -2.995,12.162 -1.984,22.281 -2.528,26.125 -1.732,-8.721 -3.042,-13.482 -3.039,-13.355 -0.098,0.428 -0.185,0.851 -0.272,1.275 -3.569,17.303 0.878,31.222 0.944,35.449 C 48.6,100.471 35.649417,100.49745 34.012417,88.861455 L 28.7,74.372 c 0.669,-4.328 0.173,-4.44 0.682,-6.505 0.08,-5.39 1.12,-13.92 2.921,-18.78 -3.28,3.39 -7.41,7.39 -10.78,9.5 4.384,-3.794 5.799,-7.06 15.417,-27.242 C 39.903,26.734 43.257,22.367 47,18 40,27 36,38 35,49 37,43 43.079,38.936 47.204,34.167 42.858,40.958 39.721,47.555 38,57 c 1.263,-2.166 3.05,-3.376 4.352,-5 -2.063,6.007 -1.46,9.452 -0.544,14.033 C 42.71,58.906 44.209,47.331 48,41 c 0,11 -3.411,21.569 1.005,33.277 -0.041,-8.667 3.242,-16.555 5.526,-22.481 -0.454,2.152 -0.105,7.455 0.016,9.648 1.278,-6.668 2.146,-13.21 6.033,-18.583 -1.734,-9.968 -4.468,-20.679 -0.784,-23.305 -5.987,10.398 12.487,19.472 11.935,19.03 10.333,5.74 16.882,6.44 22.24,7.796 -3.495,-2.813 -5.311,-6.313 -8.84,-9.096 10,3.45 23.963,14.121 31.086,18.481 1.902,2.784 2.641,4.833 2.641,4.833 C 69.721964,51.813132 77.753263,43.00658 68.191828,45.348118 65.822037,37.67902 65.515472,53.608982 63.748,50.777 Z m 55.11,9.823 c 8.503,4.017 17.954,10.502 27.798,22.538 1.331,7.521 3.48715,11.769854 3.12415,19.84285 1.527,-2.485 1.15285,-2.98685 2.11285,-4.73785 3.342,-6.095 3.66,-8.081 3.66,-8.081 0.152,0.098 0.298,0.205 0.449,0.306 1.566,-4.835 6.31734,14.0467 6.36434,10.2077 l 8.75795,-21.725592 C 173.33629,71.465108 168.594,59.757 167.81,56.456 c 7.051,4.48 7.24,12.74 7.57,20.16 3.37,-16.67 -5.95,-24.64 -8.9,-29.41 6.17,4.79 13.061,8.53 15.471,9.49 -3.301,-2.33 -7.41,-5.47 -10.28,-8.21 C 168.032,45 165.053,41.306 162.902,38.362 158.216,35.96 154.726,32.363 150,30 c 7.927,5.284 10.424,13.671 12.956,21.745 -1.214,-1.753 -3.177,-2.936 -4.23,-4.512 1.251,3.286 3.089,6.694 2.274,10.767 -5,-7 -7,-17 -15,-23 8.079,8.079 8.639,29.358 8.605,33.148 C 146.453,29.071 111.941,-7.698 77,6 c 35,-11 65,26 69,58 -7,-8 -9,-18 -19,-23 5,5 8,13 11,19 -11,-13 -20,-26 -35,-35 7,8 16,15 21,25 3,3 4,7 6,10 -7,-7 -15.796,-14.161 -24.869,-16.816 10.188,8.774 13.011,15.719 13.727,17.416 z"/><path style="opacity:1;fill:#070707;fill-opacity:1" id="SvgjsPath3917" stroke-width="none" d="M 117.766,5.829 C 126.058,5.8 149.289,12.323 160.86,35.028 148.464,17.819 135.714,9.892 117.766,5.829 Z m 20.079,32.879 C 124.893,11.58 100.687,3.229 87.714,4.067 c 9.373,-0.602 35.792,9 50.131,34.641 z M 73.181,14.559 C 72.572,9.286 65.426,3.87 57.615,6.905 56.944,7.166 56.354,7.642 55.686,7.884 64.214,4.803 72.008,9.383 73.181,14.559 Z M 70.78,17.966 C 68.509,14.72 65.436,11.727 61.471,10.768 49.418,7.854 40.4,25.7 38.314,33.687 38.577,32.684 48.91,8.619 61.811,11.621 c 3.721,0.849 6.603,3.492 8.969,6.345 z m -1.206,2.305 C 68.445,34.204 100.449,44.038 107.469,49.976 94.975,39.407 69.766,32.882 69.574,20.271 Z m 55.219,30.878 C 122.142,46.716 111.131,28.902 93.434,18.303 82.457,11.729 78.196,15.699 76.108,16.667 90.316,10.093 116.346,39.44 124.793,51.149 Z"/><path style="opacity:1;fill:#3a353a" id="SvgjsPath3918" stroke-width="none" d="m 154.605,30.218 c 0,0 -12.998,-14.019 -32.379,-20.881 14.486,3.62 23.094,10.746 32.379,20.881 z M 122.58,10.545 c 8.373,2.862 22.848,18.934 24.674,22.069 C 142.53,24.503 131.43,12.888 122.58,10.545 Z M 96.203,7.936 c 16.427,3.769 31.383,22.259 31.383,22.259 C 120.613,19.403 109.143,9.004 96.203,7.936 Z m -14.176,9.62 c 7.952,2.046 25.885,16.866 26.805,18.162 C 106.244,32.075 90.721,18.78 82.027,17.556 Z m -5.713,1.556 c 8.738,1.131 15.985,8.446 17.066,9.925 -4.542,-6.213 -9.201,-9.734 -17.066,-9.925 z m -0.872,2.767 c 8.537,8.845 21.252,11.429 25.864,17.449 C 94.935,31.012 83.235,29.092 75.442,21.879 Z M 85.865,42.83 C 74.654,36.746 66.899,31.462 65.162,29.979 c -1.836,-1.565 -6.52,-5.33 -3.095,-9.151 -2.542,1.67 -2.01,5.382 1.396,8.925 3.704,3.854 21.4,13.077 22.402,13.077 -0.97,-0.527 -10e-4,0 0,0 z m 7.896,3.54 C 85.101,44.29 76.234,41.336 68.801,36.324 63.629,32.837 55.936,24.7 59.941,19.922 c 1.146,-1.371 3.559,-2.013 5.297,-1.993 -1.732,-0.021 -3.829,0.4 -5.168,1.556 -3.872,3.344 0.268,11.895 6.736,16.54 7.827,5.621 17.656,8.348 26.955,10.345 z m 0.435,-34.38 c 1.66,0.332 3.306,0.552 4.901,1.161 13.539,5.162 26.441,21.077 26.441,21.077 C 118.564,23.811 106.82,13.181 94.196,11.99 Z m 1.242,4.431 c 15.557,5.988 32.561,25.947 33.561,26.663 C 121.432,31.611 108.664,19.74 95.438,16.421 Z m -39.324,2.43 C 45.792,16.807 40.93,34.254 40.335,35.255 43.838,28.076 49.19,18.188 56.114,18.851 Z M 56.22,30.75 C 47.459,38.968 49.356,49.372 49.503,54.228 49.338,45.406 51.606,36.237 56.22,30.75 Z"/><path style="opacity:1;vector-effect:none;fill:#000;fill-opacity:1;stroke-width:1.40960193;stroke-linecap:butt;stroke-linejoin:miter;stroke-miterlimit:4;stroke-dasharray:none;stroke-dashoffset:0;stroke-opacity:1" id="SvgjsPath3919" d="m 31.491,50.465 c -3.98,10.99 -2.87,22.38 -2.931,23.38 -0.079,0.171 -0.238,0.529 -0.317,0.703 1.05,-0.224 0.815,-0.006 1.079,-0.006 2.013,-4.338 4.543,-10.008 11.318,-19.136 -4.29,5.17 -8.16,10.6 -11.21,16.62 1.811,-11.55 9.17,-21.13 10.021,-22.35 -4.04,5.13 -7.82,10.61 -9.87,17.39 0.08,-5.39 1.319,-13.72 3.12,-18.58 -3.28,3.39 -7.41,7.69 -10.78,9.8 4.46,-3.86 6.04,-6.86 16.12,-28 6.189,-12.98 9.689,-26.55 21.78,-28.17 4.079,-0.56 8.05,0.79 11.779,2.39 9.61,-8.79 21.59,-11.83 32.671,-10.83 33.879,2.51 42.409,23.86 60.529,28.24 -2.84,0.83 -7.65,-0.88 -10.37,-2.16 3.75,5.06 2.74,5.09 11.011,13.36 3.369,3.34 5.77,6.92 9.83,9.33 -4.4,-0.73 -7.94,-5.05 -15.91,-9.32 1.149,1.84 5.629,8.96 12.31,15.36 2.87,2.74 6.979,5.88 10.28,8.21 -2.41,-0.96 -9.301,-4.7 -15.471,-9.49 2.95,4.77 12.271,12.74 8.9,29.41 -0.33,-7.42 -0.52,-15.68 -7.57,-20.16 0.784,3.301 4.045,11.059 1.833,18.544 h 0.317 0.875 c 2.142,-6.938 -0.861,-13.751 -2.085,-17.224 6.409,5.8 6.31,18.31 5.67,24.379 2.521,-6.85 3.479,-13.449 1.46,-20.489 -1.13,-3.96 -3.5,-7.46 -5.96,-10.71 -0.17,-0.23 -0.351,-0.46 -0.521,-0.69 4.69,3.76 10.521,7.08 16.11,8.14 0,0 -17.069,-12.22 -24.31,-23.26 1.8,1.29 4.25,3.34 6.64,4.95 3.45,2.35 6.17,3.54 10.14,3.04 -4.72,-2.17 -7.83,-6.79 -11.149,-10.25 -7.37,-7.74 -4.36,-3.42 -10.56,-11.66 5,2.04 7.649,1.84 10.67,0.75 -1.701,-0.4 -3.48,-0.87 -5.08,-1.49 -13.41,-5.19 -28.451,-28.98 -60.24,-29.1 -10.9,-0.05 -22.641,4.17 -30.32,12.49 -1.33,-0.61 -2.68,-1.13 -4.04,-1.57 -17.26,-5.55 -23.17,10.32 -30.74,26.41 -2.88,2.39 -8.47,7.94 -16.029,8.68 3.67,0.26 7.54,0.58 12.06,0.2 -6.62,15.06 -6.979,16.7 -15.57,23.75 7.35,-2.551 9.68,-5.471 14.51,-10.881 z m 4.47,-19.71 c -0.7,1.52 -2.37,4.34 -3.04,5.87 -4.48,0.36 -5.55,0.39 -9.36,0.56 3.03,-0.31 8.9,-3.33 12.4,-6.43 z m 3.977,39.784 c 0,1.85 2.122,11.566 4.412,17.556 -1.18,-6.81 -1.41,-13.92 -1.229,-20.82 0.18,-7.13 1.3,-14.12 3.34,-20.95 -4.72,19.62 -2.17,45.13 7.229,63.271 -1.909,-9.51 -3.02,-19.14 -1.81,-28.82 0.28,-2.24 0.66,-4.46 1.16,-6.66 0,0 -0.92,-8.37 1.49,-22.32 -1.641,11.57 -0.5,22.83 1.76,34.21 -0.22,-8.28 0.2,-16.63 2.32,-24.67 1.159,-4.4 2.439,-5.78 4.5,-10.88 -1.131,-4.1 -1.711,-8.32 -2.11,-12.54 6.689008,27.395746 2.48403,8.22897 8.571,7.78 -2.04,-3.2 -3.83,-6.56 -5.46,-9.99 9.089366,14.378086 8.730053,15.249214 18.77,8.84 6.997245,-3.001932 20.45276,18.321907 11.981,0 1.729,2.37 3.479,4.67 5.47,6.83 1.04,1.13 2.16172,0.553548 3.23172,1.653548 6.21,1.86 10.97247,3.969248 20.67147,9.989248 16.671,10.35 21.12681,18.657204 27.89681,25.257204 -1.2,-4.17 -4.88,-11.15 -8.18,-16.9 -3.01,-5.25 -6.32,-10.68 -9.99,-15.14 4.641,4.16 8.07,9.47 11.13,14.84 3.22,5.68 6.81,11.79 7.899,18.31 -2.109,-1.62 -4.01,-3.43 -5.869,-5.34 1.119,6.33 5.39601,4.725128 5.10501,11.155128 9.016,-14.682 8.86899,-27.319128 6.18299,-40.582128 6.943,27.12 -2.05999,35.975128 -7.99199,46.67113 0.46,-6.540002 -4.60666,-16.243947 -5.11666,-20.663947 C 111.86743,47.329348 109.5392,61.269871 81.037123,45.110332 76.213127,42.375319 79.327522,53.617698 70.062,46.455 c -3.240496,-14.856114 -7.712625,9.910506 -6.631,5.12 -1.5,2.98 -3.14,5.96 -3.84,9.25 -0.74,3.46 -1.229,6.95 -1.57,10.47 -0.67,7.07 -1.43,14.33 -1.02,21.44 -1.74,-5.47 -3.07,-10.94 -3.64,-16.67 -1.7,9.52 -0.091,23.48 1.779,37.28 -5.149,-7.021 -9.5,-17.16 -11.99,-26.3 -1.639,-6.04 -3.492,-12.546 -3.212,-16.506 z"/></g><g id="svga-group-glasses-single-move" transform="matrix(-0.73099959,0,0,0.73099959,183.84608,29.838495)"><g id="svga-group-glasses-single"><path style="opacity:1;fill:#26120b" id="SvgjsPath3033" stroke-width="none" d="M 100,18.13 Z"/></g></g></g></g></svg>